<?xml version="1.0" encoding="UTF-8"?>
<!DOCTYPE svg PUBLIC "-//W3C//DTD SVG 1.1//EN" "http://www.w3.org/Graphics/SVG/1.1/DTD/svg11.dtd">
<!-- Creator: CorelDRAW X6 -->
<svg xmlns="http://www.w3.org/2000/svg" xml:space="preserve" width="15.5833in" height="15.5833in" version="1.1" style="shape-rendering:geometricPrecision; text-rendering:geometricPrecision; image-rendering:optimizeQuality; fill-rule:evenodd; clip-rule:evenodd"
viewBox="0 0 15583 15583"
 xmlns:xlink="http://www.w3.org/1999/xlink">
 <defs>
  <style type="text/css">
   <![CDATA[
    .fil18 {fill:#414C58;fill-rule:nonzero}
    .fil4 {fill:#465462;fill-rule:nonzero}
    .fil1 {fill:#475665;fill-rule:nonzero}
    .fil9 {fill:#495B6B;fill-rule:nonzero}
    .fil7 {fill:#4E5D6A;fill-rule:nonzero}
    .fil6 {fill:#536370;fill-rule:nonzero}
    .fil16 {fill:#537082;fill-rule:nonzero}
    .fil22 {fill:#5B7481;fill-rule:nonzero}
    .fil10 {fill:#5C6E7E;fill-rule:nonzero}
    .fil8 {fill:#5E6A77;fill-rule:nonzero}
    .fil5 {fill:#626A6A;fill-rule:nonzero}
    .fil26 {fill:#648A99;fill-rule:nonzero}
    .fil39 {fill:#65A8DF;fill-rule:nonzero}
    .fil36 {fill:#69777E;fill-rule:nonzero}
    .fil3 {fill:#6B716F;fill-rule:nonzero}
    .fil38 {fill:#6D6E70;fill-rule:nonzero}
    .fil14 {fill:#6D9DBF;fill-rule:nonzero}
    .fil19 {fill:#818E96;fill-rule:nonzero}
    .fil35 {fill:#83959E;fill-rule:nonzero}
    .fil28 {fill:#8AA2A9;fill-rule:nonzero}
    .fil15 {fill:#97A8B2;fill-rule:nonzero}
    .fil25 {fill:#9CB8C0;fill-rule:nonzero}
    .fil40 {fill:#A0C7E7;fill-rule:nonzero}
    .fil21 {fill:#A32430;fill-rule:nonzero}
    .fil12 {fill:#A7C1AA;fill-rule:nonzero}
    .fil24 {fill:#A9CCB9;fill-rule:nonzero}
    .fil31 {fill:#BA8E83;fill-rule:nonzero}
    .fil32 {fill:#BA9A83;fill-rule:nonzero}
    .fil33 {fill:#BBBCBF;fill-rule:nonzero}
    .fil29 {fill:#C5D2D3;fill-rule:nonzero}
    .fil20 {fill:#C9C8C9;fill-rule:nonzero}
    .fil34 {fill:#CFB87F;fill-rule:nonzero}
    .fil37 {fill:#D0D1D3;fill-rule:nonzero}
    .fil23 {fill:#D2A66E;fill-rule:nonzero}
    .fil11 {fill:#D9924E;fill-rule:nonzero}
    .fil30 {fill:#E6E6E7;fill-rule:nonzero}
    .fil27 {fill:#E6F4F4;fill-rule:nonzero}
    .fil0 {fill:#F0F5F7;fill-rule:nonzero}
    .fil17 {fill:#F1F1F2;fill-rule:nonzero}
    .fil2 {fill:#F2F0E4;fill-rule:nonzero}
    .fil13 {fill:#F9DD96;fill-rule:nonzero}
   ]]>
  </style>
 </defs>
 <g id="Layer_x0020_1">
  <metadata id="CorelCorpID_0Corel-Layer"/>
  <polygon class="fil0" points="0,15583 15583,15583 15583,0 0,0 "/>
  <path class="fil1" d="M6366 14108c-1034,0 -2071,-38 -3101,-78 -209,-8 -427,-18 -612,-128 -349,-206 -480,-686 -576,-1118 -72,-323 -144,-646 -214,-967 134,-608 276,-1215 424,-1819 79,-324 162,-647 247,-969 41,-157 83,-314 123,-471 10,-37 19,-74 29,-111 15,5 31,8 47,9 15,5 31,8 48,10 4,0 8,0 12,0 64,0 128,-34 162,-89 14,-22 23,-47 31,-72 10,-34 18,-71 11,-106 -5,-28 -20,-53 -34,-78 -5,-9 -10,-18 -15,-27 -8,-14 -16,-28 -26,-39 -28,-30 -72,-41 -113,-49 -5,-1 -10,-2 -15,-3 234,-656 424,-1329 563,-2011 4,-19 8,-38 11,-56 9,2 19,4 29,4 15,5 31,8 48,10 4,0 8,0 12,0 64,0 128,-34 162,-89 14,-22 23,-47 31,-72 5,-17 10,-34 12,-52l42 -1c198,-3 395,-6 593,-10 198,-4 395,-8 593,-13 94,-2 189,-4 283,-8 103,-5 206,-21 309,-24 24,-1 25,-38 0,-38 -103,-1 -206,-13 -309,-16 -43,-1 -85,-2 -128,-2 -60,0 -121,1 -181,1 -206,1 -412,2 -618,3 -200,1 -400,4 -600,6 -5,-10 -11,-21 -17,-31 -5,-9 -10,-18 -15,-27 -8,-14 -16,-28 -26,-39 -28,-30 -72,-41 -113,-49 -5,-1 -10,-2 -15,-3 -11,-3 -22,-5 -32,-7 -22,-4 -45,-8 -68,-8 -7,0 -14,0 -22,1 -67,8 -124,60 -147,123 -23,63 -15,135 13,195 16,35 40,67 69,92 -145,715 -339,1418 -585,2104 -5,0 -10,1 -15,1 -67,8 -124,60 -147,123 -23,63 -15,135 14,195 5,11 11,22 17,32 -16,49 -32,98 -48,148 -50,155 -98,310 -144,465 -95,319 -188,640 -278,960 -123,435 -239,871 -349,1310 -494,-2379 -800,-4723 -14,-7131 182,-557 412,-1107 774,-1568 204,-259 447,-456 717,-606 53,72 109,142 166,210 -9,16 -16,33 -21,51 -16,65 0,135 34,193 43,71 119,126 202,126 2,0 5,0 7,0 14,3 27,5 41,5 2,0 5,0 7,0 69,-3 134,-45 164,-107 11,-22 17,-46 22,-70 459,-8 917,-38 1375,-64 501,-28 1003,-56 1504,-86 44,51 107,86 173,86 2,0 5,0 7,0 14,3 27,5 41,5 2,0 5,0 7,0 7,0 14,-1 20,-2 10,14 21,28 31,43 57,82 111,166 164,251 93,150 174,307 253,465 -1,12 1,24 6,36 7,17 18,27 33,36 10,6 23,10 35,10 17,0 33,-6 45,-18 2,-2 4,-4 5,-5 22,-22 26,-53 12,-80 -87,-172 -190,-335 -297,-495 -54,-80 -110,-159 -169,-236 -11,-14 -21,-29 -32,-43 24,-18 44,-41 57,-68 12,-24 18,-49 23,-75 7,-35 10,-72 0,-107 -8,-27 -25,-51 -42,-74 -6,-8 -12,-17 -18,-25 -9,-13 -18,-26 -30,-36 -31,-27 -76,-33 -117,-36 -5,0 -10,-1 -16,-1 -11,-2 -22,-3 -33,-3 -14,-1 -28,-2 -41,-2 -16,0 -33,1 -48,5 -66,15 -117,73 -133,138 -8,31 -8,64 -3,95 -476,30 -951,62 -1427,93 -460,30 -922,56 -1380,104 -1,-7 -3,-15 -5,-22 -8,-27 -25,-51 -42,-74 -6,-8 -12,-17 -18,-25 -9,-13 -18,-26 -30,-36 -31,-27 -76,-33 -117,-36 -5,0 -10,-1 -16,-1 -11,-2 -22,-3 -33,-3 -14,-1 -28,-2 -41,-2 -16,0 -33,1 -48,5 -14,3 -28,9 -41,16 -48,-63 -94,-127 -140,-191 881,-442 2017,-420 2988,-426 29,0 57,0 86,0 1504,0 2999,243 4469,546 569,117 1142,245 1665,523 147,78 290,170 425,274 -18,64 -36,127 -54,191 -71,261 -140,523 -205,786 -66,263 -129,526 -191,790 -38,163 -77,327 -109,493 -12,-3 -25,-5 -38,-5 -8,0 -17,1 -25,3 -23,5 -45,16 -65,27 -8,4 -15,9 -22,13 -4,2 -7,4 -11,6 -29,16 -59,35 -72,65 -5,11 -8,24 -10,36 -1,6 -2,12 -3,18 -166,62 -335,115 -502,171 0,0 0,-1 0,-1 -28,4 -53,7 -79,7 -37,0 -73,-6 -112,-21 -16,-6 -34,-17 -53,-26 -30,-161 -58,-323 -83,-484 20,-14 38,-32 51,-53 14,-22 23,-47 31,-72 10,-34 18,-71 11,-106 -5,-28 -20,-53 -34,-78 -5,-9 -10,-18 -15,-27 -8,-14 -16,-28 -26,-39 -28,-30 -72,-41 -113,-49 -5,-1 -10,-2 -15,-3 -11,-3 -22,-5 -32,-7 -22,-4 -45,-8 -68,-8 -7,0 -14,0 -22,1 -67,8 -124,60 -147,123 -1,3 -2,6 -3,10 -83,3 -167,15 -250,21 -118,9 -236,19 -354,27 -244,18 -488,32 -732,53 -39,3 -44,66 -3,71 237,25 480,34 718,34 2,0 4,0 6,0 119,0 237,-1 356,-7 90,-4 183,-4 274,-16 0,1 1,2 1,3 36,77 109,141 194,147 15,5 31,8 48,10 4,0 8,0 12,0 4,0 8,0 12,0 16,152 37,303 60,454 -5,6 -8,13 -11,21 0,0 0,0 -1,0 -17,0 -34,1 -50,6 -25,7 -48,24 -55,48 -5,17 -2,35 2,53 6,26 12,52 19,78 -139,-30 -279,-58 -419,-82 -7,-1 -14,-2 -21,-2 -6,0 -12,1 -17,3 -10,4 -17,12 -24,21 -54,64 -102,133 -145,206 -6,-3 -10,-5 -11,-5 -1,-1 -2,-1 -4,-1l-2 0c-6,2 -18,22 -21,31 -1,4 -3,10 -4,18 -2,9 -5,21 -7,31 -1,2 -2,4 -4,4l-1 0c-1,0 -1,0 -2,0 -1,0 -2,0 -3,-1 -20,-9 -34,-15 -43,-17 -2,-1 -4,-2 -5,-5 -11,-36 -19,-61 -24,-69 -1,-2 -4,-4 -6,-4 -1,0 -1,0 -2,0 0,0 -40,12 -78,24 -10,3 -19,7 -27,9 -15,5 -24,13 -27,22 -6,15 3,32 13,52l0 0 2 4c1,3 1,6 -1,8 -7,6 -13,15 -20,25 -3,4 -6,8 -8,11 -1,1 -2,2 -3,2 -1,0 -1,0 -2,0 -1,0 -3,0 -4,-1 -34,-24 -56,-34 -63,-34 0,0 0,0 0,0l-2 0c-2,1 -3,2 -4,3l-4 8 -3 5c-15,29 -51,98 -56,109 -2,3 -1,7 3,9 0,0 31,19 59,32 3,1 4,4 4,7 -2,12 -2,28 -1,43l0 3c0,2 -1,4 -3,6 -7,6 -22,16 -43,23 -2,1 -5,2 -8,2 -3,1 -5,5 -4,8 0,1 27,117 31,131 1,3 4,5 7,5 0,0 1,0 1,0 4,-1 15,-4 28,-8 7,-2 22,-7 36,-13l0 0c1,0 1,0 2,0 2,0 5,1 6,3 6,10 16,24 27,33 3,2 4,6 2,9 -13,23 -22,42 -28,56 -1,2 0,5 1,7 14,16 107,59 131,67 1,0 1,0 2,0 1,0 2,0 3,0l1 0c2,-1 3,-2 4,-4 1,-2 2,-5 6,-12 6,-13 15,-32 21,-47 1,-2 2,-4 4,-4l3 0c4,0 8,1 11,1 9,1 19,3 29,3 2,0 3,0 5,0 0,0 0,0 0,0 3,0 6,2 7,5 2,6 5,15 7,23 4,13 8,28 13,41 1,3 4,5 7,5 0,0 1,0 1,0 11,-2 47,-12 79,-23 27,-9 45,-16 54,-22 3,-1 4,-4 3,-7 -1,-4 -10,-36 -21,-63 -1,-2 0,-5 1,-7 4,-4 9,-11 16,-20l0 0c5,-6 10,-13 15,-19l3 -2c1,0 1,0 2,0 1,0 3,0 4,1 3,2 7,5 11,8 13,10 30,23 49,32 1,0 2,1 3,1 1,0 2,0 2,0 1,-1 3,-1 4,-3 1,-1 2,-3 3,-5 1,5 1,9 2,14 121,-12 241,-39 355,-81 94,-35 156,-171 203,-308 8,9 19,16 32,16 1,0 1,0 2,0 10,0 19,-3 28,-6 2,-1 4,-1 6,-2 28,190 56,381 85,571 15,101 30,202 45,303 8,54 13,110 20,166 -22,21 -40,47 -50,76 -23,63 -15,135 14,195 36,77 109,141 194,147 15,5 31,8 48,10 4,0 8,0 12,0 44,0 88,-16 122,-44 29,20 59,41 88,61 112,79 222,162 334,242 224,159 452,313 680,466 372,250 750,493 1120,747 -26,1093 -128,2177 -375,3234 -88,378 -211,776 -490,1006 -147,121 -325,183 -499,239 -2053,663 -4188,828 -6331,828zm-2892 -4670c-57,195 -100,395 -144,593 -59,264 -115,529 -170,794 -55,265 -106,531 -155,797 -51,274 -88,552 -149,824 -17,77 39,120 95,120 46,0 92,-29 98,-94 25,-269 79,-538 123,-804 44,-268 91,-535 139,-802 48,-267 98,-533 151,-800 39,-197 82,-395 114,-593 6,1 12,2 19,2 3,0 6,0 10,0 51,0 101,-27 128,-70 11,-18 18,-37 24,-57 2,-8 5,-16 7,-25 36,1 73,2 109,2 181,0 362,-15 537,-60 36,-9 27,-62 -9,-63 -58,-1 -117,-2 -175,-2 -38,0 -77,0 -115,0 -39,0 -77,0 -116,0 -86,0 -172,-1 -258,-4 -3,-5 -6,-10 -9,-16 -6,-11 -12,-22 -21,-31 -22,-24 -57,-32 -89,-38 -4,-1 -8,-1 -12,-2 -8,-2 -17,-4 -25,-5 -18,-3 -36,-6 -54,-6 -6,0 -11,0 -17,1 -53,6 -98,47 -116,97 -18,50 -12,106 11,154 16,34 41,65 71,86zm7776 1692c-27,82 -57,163 -88,243 -55,142 -122,280 -190,416 -9,5 -16,13 -22,23 -8,14 -9,26 -8,42 2,25 22,47 47,51 2,0 4,1 6,1 3,0 6,1 9,1 23,0 43,-13 53,-34 74,-150 133,-305 188,-463 27,-78 52,-156 74,-235 13,4 26,7 39,8 12,4 25,7 38,8 3,0 6,0 10,0 51,0 101,-27 128,-70 11,-18 18,-37 24,-57 6,-21 11,-42 11,-64 96,-1 191,-6 287,-10 212,-10 423,-25 634,-42 211,-17 422,-36 633,-57 110,-11 219,-22 329,-33 103,-10 219,-9 318,-39 63,-19 46,-103 -15,-109 -15,-1 -31,-2 -47,-2 -85,0 -174,18 -257,27 -101,10 -202,21 -304,31 -211,21 -422,41 -633,59 -203,17 -406,31 -608,45 -101,7 -203,12 -305,18 -26,1 -51,3 -77,5 -5,-9 -11,-18 -18,-25 -22,-24 -57,-32 -89,-38 -4,-1 -8,-2 -12,-2 -8,-2 -17,-4 -25,-5 -18,-3 -36,-6 -54,-6 -6,0 -11,0 -17,1 -53,6 -98,47 -116,97 -18,50 -12,106 11,154 11,23 26,45 44,63zm-4027 -1809c-17,196 -10,390 69,577 4,10 13,15 23,15 19,0 40,-17 32,-38 -57,-152 -69,-307 -62,-464 84,120 168,240 254,358 8,11 20,16 31,16 26,0 51,-25 32,-53 -100,-149 -204,-296 -308,-442 37,-372 146,-749 -12,-1102 -65,-146 -167,-270 -240,-412 -31,-60 -55,-123 -71,-187 158,-234 358,-448 489,-691 51,3 103,5 154,5 160,0 317,-15 457,-46 96,-13 188,-39 271,-78 3,1 6,1 8,2 -48,141 -116,285 -87,431 19,93 76,173 135,248 159,201 342,384 543,543 53,42 109,83 175,95 14,3 29,4 43,4 174,0 298,-202 353,-378 170,-538 188,-1110 206,-1673 5,-170 10,-342 -37,-505 -99,-343 -450,-587 -803,-587 -60,0 -119,7 -178,22 -55,14 -109,34 -153,69 -148,-76 -342,-113 -534,-113 -18,0 -36,0 -54,1 -14,-5 -30,-8 -46,-8 -5,0 -11,0 -16,1 -7,1 -10,6 -8,11 -131,11 -257,40 -362,85 -1,-1 -1,-2 -2,-3 -2,-3 -5,-4 -8,-4 -8,0 -16,9 -13,17 -90,42 -163,89 -223,142 -111,8 -216,22 -309,42 -590,129 -705,78 -787,631 -40,267 78,653 480,857 121,62 269,110 428,143 -83,121 -145,255 -171,401 -19,105 -23,214 -4,319 -98,140 -179,288 -219,455 -75,316 47,593 222,852 100,148 200,296 302,443zm1040 -4695c-1,47 0,95 1,142 -20,4 -37,22 -36,43 0,2 0,4 0,5 1,23 19,43 43,43 24,0 42,-20 43,-43 0,-2 0,-4 0,-5 1,-21 -15,-38 -34,-42 -1,-35 -2,-94 -1,-141 29,1 59,2 88,2 0,9 0,17 0,26 -17,3 -32,19 -32,38 0,2 0,3 0,5 1,21 17,38 38,38 22,0 37,-17 38,-38 0,-2 0,-3 0,-5 1,-18 -14,-34 -31,-38 0,-8 0,-16 0,-26 73,-1 147,-5 220,-14 0,37 1,73 2,110 -13,3 -25,15 -24,29l0 4c1,16 13,29 29,29 0,0 0,0 1,0 17,0 28,-14 29,-30l0 -4c0,-14 -11,-26 -24,-28 -1,-28 -3,-78 -2,-111 7,-1 14,-2 22,-3 8,-1 16,-2 22,-7 9,-7 11,-19 12,-30 1,-7 2,-14 3,-20 20,1 40,1 60,1 32,0 63,-1 95,-1 3,17 18,31 36,31 1,0 1,0 2,0 2,0 3,0 5,0 20,-1 38,-16 38,-38 0,-21 -17,-37 -38,-38 -2,0 -3,0 -5,0 0,0 -1,0 -1,0 -17,0 -32,14 -35,30 -23,0 -59,1 -93,1 -22,0 -44,0 -60,-1 5,-38 8,-75 11,-113 25,0 50,-1 75,-1 3,17 18,31 36,31 1,0 1,0 2,0 2,0 3,0 5,0 20,-1 38,-16 38,-38 0,-21 -17,-37 -38,-38 -2,0 -3,0 -5,0 0,0 -1,0 -1,0 -17,0 -32,14 -35,30 -19,0 -47,1 -74,1 4,-65 5,-130 3,-196 12,0 24,0 36,0 38,0 75,-1 113,-1 4,20 21,37 42,37 1,0 1,0 2,0 2,0 4,0 6,0 24,-1 45,-19 45,-45 0,-25 -20,-43 -45,-45 -2,0 -4,0 -6,0 -1,0 -1,0 -2,0 -20,0 -38,16 -42,36 -28,1 -70,1 -110,1 -14,0 -27,0 -40,0 0,-7 -1,-13 -1,-20 0,-5 -1,-11 -3,-16 -4,-7 -12,-11 -20,-15 -15,-6 -30,-11 -45,-15 0,-32 1,-67 1,-89 15,-3 29,-18 28,-34 0,-1 0,-3 0,-4 -1,-19 -15,-35 -35,-35 -20,0 -34,16 -35,35 0,1 0,3 0,4 -1,17 13,31 29,34 0,29 -1,57 -1,86 -44,-9 -90,-12 -135,-12 -21,0 -41,0 -62,1 0,0 -1,0 -1,0 0,-27 1,-53 1,-71 21,-5 38,-23 37,-45 0,-2 0,-4 0,-6 -1,-25 -20,-46 -46,-46 -26,0 -45,21 -46,46 0,2 0,4 0,6 -1,22 17,42 38,46 0,24 -1,48 -1,72 -34,1 -67,2 -101,2 -1,-49 1,-107 1,-142 21,-5 39,-24 38,-46 0,-2 0,-4 0,-6 -1,-26 -21,-47 -47,-47 -27,0 -46,21 -47,47 0,2 0,4 0,6 -1,23 17,42 39,47 -1,47 -1,95 -1,143 -9,0 -19,0 -28,1 -7,0 -14,0 -20,3 -13,7 -17,24 -18,39 -29,1 -59,2 -88,3 -3,-14 -15,-26 -30,-26 -1,0 -1,0 -2,0 -1,0 -3,0 -4,0 -17,1 -31,15 -31,33 0,18 15,31 33,31 1,0 3,0 4,0 0,0 0,0 1,0 15,0 27,-12 30,-26 22,-1 56,-2 87,-3 -2,30 -4,60 -6,90 -58,0 -116,3 -174,5 -5,-21 -23,-39 -45,-39 -1,0 -2,0 -3,0 -2,0 -4,0 -6,0 -26,2 -47,22 -47,49 1,27 23,46 49,47 2,0 4,0 6,0 0,0 1,0 1,0 22,0 41,-18 45,-39 41,-2 113,-5 167,-5 2,0 4,0 7,0 -2,40 -3,79 -3,119 -23,1 -45,2 -68,3 -4,-19 -22,-36 -42,-36 -1,0 -2,0 -3,0 -2,0 -4,0 -6,0 -24,2 -44,20 -43,46 1,25 21,43 46,43 2,0 4,0 6,0 0,0 1,0 1,0 21,0 38,-17 42,-37 18,-1 42,-2 67,-3 0,56 2,112 6,168 0,7 1,14 5,19 7,11 22,13 35,14 8,1 16,1 24,1zm-1028 4580c-85,-121 -170,-241 -253,-364 -88,-129 -175,-266 -216,-418 -42,-154 -36,-312 14,-463 37,-112 92,-216 156,-317 7,25 16,49 26,73 60,143 154,265 227,401 186,346 93,719 47,1088zm6831 -732c-331,-202 -658,-411 -987,-614 -235,-145 -470,-289 -708,-427 -120,-69 -241,-135 -360,-205 -34,-20 -67,-40 -101,-60 0,0 0,0 0,-1 10,-34 18,-71 11,-106 -5,-28 -20,-53 -34,-78 -5,-9 -10,-18 -15,-27 -8,-14 -16,-28 -26,-39 -28,-30 -72,-41 -113,-49 -5,-1 -10,-2 -15,-3 -11,-3 -22,-5 -32,-7 -7,-1 -14,-3 -21,-4 -8,-38 -16,-77 -23,-114 -18,-100 -35,-200 -53,-300 -37,-209 -73,-417 -110,-626 -1,-4 -1,-7 -2,-11 41,-15 79,-36 119,-55 6,-3 13,-6 18,-12 7,-8 10,-18 13,-28 12,-42 29,-83 51,-121 5,-9 10,-17 11,-27 1,-7 -1,-15 -3,-22 -6,-25 -13,-49 -20,-74 166,-26 328,-75 486,-133 4,7 9,15 14,21 12,17 25,33 41,46 27,22 62,33 96,33 19,0 39,-4 57,-11 12,-5 23,-11 34,-19 62,-26 101,-92 109,-159 5,-41 -1,-83 -19,-119 53,-182 97,-368 145,-551 68,-263 138,-525 210,-786 72,-261 146,-522 222,-783 10,-34 19,-67 29,-101 281,249 515,560 656,930 168,440 196,930 221,1409 56,1072 111,2154 100,3230zm-7109 -957c-11,-76 -11,-154 2,-232 26,-157 88,-299 174,-426 95,18 193,31 292,38 -129,218 -313,412 -467,621zm3498 -1398c-38,0 -78,-18 -102,-70 -22,-46 -2,-92 28,-115 15,-11 29,-19 43,-24 10,-3 19,-5 28,-5 42,0 68,35 87,68 13,23 25,60 15,90 -7,20 -22,35 -47,45 -4,2 -8,3 -12,4 -12,4 -26,7 -40,7zm300 -21c-15,-9 -34,-22 -48,-30 -3,-2 -4,-6 -2,-10 6,-11 15,-27 16,-44 0,-3 2,-5 5,-6 1,0 2,-1 3,-1 5,-2 10,-3 16,-5l1 0c7,-2 14,-4 21,-6 10,-3 18,-7 22,-10 2,-2 3,-5 3,-7 -11,-43 -37,-118 -49,-136 -1,-2 -4,-3 -6,-3 -1,0 -1,0 -2,0 0,0 -12,3 -27,8 -12,4 -23,8 -31,12l-1 0c-1,0 -1,0 -2,0 -3,0 -5,-1 -6,-4 -7,-13 -15,-20 -22,-26 -2,-2 -4,-3 -5,-4 -2,-2 -3,-6 -1,-9 18,-31 27,-57 24,-66l-2 -3c-3,-3 -11,-7 -20,-12 22,-63 57,-130 121,-148 14,-4 28,-5 42,-5 14,0 29,1 43,3 118,12 235,28 351,48 5,16 10,31 15,47 -108,195 -246,340 -458,417z"/>
  <path class="fil2" d="M13089 2905c-47,-42 -96,-82 -146,-121 59,-205 121,-409 169,-616 13,-55 52,-78 91,-78 62,0 125,56 94,138 -82,220 -144,450 -208,677z"/>
  <path class="fil3" d="M12483 5126c-5,-11 -12,-21 -19,-30 -20,-25 -48,-44 -79,-52 31,-165 71,-330 109,-493 61,-264 125,-527 191,-790 66,-263 135,-524 205,-786 17,-64 35,-127 54,-191 50,39 98,79 146,121 -10,34 -19,67 -29,101 -76,260 -150,521 -222,783 -72,261 -142,523 -210,786 -47,183 -92,369 -145,551z"/>
  <path class="fil3" d="M11666 5466c-9,-30 -19,-60 -30,-89 168,-57 337,-109 502,-171 0,2 -1,4 -1,6 -4,22 -9,45 -6,67 3,20 11,38 21,55 -158,58 -320,106 -486,133z"/>
  <path class="fil4" d="M12304 5434c-35,0 -69,-12 -96,-33 -16,-13 -29,-29 -41,-46 -5,-7 -10,-14 -14,-21 12,-5 24,-9 37,-14 3,5 7,11 11,16 12,17 25,33 41,46 27,22 62,33 96,33 19,0 39,-4 57,-11 0,0 0,0 0,0 -10,8 -21,14 -34,19 -18,7 -37,11 -57,11zm-165 -229c1,-6 2,-12 3,-18 2,-12 5,-25 10,-36 13,-30 43,-49 72,-65 4,-2 7,-4 11,-6 -21,13 -40,29 -50,51 -5,11 -8,24 -10,36 -2,8 -3,16 -5,24 0,0 0,1 0,1 -11,4 -21,8 -32,12z"/>
  <path class="fil5" d="M12152 5333c-10,-17 -18,-36 -21,-55 -3,-22 1,-45 6,-67 0,-2 1,-4 1,-6 11,-4 21,-8 32,-12 -4,22 -8,44 -6,66 3,22 12,42 24,61 -12,5 -24,9 -37,14z"/>
  <path class="fil6" d="M12337 5415c-35,0 -69,-12 -96,-33 -16,-13 -29,-29 -41,-46 -4,-5 -7,-11 -11,-16 -12,-19 -21,-39 -24,-61 -3,-22 1,-44 6,-66 0,0 0,-1 0,-1 2,-8 3,-16 5,-24 2,-12 5,-25 10,-36 10,-22 29,-38 50,-51 7,-5 15,-9 22,-13 21,-12 42,-23 65,-27 8,-2 17,-3 25,-3 13,0 25,2 38,5 31,9 59,27 79,52 8,9 14,20 19,30 18,36 24,79 19,119 -8,67 -46,133 -109,159 0,0 0,0 0,0 -18,7 -37,11 -57,11zm13 -256c-21,0 -43,11 -56,28 -5,7 -10,15 -10,23 0,6 2,11 4,17 6,16 12,33 26,42 8,6 17,8 27,8 11,0 23,-3 32,-9 18,-11 30,-29 39,-48 0,-27 -21,-52 -47,-58 -5,-1 -10,-2 -15,-2z"/>
  <path class="fil7" d="M12341 5277c-10,0 -19,-2 -27,-8 -14,-10 -20,-27 -26,-42 -2,-5 -4,-11 -4,-17 0,-9 4,-17 10,-23 13,-17 35,-28 56,-28 5,0 10,1 15,2 26,7 47,32 47,58 -9,19 -21,37 -39,48 -10,6 -21,9 -32,9z"/>
  <path class="fil8" d="M10724 6241c-1,-5 -1,-9 -2,-14 16,-24 49,-83 56,-110 1,-3 -1,-6 -3,-8 -3,-2 -8,-5 -16,-10l-1 -1 -1 -1c0,0 -1,0 -1,-1 212,-78 350,-223 458,-417 14,44 29,88 46,131 5,14 13,30 23,41 -47,137 -109,273 -203,308 -114,42 -234,69 -355,81zm-82 -506c-14,-8 -31,-16 -35,-18 -4,-2 -13,-6 -24,-11 -14,-6 -26,-12 -34,-15 42,-73 91,-142 145,-206 7,-8 14,-17 24,-21 5,-2 11,-3 17,-3 7,0 14,1 21,2 140,24 280,51 419,82 8,29 16,58 25,87 -116,-20 -233,-37 -351,-48 -14,-1 -29,-3 -43,-3 -14,0 -28,1 -42,5 -64,18 -99,85 -121,148z"/>
  <path class="fil8" d="M11316 5869c-1,0 -1,0 -2,0 -13,0 -24,-7 -32,-16 -10,-11 -17,-27 -23,-41 -16,-43 -32,-87 -46,-131 -5,-16 -10,-31 -15,-47 -9,-29 -17,-58 -25,-87 -7,-26 -13,-52 -19,-78 -4,-17 -8,-35 -2,-53 7,-23 31,-40 55,-48 16,-5 33,-6 50,-6 0,0 0,0 1,0 -21,65 20,189 58,286 8,52 16,103 23,154 3,20 6,39 9,59 -2,1 -4,1 -6,2 -9,3 -18,6 -28,6z"/>
  <path class="fil9" d="M11478 5805c-28,-157 -57,-313 -86,-470 19,9 37,19 53,26 39,15 75,21 112,21 25,0 51,-3 79,-7 0,0 0,1 0,1 11,29 21,59 30,89 7,24 14,49 20,74 2,7 3,15 3,22 -1,10 -6,19 -11,27 -22,38 -39,79 -51,121 -3,10 -5,21 -13,28 -5,5 -11,8 -18,12 -39,20 -78,40 -119,55zm-160 -158c-38,-97 -79,-221 -58,-286 3,-8 6,-15 11,-21 15,102 32,205 47,307z"/>
  <path class="fil10" d="M10492 6357c-3,0 -6,-2 -7,-5 -5,-13 -9,-28 -13,-41 -2,-7 -5,-16 -7,-23 -1,-3 -4,-5 -7,-5 0,0 0,0 0,0 -2,0 -3,0 -5,0 -10,0 -20,-1 -29,-3 -4,0 -8,-1 -11,-1l-3 0c-2,1 -4,2 -4,4 -5,15 -15,34 -21,47 -4,7 -5,11 -6,12 -1,2 -2,3 -4,4l-1 0c-1,0 -2,0 -3,0 -1,0 -1,0 -2,0 -23,-8 -117,-51 -131,-67 -2,-2 -2,-5 -1,-7 6,-15 15,-34 28,-56 2,-3 1,-7 -2,-9 -11,-9 -21,-23 -27,-33 -1,-2 -4,-3 -6,-3 -1,0 -1,0 -2,0l0 0c-14,6 -28,11 -36,13 -12,4 -24,8 -28,8 0,0 -1,0 -1,0 -3,0 -6,-2 -7,-5 -4,-15 -31,-130 -31,-131 -1,-4 1,-7 4,-8 3,-1 6,-2 8,-2 20,-7 35,-17 43,-23 2,-1 3,-3 3,-6l0 -3c0,-15 -1,-31 1,-43 0,-3 -1,-6 -4,-7 -27,-13 -58,-32 -59,-32 -3,-2 -4,-6 -3,-9 6,-11 41,-79 56,-109l3 -5 4 -8c1,-2 2,-3 4,-3l2 0c0,0 0,0 0,0 7,0 29,10 63,34 1,1 3,1 4,1 1,0 2,0 2,0 1,0 2,-1 3,-2 3,-4 6,-7 8,-11 7,-10 14,-19 20,-25 2,-2 3,-6 1,-8l-2 -4 0 0c-10,-20 -19,-37 -13,-52 4,-9 13,-17 27,-22 8,-3 17,-6 27,-9 38,-13 78,-24 78,-24 1,0 1,0 2,0 3,0 5,1 6,4 4,8 13,33 24,69 1,2 3,4 5,5 9,2 23,8 43,17 1,0 2,1 3,1 1,0 2,0 2,0l1 0c2,-1 3,-2 4,-4 3,-9 5,-22 7,-31 2,-8 3,-15 4,-18 3,-9 15,-29 21,-31l2 0c1,0 2,0 4,1 1,1 5,2 11,5 8,4 19,9 34,15 11,5 20,9 24,11 5,2 21,11 35,18 9,5 17,10 20,12l2 3c3,9 -7,35 -24,66 -2,3 -1,6 1,9 1,1 3,3 5,4 7,6 15,13 22,26 1,2 4,4 6,4 1,0 1,0 2,0l1 0c8,-4 19,-8 31,-12 14,-5 26,-8 27,-8 1,0 1,0 2,0 2,0 5,1 6,3 11,18 38,93 49,136 1,3 0,6 -3,7 -5,4 -12,7 -22,10 -7,2 -14,4 -21,6l-1 0c-6,2 -11,3 -16,5 -1,0 -2,1 -3,1 -3,1 -4,3 -5,6 -1,17 -9,34 -16,44 -2,3 -1,8 2,10 13,8 33,21 48,30 0,0 1,0 1,1l1 1 1 1c7,5 13,9 16,10 3,2 4,5 3,8 -6,27 -40,86 -56,110 -1,2 -2,3 -3,5 -1,1 -2,2 -4,3 -1,0 -2,0 -2,0 -1,0 -2,0 -3,-1 -19,-9 -37,-22 -49,-32 -3,-2 -7,-5 -11,-8 -1,-1 -3,-1 -4,-1 -1,0 -2,0 -2,0l-3 2c-5,6 -10,12 -15,19l0 0c-7,9 -12,16 -16,20 -2,2 -2,5 -1,7 10,27 20,59 21,63 0,3 -1,6 -3,7 -9,5 -28,13 -54,22 -32,11 -68,21 -79,23 0,0 -1,0 -1,0zm-40 -453c-9,0 -18,2 -28,5 -14,5 -28,12 -43,24 -30,22 -49,69 -28,115 24,52 64,70 102,70 14,0 27,-2 40,-7 4,-1 8,-3 12,-4 24,-10 40,-25 47,-45 10,-30 -2,-67 -15,-90 -19,-33 -45,-68 -87,-68z"/>
  <path class="fil11" d="M6700 8026c146,-616 854,-968 884,-1626 1,-11 17,-11 17,0 -7,629 -634,999 -821,1561 -50,151 -55,310 -14,463 41,152 129,289 216,418 203,299 418,590 620,889 27,40 -36,75 -63,37 -211,-293 -417,-591 -618,-891 -174,-259 -296,-536 -222,-852z"/>
  <path class="fil12" d="M6923 7252c58,-321 284,-580 532,-775 12,-9 29,7 17,17 -248,207 -459,465 -512,791 -28,171 5,339 83,492 73,142 174,266 240,412 242,540 -141,1137 65,1687 12,32 -41,54 -55,23 -245,-576 200,-1213 -104,-1780 -73,-136 -167,-258 -227,-401 -62,-147 -66,-310 -38,-465z"/>
  <path class="fil13" d="M11029 4545c-116,-10 -236,11 -352,19 -118,9 -236,19 -354,27 -244,18 -488,32 -732,53 -39,3 -44,66 -3,71 239,25 484,34 724,34 119,0 237,-1 356,-7 124,-6 255,-4 376,-34 80,-20 66,-155 -15,-162z"/>
  <path class="fil14" d="M7699 8458c-137,-20 -274,-38 -394,-113 -149,-92 -173,-260 -127,-418 41,-141 139,-268 214,-392 79,-129 176,-259 233,-400 6,-14 -15,-24 -24,-14 -119,128 -208,294 -304,440 -90,136 -197,281 -217,448 -44,367 294,493 595,534 56,8 81,-78 24,-86z"/>
  <path class="fil14" d="M7455 8925c-185,10 -441,-122 -547,-276 -170,-248 166,-453 329,-576 281,-214 477,-563 504,-915 1,-16 -24,-19 -27,-4 -44,223 -126,429 -262,613 -76,103 -172,191 -274,268 -97,73 -199,135 -280,227 -322,370 209,744 558,753 58,1 58,-93 0,-90z"/>
  <path class="fil15" d="M8708 6467c160,-219 239,-472 225,-722 -7,-127 -37,-254 -91,-374 -38,-84 -88,-166 -163,-234 -258,-232 -826,-258 -1164,-105 -405,183 -476,484 -525,786 -48,294 79,686 365,889 269,191 716,216 1019,57 142,-74 250,-182 334,-296z"/>
  <path class="fil16" d="M7600 6209c-31,0 -57,26 -57,57 0,31 26,57 57,57 31,0 57,-26 57,-57 0,-31 -26,-57 -57,-57zm0 150c-50,0 -93,-43 -93,-93 0,-50 43,-93 93,-93 50,0 93,43 93,93 0,50 -43,93 -93,93z"/>
  <path class="fil16" d="M8173 6506c-30,0 -54,25 -54,54 0,30 25,54 54,54 30,0 54,-25 54,-54 0,-30 -25,-54 -54,-54zm0 143c-48,0 -89,-41 -89,-89 0,-48 41,-89 89,-89 48,0 89,41 89,89 0,48 -41,89 -89,89z"/>
  <path class="fil16" d="M7797 5844c-31,0 -57,26 -57,57 0,31 26,57 57,57 31,0 57,-26 57,-57 0,-31 -26,-57 -57,-57zm0 150c-50,0 -93,-43 -93,-93 0,-50 43,-93 93,-93 50,0 93,43 93,93 0,50 -43,93 -93,93z"/>
  <path class="fil16" d="M8320 6238c-31,0 -57,26 -57,57 0,31 26,57 57,57 31,0 57,-26 57,-57 0,-31 -26,-57 -57,-57zm0 150c-50,0 -93,-43 -93,-93 0,-50 43,-93 93,-93 50,0 93,43 93,93 0,50 -43,93 -93,93z"/>
  <path class="fil16" d="M8262 5937c-31,0 -57,26 -57,57 0,31 26,57 57,57 31,0 57,-26 57,-57 0,-31 -26,-57 -57,-57zm0 150c-50,0 -93,-43 -93,-93 0,-50 43,-93 93,-93 50,0 93,43 93,93 0,50 -43,93 -93,93z"/>
  <path class="fil16" d="M8378 5307c-31,0 -57,26 -57,57 0,31 26,57 57,57 31,0 57,-26 57,-57 0,-31 -26,-57 -57,-57zm0 150c-50,0 -93,-43 -93,-93 0,-50 43,-93 93,-93 50,0 93,43 93,93 0,50 -43,93 -93,93z"/>
  <path class="fil16" d="M8636 5815c-43,0 -80,-37 -80,-80 0,-43 36,-80 80,-80 43,0 80,37 80,80 0,43 -36,80 -80,80z"/>
  <path class="fil16" d="M8734 6385c-43,0 -80,-36 -80,-80 0,-43 36,-80 80,-80 43,0 80,37 80,80 0,43 -37,80 -80,80z"/>
  <path class="fil16" d="M8011 6409c-43,0 -80,-37 -80,-80 0,-43 36,-80 80,-80 43,0 80,36 80,80 0,43 -36,80 -80,80z"/>
  <path class="fil16" d="M7304 5650c-31,0 -57,26 -57,57 0,31 26,57 57,57 31,0 57,-26 57,-57 0,-31 -26,-57 -57,-57zm0 150c-50,0 -93,-43 -93,-93 0,-50 43,-93 93,-93 50,0 93,43 93,93 0,50 -43,93 -93,93z"/>
  <path class="fil16" d="M8131 6503c-43,-54 -85,-110 -122,-168 -6,-9 -24,-7 -22,6 4,33 29,64 46,92 21,34 45,68 70,99 16,20 44,-8 29,-29z"/>
  <path class="fil16" d="M7263 5643c-11,-40 -44,-68 -71,-98 -37,-42 -66,-92 -81,-146 -8,-26 -43,-15 -39,11 15,101 99,170 155,249 13,18 43,8 37,-15z"/>
  <path class="fil16" d="M7486 6254c-154,-8 -308,-23 -461,-38 -6,-1 -6,7 -3,10 55,41 126,43 192,52 90,12 181,18 272,21 29,1 29,-44 0,-46z"/>
  <path class="fil16" d="M7526 5031c-3,0 -6,0 -9,0 -6,0 -6,9 0,9 3,0 6,0 9,0 6,0 6,-9 0,-9z"/>
  <path class="fil16" d="M7771 5586c-9,-77 -9,-162 -28,-237 -30,-118 -140,-234 -216,-327 -9,-11 -27,3 -20,15 63,106 185,220 202,345 19,146 33,292 49,439 3,25 43,26 40,0 -9,-79 -18,-157 -27,-236z"/>
  <path class="fil16" d="M7717 6627c-67,10 -135,20 -202,30 -86,13 -204,47 -256,-50 -4,-7 -17,-4 -16,4 7,62 56,103 120,105 121,3 246,-28 365,-46 28,-4 16,-47 -12,-43z"/>
  <path class="fil16" d="M7734 6705c1,-9 -4,-20 -16,-22 -11,-1 2,-40 4,-46 5,-14 15,-22 28,-25 32,-8 55,22 55,51 0,37 -41,55 -72,42zm-3 -122c-46,15 -77,110 -27,131 2,2 4,5 7,7 45,39 118,5 124,-51 7,-59 -47,-105 -104,-87z"/>
  <path class="fil16" d="M8612 5734c-55,-11 -111,-13 -166,-17 -21,-1 -42,-1 -64,-1 -46,1 -93,1 -135,-12 -9,-3 -19,5 -19,14 3,60 3,119 5,179 1,12 19,12 19,0 2,-53 3,-106 5,-158 43,12 90,9 135,11 72,3 144,14 216,16 18,1 23,-29 4,-33z"/>
  <path class="fil16" d="M8083 5452c0,-124 8,-253 -12,-375 -14,-84 -83,-158 -172,-148 -11,1 -12,17 0,18 174,12 146,235 146,356 0,18 10,105 2,146 -26,3 -51,19 -67,52 -46,93 108,151 146,80 3,-3 7,-6 10,-10 40,-48 -1,-105 -53,-119z"/>
  <path class="fil16" d="M8676 6307c-45,-6 -92,-6 -137,-7 -22,-1 -44,-1 -66,-2 -8,0 -17,1 -27,1 -20,2 -42,3 -58,-4 -7,-3 -13,5 -8,10 22,24 62,22 93,26 64,9 134,15 199,10 19,-2 26,-32 5,-35z"/>
  <path class="fil16" d="M8846 5321c-6,-25 -43,-14 -38,10 1,8 2,17 2,25 -116,-3 -233,-4 -349,-2 -14,0 -14,20 0,21 124,10 247,16 371,21 11,0 20,-9 20,-20 0,-28 0,-29 -6,-56z"/>
  <path class="fil16" d="M8532 8108c-192,-75 -402,-136 -613,-156 -93,-9 -110,117 -22,135 143,29 286,54 427,90 64,17 126,37 188,57 62,21 161,38 196,92 10,15 40,16 50,0 66,-115 -129,-182 -225,-219z"/>
  <path class="fil16" d="M8730 7967c-227,-189 -564,-273 -874,-302 -107,-10 -108,133 0,141 301,24 563,118 841,208 33,11 56,-29 33,-47z"/>
  <path class="fil16" d="M8547 7625c-165,-144 -454,-203 -681,-230 -116,-13 -137,124 -21,132 120,8 237,27 353,52 109,24 211,67 321,88 29,5 51,-24 29,-42z"/>
  <path class="fil16" d="M8410 7316c-169,-99 -383,-142 -587,-133 -99,4 -101,131 0,130 193,-1 373,20 561,55 39,7 58,-34 26,-52z"/>
  <path class="fil17" d="M7076 9242c29,-97 63,-193 102,-286 113,-274 353,-688 746,-715 413,-28 871,322 1168,534 93,66 187,134 252,221 76,102 105,222 128,339 263,1302 66,2617 -131,3908 -361,-16 -723,-31 -1084,-47 -42,-2 -89,-5 -121,-30 -42,-33 -40,-89 -36,-136 29,-387 -84,-787 -318,-1131 -127,-186 -288,-354 -419,-538 -456,-638 -494,-1427 -286,-2119z"/>
  <path class="fil17" d="M8400 7459c159,201 342,384 543,543 53,42 109,83 175,95 196,36 336,-184 396,-374 170,-538 188,-1110 206,-1673 5,-170 10,-342 -37,-505 -116,-401 -576,-666 -981,-565 -56,14 -111,34 -155,72 -103,87 -117,239 -117,374 0,451 69,916 -74,1344 -48,145 -121,293 -91,443 19,93 76,173 135,248z"/>
  <path class="fil17" d="M9823 7006c-102,0 -204,-1 -306,-1 0,-222 18,-445 55,-664 4,-21 7,-42 19,-60 11,-18 32,-31 52,-28 90,225 170,455 239,688 4,13 8,28 2,40 -9,21 -38,24 -61,24z"/>
  <path class="fil18" d="M8351 6780c-3,-1 -6,-1 -8,-2 4,-2 7,-3 11,-5 -1,2 -2,5 -2,7z"/>
  <path class="fil19" d="M8343 6779c-5,-1 -10,-2 -15,-3 4,-2 8,-3 11,-5 5,0 10,-1 15,-1 0,1 -1,3 -1,4 -4,2 -7,3 -11,5z"/>
  <path class="fil20" d="M8397 6784c-6,0 -12,0 -18,-1 -10,-1 -19,-2 -28,-4 1,-2 2,-5 2,-7 0,-1 1,-3 1,-4 78,-8 153,-51 199,-115 24,-16 48,-33 70,-50 16,-12 31,-24 45,-36 -10,31 -22,61 -39,88 -49,78 -140,128 -232,128z"/>
  <path class="fil17" d="M8561 6643c20,-32 33,-68 44,-104 15,-50 26,-102 16,-153 -8,-40 -28,-77 -48,-112 -7,-13 -14,-26 -22,-38 -11,-20 -22,-40 -38,-56 -40,-44 -102,-59 -161,-70 -42,-8 -85,-15 -128,-10 -96,12 -178,86 -211,177 -33,91 -21,194 19,282 51,111 156,204 278,212 98,7 198,-44 250,-127z"/>
  <path class="fil21" d="M6093 9208l0 0c-60,-1 -111,-2 -155,-3 -9,0 -15,-6 -15,-13 0,-7 8,-13 16,-12 44,1 95,2 155,3 9,0 15,6 15,13 0,7 -7,13 -16,13zm310 4l0 0 -155 -2c-9,0 -15,-6 -15,-13 0,-7 7,-13 16,-13l0 0 155 2c9,0 15,6 15,13 0,7 -7,13 -16,13zm310 4l0 0c-51,-1 -103,-2 -155,-3 -9,0 -15,-6 -15,-13 0,-7 8,-13 16,-13 52,1 104,1 155,2 9,0 15,6 15,13 0,7 -7,13 -16,13zm310 10l-1 0c-47,-2 -99,-4 -155,-6 -9,0 -15,-6 -15,-13 0,-7 7,-13 16,-12 56,2 109,4 155,6 9,0 15,7 15,14 0,7 -7,12 -15,12z"/>
  <path class="fil21" d="M5963 9416l0 0 -155 -3c-9,0 -15,-6 -15,-13 0,-7 7,-13 16,-13l155 3c9,0 15,6 15,13 0,7 -7,13 -16,13zm310 6l0 0c-52,-1 -104,-2 -155,-3 -9,0 -15,-6 -15,-13 0,-7 8,-13 16,-13 51,1 103,2 155,3 9,0 15,6 15,13 0,7 -7,13 -16,13zm310 5l0 0c-51,-1 -103,-1 -155,-2 -9,0 -15,-6 -15,-13 0,-7 7,-13 16,-13l0 0c52,1 104,1 155,2 9,0 15,6 15,13 0,7 -7,13 -16,13zm310 2l0 0c-50,0 -102,0 -155,-1 -9,0 -15,-6 -15,-13 0,-7 7,-13 16,-13l0 0c54,0 105,1 155,1 9,0 16,6 15,13 0,7 -7,13 -16,13z"/>
  <path class="fil21" d="M5963 9671l0 0c-53,-1 -105,-2 -155,-3 -9,0 -15,-6 -15,-13 0,-7 7,-13 16,-13l0 0c50,1 102,2 155,3 9,0 15,6 15,13 0,7 -7,13 -16,13zm310 6l0 0c-51,-1 -101,-2 -151,-3l-4 0c-9,0 -15,-6 -15,-13 0,-7 8,-12 16,-13l4 0c50,1 100,2 151,3 9,0 15,6 15,13 0,7 -7,13 -16,13zm310 5l0 0c-51,-1 -103,-1 -155,-2 -9,0 -15,-6 -15,-13 0,-7 7,-13 16,-13 52,1 104,2 155,2 9,0 15,6 15,13 0,7 -7,13 -16,13zm287 2c-43,0 -87,0 -132,0 -9,0 -15,-6 -15,-13 0,-7 7,-13 16,-13l0 0c45,0 89,0 132,0 9,0 16,6 16,13 0,7 -7,13 -16,13z"/>
  <path class="fil17" d="M10343 12906c5,7 10,13 15,19 37,41 93,58 135,24 46,-37 61,-117 70,-187 112,-820 184,-1640 172,-2468 -1,-75 -3,-152 -34,-220 -30,-67 -83,-119 -136,-170 -111,-108 -308,-136 -432,-21 -93,86 -67,232 -59,345 20,283 14,568 16,852 4,566 19,1141 190,1685 16,51 34,102 61,142z"/>
  <path class="fil17" d="M13075 11851c-88,-86 -337,15 -438,52 -179,66 -366,110 -548,168 -425,136 -830,311 -1234,498 -109,50 -356,166 -326,325 6,34 30,62 54,87 208,215 455,130 698,46 264,-91 499,-240 745,-369 280,-146 560,-291 840,-437 92,-48 212,-109 235,-220 15,-75 3,-122 -25,-149z"/>
  <path class="fil17" d="M13369 11987c1,-3 2,-7 3,-10 3,-25 -26,-64 -36,-86 -14,-31 -29,-61 -43,-92 -32,-68 -59,-118 -144,-79 -21,10 -39,28 -42,50 -2,14 2,28 7,41 16,50 36,100 59,147 16,34 40,116 85,102 30,-10 97,-39 112,-73z"/>
  <path class="fil17" d="M13561 11496c-83,45 -166,118 -225,143 -19,8 -42,20 -43,41 0,9 4,17 8,25 39,77 78,154 116,230 4,9 9,18 18,23 10,6 23,3 35,0 136,-34 265,-134 331,-259 37,-70 19,-157 -39,-209 -58,-51 -130,-34 -201,4z"/>
  <path class="fil17" d="M13279 11402c-5,26 -7,54 -10,81 -4,35 -18,67 -7,103 12,41 71,56 99,22 45,-55 29,-160 1,-221 -18,-38 -76,-21 -83,15z"/>
  <path class="fil22" d="M7615 6903c-51,0 -103,-2 -154,-5 19,-35 36,-70 52,-106 123,50 263,75 403,75 52,0 104,-4 156,-11 -140,31 -296,46 -457,46zm-190 -7c-99,-7 -197,-20 -292,-38 42,-63 90,-123 142,-179 22,23 53,36 88,37 2,0 4,0 6,0 36,24 76,46 117,64 -19,39 -39,78 -61,115zm-331 -45c-160,-33 -307,-81 -428,-143 -401,-205 -519,-590 -480,-857 82,-553 197,-502 787,-631 93,-20 198,-35 309,-42 -77,67 -131,141 -172,220 -3,-9 -10,-14 -18,-14 -12,0 -24,10 -21,25 2,16 7,31 12,46 -49,115 -73,239 -93,362 -20,123 -10,264 31,401 -2,2 -1,6 2,8 0,0 1,1 1,1 43,140 117,276 221,383 0,0 0,0 0,0 2,16 6,30 13,42 -60,61 -115,127 -163,197z"/>
  <path class="fil23" d="M7461 6898c-12,-1 -24,-2 -36,-2 22,-38 43,-76 61,-115 9,4 18,8 27,12 -16,36 -33,72 -52,106z"/>
  <path class="fil24" d="M7133 6858c-13,-2 -26,-5 -39,-8 48,-70 103,-136 163,-197 5,9 11,18 18,26 -52,56 -100,116 -142,179z"/>
  <path class="fil25" d="M7916 6867c-140,0 -280,-25 -403,-75 -9,-4 -18,-8 -27,-12 -42,-19 -81,-40 -117,-64 4,0 8,0 12,0 99,0 200,-22 298,-38 2,16 10,30 25,36 2,2 4,5 7,7 13,12 29,17 45,17 37,0 75,-29 80,-68 6,-50 -32,-91 -78,-91 -8,0 -17,1 -25,4 -19,6 -36,26 -45,49 -57,8 -114,17 -171,25 -40,6 -86,17 -130,17 -51,0 -98,-14 -126,-67 -1,-3 -4,-4 -7,-4 -4,0 -9,3 -9,8 -104,-108 -178,-243 -221,-383 54,40 125,42 191,51 90,12 181,18 272,21 0,0 1,0 1,0 13,0 19,-9 21,-19 7,44 46,78 92,78 50,0 93,-43 93,-93 0,-50 -43,-93 -93,-93 -50,0 -93,43 -93,93 0,1 0,2 0,3 -3,-8 -10,-15 -21,-15 -154,-8 -308,-23 -461,-38 0,0 0,0 -1,0 -2,0 -3,1 -4,2 -40,-137 -51,-277 -31,-401 20,-124 44,-247 93,-362 29,77 95,137 143,203 -9,14 -15,32 -15,50 0,50 43,93 93,93 50,0 93,-43 93,-93 0,-50 -43,-93 -93,-93 -17,0 -33,5 -47,13 -14,-32 -42,-56 -66,-83 -37,-42 -66,-92 -81,-146 0,0 0,-1 0,-1 41,-79 96,-153 172,-220 71,-5 145,-8 220,-8 33,0 66,0 99,1 50,67 97,138 107,212 19,144 33,290 49,434 -31,15 -53,47 -53,83 0,50 43,93 93,93 50,0 93,-43 93,-93 0,-50 -43,-93 -93,-93 -1,0 -1,0 -2,0 -8,-74 -17,-148 -25,-222 -9,-77 -9,-162 -28,-237 -15,-60 -52,-120 -93,-176 134,6 269,19 397,41 0,33 -2,63 -1,90 0,18 10,105 2,146 -26,3 -51,19 -67,52 -31,64 32,112 86,112 25,0 48,-10 60,-32 3,-3 7,-6 10,-10 40,-48 -1,-105 -53,-119 0,-76 3,-155 1,-232 90,16 176,36 255,60 -32,15 -54,48 -54,84 0,50 43,93 93,93 19,0 36,-6 51,-16 0,92 3,184 7,276 -9,0 -18,0 -27,0 -9,0 -19,0 -28,0 -9,0 -19,0 -28,0 -37,0 -73,-2 -106,-12 -1,0 -3,-1 -4,-1 -8,0 -15,7 -15,15 3,60 3,119 5,179 0,3 1,5 3,7 -38,12 -67,48 -67,89 0,50 43,93 93,93 50,0 93,-43 93,-93 0,-50 -43,-93 -93,-93 -4,0 -7,0 -11,1 0,-1 1,-2 1,-3 2,-53 3,-106 5,-158 43,12 90,9 135,11 15,1 31,2 46,3 5,125 9,250 8,373 -8,-2 -16,-3 -25,-5 -7,-1 -15,-3 -22,-4 -15,-4 -31,-7 -46,-10 -32,-6 -65,-11 -97,-11 -10,0 -21,1 -31,2 -87,11 -162,73 -200,152 -4,-1 -9,-1 -13,-1 -43,0 -80,36 -80,80 0,38 28,70 64,78 3,52 16,103 38,150 51,111 156,203 278,212 6,2 11,4 17,5 -61,26 -127,49 -199,68 -19,5 -38,10 -57,14 -51,7 -103,11 -156,11zm-317 -544c-31,0 -57,-26 -57,-57 0,-31 26,-57 57,-57 31,0 57,26 57,57 0,31 -26,57 -57,57zm662 -272c-31,0 -57,-26 -57,-57 0,-31 26,-57 57,-57 31,0 57,26 57,57 0,31 -26,57 -57,57zm-464 -93c-31,0 -57,-26 -57,-57 0,-31 26,-57 57,-57 31,0 57,26 57,57 0,31 -26,57 -57,57zm-494 -194c-31,0 -57,-26 -57,-57 0,-31 26,-57 57,-57 31,0 57,26 57,57 0,31 -26,57 -57,57zm1074 -344c-31,0 -57,-26 -57,-57 0,-31 26,-57 57,-57 24,0 45,16 53,37 -1,15 -1,30 -2,45 -9,19 -29,33 -51,33z"/>
  <path class="fil26" d="M7600 6359c-45,0 -84,-35 -92,-78 0,-4 0,-8 -1,-12 0,-1 0,-2 0,-3 0,-50 43,-93 93,-93 50,0 93,43 93,93 0,50 -43,93 -93,93zm0 -150c-31,0 -57,26 -57,57 0,31 26,57 57,57 31,0 57,-26 57,-57 0,-31 -26,-57 -57,-57z"/>
  <path class="fil26" d="M7797 5994c-50,0 -93,-43 -93,-93 0,-36 22,-68 53,-83 0,1 0,3 1,4 1,13 12,19 22,19 10,0 19,-6 18,-19 -1,-5 -1,-9 -2,-14 1,0 1,0 2,0 50,0 93,43 93,93 0,50 -43,93 -93,93zm0 -150c-31,0 -57,26 -57,57 0,31 26,57 57,57 31,0 57,-26 57,-57 0,-31 -26,-57 -57,-57z"/>
  <path class="fil26" d="M8262 6087c-50,0 -93,-43 -93,-93 0,-41 29,-77 67,-89 2,2 4,2 7,2 4,0 7,-2 9,-6 4,0 7,-1 11,-1 50,0 93,43 93,93 0,50 -43,93 -93,93zm0 -150c-31,0 -57,26 -57,57 0,31 26,57 57,57 31,0 57,-26 57,-57 0,-31 -26,-57 -57,-57z"/>
  <path class="fil26" d="M8378 5457c-50,0 -93,-43 -93,-93 0,-37 22,-69 54,-84 33,10 65,20 95,31 -1,11 -2,22 -3,33 -8,-21 -29,-37 -53,-37 -31,0 -57,26 -57,57 0,31 26,57 57,57 22,0 42,-14 51,-33 0,12 0,24 0,37 0,5 0,11 0,16 -15,10 -32,16 -51,16z"/>
  <path class="fil26" d="M7995 6407c-36,-8 -64,-40 -64,-78 0,-43 36,-80 80,-80 5,0 9,0 13,1 -4,8 -8,17 -11,25 -6,17 -11,35 -14,53 0,0 -1,0 -1,0 -6,0 -12,4 -11,11 1,10 4,19 8,29 -1,13 -1,25 0,38z"/>
  <path class="fil26" d="M7304 5801c-50,0 -93,-43 -93,-93 0,-18 5,-35 15,-50 0,0 0,0 0,1 4,6 11,9 18,9 12,0 23,-10 19,-25 -2,-5 -3,-11 -6,-16 14,-8 30,-13 47,-13 50,0 93,43 93,93 0,50 -43,93 -93,93zm0 -150c-31,0 -57,26 -57,57 0,31 26,57 57,57 31,0 57,-26 57,-57 0,-31 -26,-57 -57,-57z"/>
  <path class="fil26" d="M7995 6369c-4,-9 -7,-19 -8,-29 -1,-8 5,-11 11,-11 1,0 1,0 1,0 -2,13 -4,27 -4,40z"/>
  <path class="fil26" d="M7244 5668c-6,0 -13,-3 -18,-9 0,0 0,0 0,-1 -47,-66 -114,-125 -143,-203 -5,-15 -10,-30 -12,-46 -2,-15 10,-25 21,-25 7,0 14,4 18,14 0,0 0,1 0,1 16,54 44,104 81,146 23,26 51,51 66,83 2,5 4,10 6,16 4,15 -7,25 -19,25z"/>
  <path class="fil26" d="M7487 6300c0,0 -1,0 -1,0 -91,-4 -182,-10 -272,-21 -66,-8 -136,-11 -191,-51 0,0 -1,-1 -1,-1 -2,-2 -3,-6 -2,-8 1,-1 2,-2 4,-2 0,0 0,0 1,0 154,15 307,30 461,38 11,1 18,7 21,15 1,4 2,8 1,12 -1,10 -8,19 -21,19z"/>
  <path class="fil25" d="M7756 6709c-7,0 -14,-1 -21,-4 1,-9 -4,-20 -16,-22 -4,0 -5,-5 -4,-11 5,-1 10,-2 15,-2 25,-4 18,-37 -2,-42 5,-8 13,-13 24,-15 4,-1 7,-1 11,-1 27,0 45,26 45,52 0,28 -25,46 -50,46z"/>
  <path class="fil26" d="M7780 5841c-10,0 -21,-6 -22,-19 0,-1 0,-3 -1,-4 -16,-145 -30,-290 -49,-434 -10,-74 -57,-145 -107,-212 16,0 32,1 48,2 42,56 78,116 93,176 19,75 19,160 28,237 8,74 17,148 25,222 1,5 1,9 2,14 1,13 -8,19 -18,19z"/>
  <path class="fil26" d="M7381 6716c-4,0 -8,0 -12,0 -2,0 -4,0 -6,0 -36,-1 -67,-14 -88,-37 -7,-8 -14,-16 -18,-26 -7,-13 -11,-27 -13,-42 0,0 0,0 0,0 0,-5 4,-8 9,-8 3,0 6,1 7,4 28,53 75,67 126,67 44,0 90,-10 130,-17 57,-9 114,-17 171,-25 -6,15 -9,32 -7,46 -98,17 -199,38 -298,38zm332 -44c1,-12 7,-31 9,-35 1,-4 3,-7 5,-10 21,5 27,39 2,42 -5,1 -10,2 -15,2z"/>
  <path class="fil26" d="M7756 6738c-16,0 -32,-5 -45,-17 -2,-2 -5,-4 -7,-7 -15,-7 -23,-20 -25,-36 -2,-14 1,-31 7,-46 9,-23 26,-43 45,-49 9,-3 17,-4 25,-4 46,0 84,41 78,91 -5,39 -42,68 -80,68zm-42 -65c0,6 1,10 4,11 12,2 17,12 16,22 7,3 14,4 21,4 25,0 51,-18 50,-46 0,-26 -18,-52 -45,-52 -3,0 -7,0 -11,1 -10,3 -18,7 -24,15 -2,3 -3,6 -5,10 -1,4 -8,23 -9,35z"/>
  <path class="fil26" d="M8242 5908c-2,0 -5,-1 -7,-2 -2,-2 -3,-4 -3,-7 -3,-60 -2,-119 -5,-179 0,-8 7,-15 15,-15 1,0 3,0 4,1 33,10 70,12 106,12 9,0 19,0 28,0 9,0 19,0 28,0 9,0 18,0 27,0 0,12 1,25 1,37 -15,-1 -31,-2 -46,-3 -45,-2 -92,1 -135,-11 -2,53 -2,106 -5,158 0,1 0,2 -1,3 -2,4 -5,6 -9,6z"/>
  <path class="fil26" d="M8066 5613c-55,0 -118,-48 -86,-112 16,-33 41,-49 67,-52 8,-41 -2,-128 -2,-146 0,-26 1,-57 1,-90 12,2 25,4 37,6 2,77 -1,155 -1,232 52,14 93,71 53,119 -3,4 -6,7 -10,10 -12,22 -35,32 -60,32z"/>
  <path class="fil27" d="M8668 6568c2,-5 3,-11 5,-16 15,-50 26,-102 16,-153 -8,-40 -28,-77 -48,-112 -7,-13 -14,-26 -22,-38 -11,-20 -22,-40 -38,-56 -35,-38 -86,-54 -136,-65 1,-124 -4,-249 -8,-373 0,-12 -1,-25 -1,-37 -3,-92 -6,-185 -7,-276 0,-5 0,-11 0,-16 0,-12 0,-24 0,-37 0,-15 1,-30 2,-45 1,-11 1,-22 3,-33 79,29 150,62 208,99 105,67 174,145 224,223 72,112 110,228 114,343 8,211 -101,417 -312,593z"/>
  <path class="fil28" d="M8328 6775c-6,-2 -12,-3 -17,-5 0,0 0,0 0,0 6,0 12,1 18,1 4,0 7,0 11,0 -4,2 -7,3 -11,5zm117 -642c-15,-6 -31,-11 -47,-15 7,1 15,3 22,4 8,2 16,3 25,5 0,2 0,4 0,6z"/>
  <path class="fil29" d="M8553 6654c3,-4 5,-8 8,-12 20,-32 33,-68 44,-104 15,-50 26,-102 16,-153 -8,-40 -28,-77 -48,-112 -7,-13 -14,-26 -22,-38 -11,-20 -22,-40 -38,-56 -19,-21 -43,-35 -68,-45 0,-2 0,-4 0,-6 51,11 102,27 136,65 15,17 26,37 38,56 7,13 14,26 22,38 20,36 40,72 48,112 10,51 -1,103 -16,153 -2,5 -3,11 -5,16 -15,12 -30,24 -45,36 -22,17 -45,34 -70,50z"/>
  <path class="fil27" d="M8329 6771c-6,0 -12,0 -18,-1 0,0 0,0 0,0 -122,-9 -227,-101 -278,-212 -22,-47 -35,-99 -38,-150 -1,-13 -1,-25 0,-38 1,-13 2,-27 4,-40 3,-18 8,-36 14,-53 3,-9 7,-17 11,-25 38,-79 113,-141 200,-152 10,-1 21,-2 31,-2 33,0 65,5 97,11 15,3 31,6 46,10 16,4 32,9 47,15 26,10 50,25 68,45 15,17 26,37 38,56 7,13 14,26 22,38 20,36 40,72 48,112 10,51 -1,103 -16,153 -11,36 -24,72 -44,104 -2,4 -5,8 -8,12 -63,42 -134,82 -214,116 -4,0 -7,0 -11,0z"/>
  <path class="fil17" d="M10262 8651c-160,-87 -357,-115 -540,-87 -29,5 -62,13 -76,40 -62,116 64,275 118,367 83,140 120,320 136,480 8,86 71,135 150,164 140,52 301,43 435,-22 38,-18 75,-43 95,-79 23,-41 23,-91 21,-138 -4,-118 -8,-237 -38,-352 -46,-171 -159,-295 -302,-373z"/>
  <path class="fil17" d="M6223 13143c-5,7 -9,13 -15,19 -36,42 -92,60 -135,26 -47,-37 -63,-116 -74,-186 -126,-818 -211,-1636 -213,-2465 0,-75 1,-152 30,-220 28,-67 81,-121 133,-173 109,-110 306,-141 432,-28 94,84 70,231 65,344 -15,283 -5,568 -2,852 5,566 0,1141 -162,1688 -15,51 -32,103 -59,143z"/>
  <path class="fil17" d="M5393 8925c160,-87 357,-115 540,-87 29,5 62,13 76,40 62,116 -64,275 -118,367 -83,140 -120,320 -136,480 -8,86 -71,135 -150,164 -140,52 -301,43 -435,-22 -38,-18 -75,-43 -95,-79 -23,-41 -23,-91 -21,-138 4,-118 8,-237 38,-352 46,-171 159,-295 302,-373z"/>
  <path class="fil30" d="M8889 4575c8,9 22,11 34,7 12,-4 21,-12 31,-19 55,-44 115,-81 179,-110 6,-3 12,-5 18,-4 6,1 11,5 16,9 36,29 68,63 96,100 4,5 8,11 14,13 9,4 20,-1 28,-7 15,-11 28,-25 37,-41 2,-4 4,-8 3,-13 -1,-4 -5,-7 -9,-9 -55,-37 -110,-74 -164,-111 -8,-5 -16,-11 -25,-12 -12,-1 -23,5 -33,12 -82,52 -157,115 -224,185z"/>
  <path class="fil30" d="M8885 4644c9,-8 23,-8 34,-3 11,5 19,14 28,23 48,51 103,96 162,133 5,3 11,7 17,7 6,0 12,-3 17,-6 40,-24 76,-53 109,-86 5,-5 10,-10 16,-11 10,-2 19,4 27,11 14,13 24,28 31,46 2,4 3,9 1,13 -2,4 -6,6 -10,8 -59,29 -119,59 -178,88 -8,4 -17,8 -27,8 -12,-1 -22,-8 -31,-16 -74,-63 -141,-135 -197,-214z"/>
  <path class="fil16" d="M9547 4721c22,-31 13,-74 18,-111 2,-14 6,-27 3,-41 -5,-22 -25,-35 -44,-47 -19,-12 -39,-24 -58,-36 -22,-14 -46,-28 -72,-31 -28,-3 -56,7 -83,17 -27,10 -53,20 -80,31 -14,5 -29,11 -39,23 -8,9 -13,20 -16,32 -15,45 -18,95 -9,141 2,10 5,20 11,29 8,11 21,17 34,23 35,15 70,31 105,46 12,5 25,11 39,11 9,0 17,-2 25,-5 42,-12 82,-28 121,-47 17,-8 33,-18 44,-33z"/>
  <path class="fil31" d="M9582 4761c0,-72 1,-143 1,-215 0,-7 0,-15 0,-22 0,-1 0,-3 -1,-4 -1,-2 -4,-2 -6,-2 -12,-1 -24,-1 -36,-2 -2,0 -4,0 -6,1 -1,1 -1,3 -1,5 -1,80 4,160 -9,238 19,0 39,0 58,1z"/>
  <path class="fil32" d="M9595 4815c21,6 54,4 70,5 13,1 26,1 37,-5 16,-10 8,-46 11,-63 6,-30 9,-59 11,-89 2,-31 3,-61 5,-92 1,-27 4,-66 -21,-82 -23,-14 -53,-13 -79,-11 -8,1 -35,0 -41,6 -7,7 -5,32 -6,43 -10,73 -26,143 -16,217 2,17 2,53 15,65 4,3 9,5 15,7z"/>
  <path class="fil13" d="M5483 5644c-103,-1 -206,-13 -309,-16 -103,-3 -206,-1 -309,-1 -206,1 -412,2 -618,3 -206,1 -412,4 -618,6 -19,0 -39,0 -58,-1 -70,-2 -143,-4 -205,26 -63,31 -72,123 -84,182 -154,772 -366,1531 -638,2269 -24,64 79,92 103,28 257,-700 464,-1419 613,-2149 8,-40 16,-80 24,-121 7,-36 9,-88 33,-118 15,-19 68,-17 105,-15 12,1 23,1 30,1l155 -3c198,-3 395,-6 593,-10 198,-4 395,-8 593,-13 94,-2 189,-4 283,-8 103,-5 206,-21 309,-24 24,-1 25,-38 0,-38z"/>
  <path class="fil30" d="M6180 5368c129,79 246,179 345,293 -25,19 -47,42 -66,67 -65,-20 -107,-81 -148,-136 -41,-54 -97,-109 -165,-107 -29,1 -55,13 -82,25 -119,54 -236,112 -350,175 76,73 153,146 231,217 7,7 15,14 25,16 9,2 18,-1 27,-4 116,-37 231,-74 347,-111 13,33 26,67 40,100 -137,52 -268,119 -390,199 -12,8 -26,16 -40,14 -13,-2 -22,-13 -30,-23 -117,-138 -234,-276 -351,-414 177,-110 357,-215 541,-313 11,-6 24,-12 36,-11 11,1 20,6 29,12z"/>
  <path class="fil33" d="M5683 5931c-20,0 -40,0 -60,-1 -26,0 -54,-1 -75,-16 -32,-22 -34,-65 -33,-102 3,-101 6,-203 8,-304 0,-13 1,-27 8,-38 10,-17 30,-25 49,-32 24,-9 48,-18 74,-19 26,-1 53,8 68,28 11,15 13,33 14,51 11,119 15,239 10,359 -1,28 -7,61 -34,71 -9,4 -20,3 -30,3z"/>
  <path class="fil16" d="M5568 5920c-54,1 -107,-7 -160,-15 -7,-1 -14,-2 -20,-5 -9,-5 -15,-14 -21,-23 -24,-37 -54,-70 -86,-99 -7,-7 -15,-13 -19,-22 -3,-7 -4,-14 -5,-22 -5,-57 -6,-114 -4,-171 68,-12 123,-29 176,-74 41,-35 89,-109 152,-79 93,45 55,350 52,436 -1,28 -7,61 -34,71 -9,4 -20,3 -30,3z"/>
  <path class="fil18" d="M3458 5951c-4,0 -8,0 -12,0 -16,-1 -33,-4 -48,-10 0,0 0,0 0,0 4,0 8,0 12,0 64,0 128,-34 162,-89 14,-22 23,-47 31,-72 4,-13 8,-27 10,-41l49 -1c-2,17 -7,35 -12,52 -8,25 -17,50 -31,72 -34,54 -98,89 -162,89zm161 -314c-6,0 -11,0 -17,0 -6,-14 -14,-27 -21,-40 -5,-9 -10,-18 -15,-27 -8,-14 -16,-28 -26,-39 -21,-23 -50,-34 -80,-42 5,1 10,2 15,3 41,8 84,18 113,49 11,12 19,25 26,39 5,9 10,18 15,27 6,10 11,20 17,31 -6,0 -12,0 -18,0 -3,0 -5,0 -8,0z"/>
  <path class="fil34" d="M3614 5739c4,-22 5,-43 1,-65 -3,-13 -7,-25 -12,-37 6,0 12,0 17,0 3,0 5,0 8,0 6,0 12,0 18,0 7,15 14,31 17,47 4,18 3,36 1,54l-49 1z"/>
  <path class="fil35" d="M3573 5852c14,-22 23,-47 31,-72 10,-34 18,-71 11,-106 -5,-28 -20,-53 -34,-78 -5,-9 -10,-18 -15,-27 -8,-14 -16,-28 -26,-39 -28,-30 -72,-41 -113,-49 -30,-5 -60,-10 -90,-7 -67,8 -124,60 -147,123 -23,63 -15,135 13,195 36,77 109,141 195,147 68,5 138,-31 175,-88z"/>
  <path class="fil36" d="M3387 5771c-6,0 -13,-1 -19,-2 -26,-6 -48,-23 -66,-43 -11,-32 4,-71 33,-89 14,-9 30,-13 46,-13 18,0 36,5 51,15 9,6 17,14 21,24 2,7 2,14 2,22 0,21 -2,44 -14,61 -12,16 -33,24 -53,24z"/>
  <path class="fil13" d="M7548 3003c-87,-172 -190,-335 -297,-495 -54,-80 -110,-159 -169,-236 -59,-78 -119,-164 -194,-227 -26,-22 -67,3 -49,36 42,80 104,153 155,227 57,82 111,166 164,251 93,150 174,307 253,465 -1,12 1,24 6,36 7,17 18,27 33,36 25,15 59,13 80,-8 2,-2 4,-4 5,-5 22,-22 26,-53 12,-80z"/>
  <path class="fil37" d="M8012 3913c11,12 21,24 32,37 10,-3 18,-9 25,-17 -39,-130 -87,-258 -143,-381 -51,-5 -156,34 -128,97 21,48 69,86 101,127 37,47 75,93 113,138z"/>
  <path class="fil16" d="M7712 3154c-49,-2 -89,38 -134,59 -16,8 -34,13 -46,26 -20,20 -21,52 -20,81 1,30 1,59 2,89 1,34 2,70 17,100 17,33 48,56 78,78 30,21 60,43 89,64 16,12 33,24 52,27 15,2 31,-1 46,-5 60,-16 115,-48 159,-91 10,-9 19,-19 23,-32 6,-17 3,-35 0,-53 -8,-49 -16,-98 -25,-146 -3,-17 -6,-35 -16,-50 -6,-9 -15,-17 -23,-24 -43,-37 -89,-70 -137,-98 -21,-12 -43,-24 -67,-25z"/>
  <path class="fil31" d="M7730 3088c-78,50 -156,101 -234,151 -8,5 -16,10 -24,15 -2,1 -3,2 -4,4 -1,3 0,6 2,9 8,13 16,27 24,40 1,2 3,5 6,5 2,0 4,-1 6,-2 87,-55 170,-118 264,-159 -14,-21 -27,-42 -41,-63z"/>
  <path class="fil32" d="M7778 3035c-9,-27 -34,-61 -44,-79 -8,-14 -17,-29 -32,-36 -22,-10 -55,24 -76,32 -37,15 -70,32 -104,52 -34,20 -69,40 -103,60 -30,17 -74,42 -73,81 0,35 23,67 44,94 6,8 25,38 35,40 12,3 38,-18 50,-24 86,-41 173,-74 247,-136 17,-14 56,-40 60,-63 1,-6 0,-13 -3,-21z"/>
  <path class="fil13" d="M6929 2023c-569,36 -1138,73 -1707,111 -577,38 -1156,68 -1728,145 -31,4 -25,49 5,50 571,6 1142,-33 1712,-65 578,-32 1155,-65 1733,-100 88,-5 73,-147 -15,-141z"/>
  <path class="fil13" d="M3583 2232c-33,-44 -67,-88 -100,-132 -67,-87 -132,-177 -196,-267 -129,-180 -247,-367 -358,-558 -38,-65 -132,5 -95,70 115,198 242,388 378,573 70,95 145,187 222,277 17,20 125,167 159,105 13,-24 6,-45 -10,-68z"/>
  <path class="fil18" d="M6936 2268c-14,0 -28,-2 -41,-5 0,0 0,0 0,0 20,-1 40,-5 58,-12 4,5 7,10 11,14 -7,1 -14,2 -20,2 -2,0 -5,0 -7,0zm114 -39c-7,-9 -14,-19 -21,-28 12,-13 23,-28 30,-44 12,-24 18,-49 23,-75 7,-35 10,-72 0,-107 -8,-27 -25,-51 -42,-74 -6,-8 -12,-17 -18,-25 -9,-13 -18,-26 -30,-36 -23,-20 -53,-29 -84,-33 5,0 10,1 16,1 42,3 86,9 117,36 12,10 21,23 30,36 6,8 12,17 18,25 17,23 33,47 42,74 11,34 7,71 0,107 -5,26 -11,51 -23,75 -13,27 -33,50 -57,68z"/>
  <path class="fil34" d="M6964 2266c-4,-5 -7,-10 -11,-14 29,-11 55,-28 75,-51 7,10 14,19 21,28 -25,19 -55,32 -86,36z"/>
  <path class="fil35" d="M7059 2157c12,-24 18,-49 23,-75 7,-35 10,-72 0,-107 -8,-27 -25,-51 -42,-74 -6,-8 -12,-17 -18,-25 -9,-13 -18,-26 -30,-36 -31,-27 -76,-33 -117,-36 -30,-2 -61,-4 -90,3 -66,15 -117,73 -133,138 -16,65 0,135 34,193 44,73 124,129 209,125 69,-3 134,-45 164,-106z"/>
  <path class="fil36" d="M6856 2096c-3,0 -7,0 -10,-1 -26,-3 -50,-18 -70,-35 -14,-31 -4,-71 23,-92 15,-12 35,-18 54,-18 15,0 29,3 42,10 10,5 19,12 23,22 3,7 4,14 4,21 2,21 3,44 -8,63 -12,20 -35,30 -59,30z"/>
  <path class="fil18" d="M3643 2504c-14,0 -28,-2 -41,-5 0,0 0,0 0,0 69,-3 134,-45 164,-106 10,-20 16,-42 21,-64 16,0 33,0 49,-1 -5,24 -11,48 -22,70 -30,61 -96,104 -164,107 -2,0 -5,0 -7,0zm152 -261c-1,-11 -3,-21 -6,-32 -8,-27 -25,-51 -42,-74 -6,-8 -12,-17 -18,-25 -9,-13 -18,-26 -30,-36 -23,-20 -53,-29 -84,-33 5,0 10,1 16,1 42,3 86,9 117,36 12,10 21,23 30,36 6,8 12,17 18,25 17,23 33,47 42,74 2,7 4,15 5,22 -16,2 -32,3 -47,5z"/>
  <path class="fil34" d="M3786 2328c1,-4 1,-7 2,-11 5,-25 8,-50 6,-75 16,-2 32,-3 47,-5 4,28 1,57 -5,85 0,2 -1,4 -1,5 -16,0 -33,1 -49,1z"/>
  <path class="fil35" d="M3766 2393c12,-24 18,-49 23,-75 7,-35 10,-72 0,-107 -8,-27 -25,-51 -42,-74 -6,-8 -12,-17 -18,-25 -9,-13 -18,-26 -30,-36 -31,-27 -76,-33 -117,-36 -30,-2 -61,-4 -90,3 -66,15 -117,73 -133,138 -16,65 0,135 34,193 44,73 124,129 209,125 69,-3 134,-45 164,-106z"/>
  <path class="fil36" d="M3563 2332c-3,0 -7,0 -10,-1 -26,-3 -50,-18 -70,-35 -14,-31 -4,-71 23,-92 15,-12 35,-18 54,-18 15,0 29,3 42,10 10,5 19,12 23,22 3,7 4,14 4,21 2,21 3,44 -8,63 -12,20 -35,30 -59,30z"/>
  <path class="fil13" d="M1840 11922c141,-643 290,-1285 447,-1924 79,-324 162,-647 247,-969 41,-157 83,-314 123,-471 21,-83 44,-165 64,-248 19,-79 48,-159 48,-241 0,-53 -69,-71 -98,-28 -40,61 -58,135 -82,204 -28,81 -54,162 -80,244 -50,155 -98,310 -144,465 -95,319 -188,640 -278,960 -181,641 -348,1286 -503,1935 -40,168 220,242 257,73z"/>
  <path class="fil13" d="M11691 7039c-5,-99 -31,-200 -49,-298 -18,-100 -35,-200 -53,-300 -37,-209 -73,-417 -110,-626 -73,-415 -161,-831 -208,-1250 -6,-54 -90,-57 -87,0 19,415 96,826 156,1236 31,210 62,420 93,630 15,101 30,202 45,303 16,107 22,223 51,327 24,88 166,72 162,-22z"/>
  <path class="fil13" d="M14511 8738c-484,-279 -955,-585 -1431,-878 -235,-145 -470,-289 -708,-427 -120,-69 -241,-135 -360,-205 -123,-72 -243,-148 -373,-206 -50,-22 -78,47 -42,78 103,91 219,166 331,246 112,79 222,162 334,242 224,159 452,313 680,466 463,311 936,612 1390,936 165,118 351,-154 180,-252z"/>
  <path class="fil18" d="M2793 8466c-4,0 -8,0 -12,0 -16,-1 -33,-4 -48,-10 0,0 0,0 0,0 4,0 8,0 12,0 64,0 128,-34 162,-89 14,-22 23,-47 31,-72 10,-34 18,-71 11,-106 -5,-28 -20,-53 -34,-78 -5,-9 -10,-18 -15,-27 -8,-14 -16,-28 -26,-39 -21,-22 -50,-34 -80,-42 0,0 0,0 0,0 5,1 10,2 15,3 41,8 84,18 113,49 11,12 19,25 26,39 5,9 10,18 15,27 14,25 28,50 34,78 7,35 -1,72 -11,106 -8,25 -17,50 -31,72 -34,54 -98,89 -162,89z"/>
  <path class="fil34" d="M2795 8004c0,0 -1,0 -1,0 0,0 1,0 1,0 0,0 0,0 0,0z"/>
  <path class="fil35" d="M2907 8368c14,-22 23,-47 31,-72 10,-34 18,-71 11,-106 -5,-28 -20,-53 -34,-78 -5,-9 -10,-18 -15,-27 -8,-14 -16,-28 -26,-39 -28,-30 -72,-41 -113,-49 -30,-5 -60,-10 -90,-7 -67,8 -124,60 -147,123 -23,63 -15,135 14,195 36,77 109,141 195,147 68,5 138,-31 175,-88z"/>
  <path class="fil36" d="M2721 8286c-6,0 -13,-1 -19,-2 -26,-6 -48,-23 -66,-43 -11,-32 4,-71 33,-89 14,-9 30,-13 46,-13 18,0 36,5 51,15 9,6 17,14 21,24 2,7 2,14 2,22 0,21 -2,44 -14,61 -12,16 -33,24 -53,24z"/>
  <path class="fil18" d="M11198 4886c-4,0 -8,0 -12,0 -17,-1 -33,-4 -48,-10 0,0 0,0 0,0 4,0 8,0 12,0 20,0 39,-3 58,-9 1,6 1,12 2,18 -4,0 -8,0 -12,0zm111 -36c-2,-16 -5,-32 -7,-48 4,-5 7,-10 10,-15 14,-22 23,-47 31,-72 10,-34 18,-71 11,-106 -5,-28 -20,-53 -34,-78 -5,-9 -10,-18 -15,-27 -8,-14 -16,-28 -26,-39 -21,-23 -50,-34 -80,-42 5,1 10,2 15,3 41,8 84,18 113,49 11,12 19,25 26,39 5,9 10,18 15,27 14,25 28,50 34,78 7,35 -1,72 -11,106 -8,25 -17,50 -31,72 -13,21 -31,39 -51,53z"/>
  <path class="fil34" d="M11210 4886c-1,-6 -1,-12 -2,-18 37,-12 71,-34 94,-65 2,16 5,32 7,48 -29,20 -64,33 -99,35z"/>
  <path class="fil35" d="M11313 4788c14,-22 23,-47 31,-72 10,-34 18,-71 11,-106 -5,-28 -20,-53 -34,-78 -5,-9 -10,-18 -15,-27 -8,-14 -16,-28 -26,-39 -28,-30 -72,-41 -113,-49 -30,-5 -60,-10 -90,-7 -67,8 -124,60 -147,123 -23,63 -15,135 13,195 36,77 109,141 195,147 68,5 138,-31 175,-88z"/>
  <path class="fil36" d="M11126 4706c-6,0 -13,-1 -19,-2 -26,-6 -48,-23 -66,-43 -11,-32 4,-71 33,-89 14,-9 30,-13 46,-13 18,0 36,5 51,15 9,6 17,14 21,24 2,7 2,14 2,22 0,21 -2,44 -14,61 -12,16 -33,24 -53,24z"/>
  <path class="fil18" d="M11717 7328c-4,0 -8,0 -12,0 -16,-1 -33,-4 -48,-10 0,0 0,0 0,0 4,0 8,0 12,0 51,0 101,-21 137,-57 11,8 22,15 33,23 -34,28 -78,44 -122,44zm193 -160c-14,-9 -29,-17 -43,-25 8,-30 13,-61 7,-91 -5,-28 -20,-53 -34,-78 -5,-9 -10,-18 -15,-27 -8,-14 -16,-28 -26,-39 -21,-23 -50,-34 -80,-42 5,1 10,2 15,3 41,8 84,18 113,49 11,12 19,25 26,39 5,9 10,18 15,27 14,25 28,50 34,78 7,35 -1,72 -11,106 0,0 0,0 0,1z"/>
  <path class="fil34" d="M11839 7285c-11,-8 -22,-15 -33,-23 10,-10 18,-20 25,-31 14,-22 23,-47 31,-72 2,-5 3,-10 4,-15 14,8 29,17 43,25 -8,25 -17,49 -31,71 -11,17 -24,32 -40,45z"/>
  <path class="fil35" d="M11832 7230c14,-22 23,-47 31,-72 10,-34 18,-71 11,-106 -5,-28 -20,-53 -34,-78 -5,-9 -10,-18 -15,-27 -8,-14 -16,-28 -26,-39 -28,-30 -72,-41 -113,-49 -30,-5 -60,-10 -90,-7 -67,8 -124,60 -147,123 -23,63 -15,135 14,195 36,77 109,141 195,147 68,5 138,-31 175,-88z"/>
  <path class="fil36" d="M11645 7148c-6,0 -13,-1 -19,-2 -26,-6 -48,-23 -66,-43 -11,-32 4,-71 33,-89 14,-9 30,-13 46,-13 18,0 36,5 51,15 9,6 17,14 21,24 2,7 2,14 2,22 0,21 -2,44 -14,61 -12,16 -33,24 -53,24z"/>
  <path class="fil13" d="M3536 9245c-91,254 -147,522 -205,785 -59,264 -115,529 -170,794 -55,265 -106,531 -155,797 -51,274 -88,552 -149,824 -31,139 180,170 193,26 25,-269 79,-538 123,-804 44,-268 91,-535 139,-802 48,-267 98,-533 151,-800 53,-269 114,-539 143,-812 4,-42 -56,-44 -69,-9z"/>
  <path class="fil13" d="M4400 9203c-97,-2 -194,-2 -291,-1 -165,1 -331,1 -496,-10 -80,-5 -80,120 0,125 265,17 537,15 796,-51 36,-9 27,-62 -9,-63z"/>
  <path class="fil18" d="M3604 9476c-3,0 -6,0 -10,0 -6,0 -13,-1 -19,-2 0,-2 1,-3 1,-5 47,-3 93,-30 118,-70 11,-18 18,-37 24,-57 2,-6 4,-12 5,-19 13,1 26,1 39,1 -2,8 -4,17 -7,25 -6,20 -13,39 -24,57 -27,43 -77,70 -128,70zm132 -278c-11,0 -23,-1 -34,-1 0,0 0,-1 0,-1 -4,-7 -8,-14 -12,-21 -6,-11 -12,-22 -21,-31 -16,-18 -40,-27 -63,-33 4,1 8,1 12,2 32,6 67,14 89,38 8,9 15,20 21,31 3,5 6,11 9,16z"/>
  <path class="fil34" d="M3576 9473c-7,-1 -13,-3 -19,-5 0,0 0,0 0,0 3,0 6,0 10,0 3,0 7,0 10,0 0,2 -1,3 -1,5z"/>
  <path class="fil34" d="M3763 9324c-13,0 -26,-1 -39,-1 5,-21 8,-44 4,-65 -4,-22 -15,-41 -26,-61 11,1 23,1 34,1 1,2 2,4 3,5 11,20 22,40 27,62 4,19 2,39 -2,59z"/>
  <path class="fil35" d="M3695 9398c11,-18 18,-37 24,-57 8,-27 14,-56 9,-84 -4,-22 -16,-42 -27,-62 -4,-7 -8,-14 -12,-21 -6,-11 -12,-22 -21,-31 -22,-24 -57,-32 -89,-38 -23,-4 -47,-8 -71,-5 -53,6 -98,47 -116,97 -18,50 -12,106 11,154 28,61 86,112 154,116 54,4 109,-24 138,-70z"/>
  <path class="fil36" d="M3547 9333c-5,0 -10,-1 -15,-2 -20,-5 -38,-19 -52,-34 -9,-25 3,-56 26,-70 11,-7 23,-10 36,-10 14,0 28,4 40,12 7,5 14,11 16,19 2,5 2,11 2,17 0,17 -1,35 -11,49 -9,13 -26,19 -42,19z"/>
  <path class="fil38" d="M5195 9007c-9,-6 -19,-11 -29,-12 -13,-1 -25,5 -36,11 -184,99 -364,203 -541,313 117,138 234,276 351,414 8,10 18,20 30,23 14,3 28,-6 40,-14 13,-9 27,-17 41,-26 0,-2 0,-4 0,-7 6,-57 7,-115 14,-172 -17,6 -35,11 -52,17 -9,3 -18,6 -27,4 -10,-2 -18,-9 -25,-16 -78,-71 -155,-144 -231,-217 114,-63 231,-121 350,-175 26,-12 53,-23 82,-25 68,-3 124,52 165,107 41,54 83,116 148,136 19,-25 41,-48 66,-67 -99,-115 -216,-214 -345,-293z"/>
  <path class="fil33" d="M4697 9570c-20,0 -40,0 -60,-1 -26,0 -54,-1 -75,-16 -32,-22 -34,-65 -33,-102 3,-101 6,-203 8,-304 0,-13 1,-27 8,-38 10,-17 30,-25 49,-32 24,-9 48,-18 74,-19 26,-1 53,8 68,28 11,15 13,33 14,51 11,119 15,239 10,359 -1,28 -7,61 -34,71 -9,4 -20,3 -30,3z"/>
  <path class="fil16" d="M4582 9558c-54,1 -107,-7 -160,-15 -7,-1 -14,-2 -20,-5 -9,-5 -15,-14 -21,-23 -24,-37 -54,-70 -86,-99 -7,-7 -15,-13 -19,-22 -3,-7 -4,-14 -5,-22 -5,-57 -6,-114 -4,-172 68,-12 123,-29 176,-74 41,-35 89,-109 152,-79 93,45 55,350 52,436 -1,28 -7,61 -34,71 -9,4 -20,3 -30,3z"/>
  <path class="fil21" d="M10742 12565l-3 0c-46,-12 -87,-21 -125,-26 -7,-1 -12,-8 -11,-15 1,-7 7,-12 15,-11 38,5 80,14 128,27 7,2 11,9 9,16 -2,6 -7,10 -12,10zm-379 2c-5,0 -9,-3 -12,-7 -3,-6 -1,-14 6,-17 38,-19 81,-30 129,-34 7,-1 13,5 14,12 1,7 -5,13 -12,14 -44,4 -84,14 -119,32 -2,1 -4,1 -6,1zm583 139c-5,0 -9,-3 -12,-7 -14,-29 -32,-53 -53,-71 -8,-7 -17,-13 -26,-19 -6,-4 -8,-12 -4,-18 4,-6 12,-8 18,-4 11,6 21,14 29,21 24,20 44,47 60,80 3,6 0,14 -6,17 -2,1 -4,1 -6,1zm-738 105l-1 0c-7,0 -13,-6 -12,-13 2,-47 13,-90 34,-129 7,-14 16,-27 25,-40 4,-6 12,-7 18,-3 6,4 7,12 3,18 -9,11 -16,24 -23,36 -19,36 -29,75 -31,118 0,7 -6,12 -13,12zm768 148l-2 0c-7,-1 -12,-8 -10,-15 4,-24 6,-49 6,-74 0,-17 -1,-34 -3,-51 -1,-7 4,-13 11,-14 7,-1 13,4 14,11 2,18 3,36 3,54 0,26 -2,53 -7,78 -1,6 -7,11 -13,11zm-688 92c-4,0 -8,-2 -10,-5 -19,-25 -35,-51 -48,-78 -6,-13 -11,-26 -16,-39 -2,-7 1,-14 8,-16 7,-2 14,1 16,8 4,12 9,24 15,36 12,25 27,50 45,73 4,6 3,14 -2,18 -2,2 -5,3 -8,3zm563 128c-4,0 -7,-2 -10,-5 -5,-6 -4,-14 2,-18 29,-24 54,-53 74,-85 2,-3 4,-6 6,-10 3,-6 11,-9 18,-5 6,3 9,11 5,18 -2,3 -4,7 -6,10 -21,35 -48,66 -79,92 -2,2 -5,3 -8,3zm-363 31c-2,0 -4,0 -6,-1 -14,-7 -29,-15 -43,-23 -24,-14 -47,-30 -68,-46 -6,-4 -7,-12 -2,-18 4,-6 12,-7 18,-2 20,16 42,31 66,44 14,8 28,16 42,22 6,3 9,11 6,17 -2,5 -7,7 -12,7zm167 42c-15,0 -31,-1 -46,-3 -7,-1 -12,-8 -11,-15 1,-7 8,-12 15,-11 14,2 29,3 43,3 6,0 11,0 17,-1 21,-1 42,-5 62,-11 7,-2 14,2 16,9 2,7 -2,14 -9,16 -22,7 -45,11 -68,12 -6,0 -12,1 -19,1l0 0z"/>
  <path class="fil39" d="M8761 4410c-56,1 -184,4 -185,-6 0,-4 -6,-4 -6,0 -1,3 -2,7 -2,10 -2,4 1,9 5,9 62,4 125,2 187,1 3,17 19,32 37,31 2,0 3,0 5,0 20,-1 38,-16 38,-38 0,-21 -17,-37 -38,-38 -2,0 -3,0 -5,0 -18,-1 -33,13 -37,30z"/>
  <path class="fil39" d="M8827 4539c-56,1 -184,4 -185,-6 0,-4 -6,-4 -6,0 -1,3 -1,7 -2,10 -2,4 1,9 5,9 62,4 125,2 187,1 3,17 19,32 37,31 2,0 3,0 5,0 20,-1 38,-16 38,-38 0,-21 -17,-37 -38,-38 -2,0 -3,0 -5,0 -18,-1 -33,13 -37,30z"/>
  <path class="fil39" d="M8914 4312c-67,1 -219,4 -219,-7 0,-5 -7,-4 -7,0 -1,4 -2,8 -3,12 -3,5 1,10 6,11 74,4 148,3 222,2 4,20 22,38 44,37 2,0 4,0 6,0 24,-1 45,-19 45,-45 0,-25 -20,-43 -45,-45 -2,0 -4,0 -6,0 -21,-1 -39,16 -44,36z"/>
  <path class="fil39" d="M8838 4198c-67,1 -219,4 -219,-7 0,-4 -7,-4 -7,0 -1,4 -2,8 -3,12 -3,5 1,10 6,11 74,4 148,3 222,2 4,20 22,38 44,37 2,0 4,0 6,0 24,-1 45,-19 45,-45 0,-25 -20,-43 -45,-45 -2,0 -4,0 -6,0 -21,-1 -39,16 -44,36z"/>
  <path class="fil39" d="M8281 4768c-1,-64 -4,-212 7,-212 4,0 4,-7 0,-7 -4,-1 -8,-2 -11,-3 -5,-2 -10,1 -10,6 -4,71 -3,143 -2,215 -20,4 -37,22 -36,43 0,2 0,4 0,5 1,23 19,43 43,43 24,0 42,-20 43,-43 0,-2 0,-4 0,-5 1,-21 -15,-38 -34,-42z"/>
  <path class="fil39" d="M8383 4655c-1,-57 -4,-187 6,-188 4,0 4,-6 0,-6 -3,-1 -7,-2 -10,-2 -4,-2 -9,1 -9,5 -4,63 -2,127 -2,190 -17,3 -32,19 -32,38 0,2 0,3 0,5 1,21 17,38 38,38 22,0 37,-17 38,-38 0,-2 0,-3 0,-5 1,-18 -14,-34 -31,-38z"/>
  <path class="fil39" d="M8496 4833c-1,-64 -4,-212 7,-212 4,0 4,-7 0,-7 -4,-1 -8,-2 -11,-3 -5,-2 -10,1 -10,6 -4,71 -3,143 -2,215 -20,4 -37,22 -36,43 0,2 0,4 0,5 1,23 19,43 43,43 24,0 42,-20 43,-43 0,-2 0,-4 0,-5 1,-21 -15,-38 -34,-42z"/>
  <path class="fil39" d="M8290 3981c-1,70 -4,231 8,232 5,0 5,7 0,7 -4,1 -8,2 -12,3 -5,3 -11,-1 -11,-6 -5,-78 -3,-157 -2,-235 -22,-4 -40,-24 -39,-47 0,-2 0,-4 0,-6 1,-26 21,-47 47,-47 27,0 46,21 47,47 0,2 0,4 0,6 1,22 -17,42 -38,46z"/>
  <path class="fil39" d="M8408 4049c-1,69 -4,227 7,227 5,0 5,7 0,7 -4,1 -8,2 -12,3 -5,3 -11,-1 -11,-6 -5,-76 -3,-154 -2,-231 -21,-4 -39,-23 -38,-46 0,-2 0,-4 0,-6 1,-25 20,-46 46,-46 26,0 45,21 46,46 0,2 0,4 0,6 1,22 -16,41 -37,45z"/>
  <path class="fil39" d="M8489 3886c-1,70 -4,231 8,232 5,0 5,7 0,7 -4,1 -8,2 -12,3 -5,3 -11,-1 -11,-6 -5,-78 -3,-157 -2,-235 -22,-4 -40,-24 -39,-47 0,-2 0,-4 0,-6 1,-26 21,-47 47,-47 27,0 46,21 47,47 0,2 0,4 0,6 1,22 -17,42 -38,46z"/>
  <path class="fil39" d="M8620 4045c-1,52 -3,170 6,170 4,0 4,5 0,5 -3,1 -6,1 -9,2 -4,2 -8,0 -8,-5 -3,-57 -2,-115 -1,-173 -16,-3 -29,-17 -29,-34 0,-1 0,-3 0,-4 1,-19 15,-35 35,-35 20,0 34,16 35,35 0,1 0,3 0,4 1,17 -12,31 -28,34z"/>
  <path class="fil39" d="M8117 4183c47,-2 156,-7 156,1 0,3 5,3 5,0 1,-3 1,-6 2,-8 2,-4 -1,-7 -5,-8 -52,-2 -106,1 -158,3 -3,-14 -17,-27 -32,-25 -1,0 -3,0 -4,0 -17,1 -31,15 -31,33 0,18 15,31 33,31 1,0 3,0 4,0 15,0 28,-12 31,-26z"/>
  <path class="fil39" d="M8616 4725c-2,-44 -5,-144 2,-144 3,0 3,-5 0,-5 -3,-1 -5,-1 -8,-2 -3,-2 -7,1 -7,4 -2,48 0,98 1,146 -13,3 -25,15 -24,29l0 4c1,16 13,29 30,29 17,0 28,-14 29,-30l0 -4c0,-14 -11,-26 -24,-28z"/>
  <path class="fil39" d="M8032 4552c47,-2 156,-7 156,1 0,3 5,3 5,0 1,-3 1,-6 2,-8 2,-4 -1,-7 -5,-8 -52,-2 -106,1 -158,3 -3,-14 -17,-27 -32,-25 -1,0 -3,0 -4,0 -17,1 -31,15 -31,33 0,18 15,31 33,31 1,0 3,0 4,0 15,0 28,-12 31,-26z"/>
  <path class="fil39" d="M8024 4293c71,-3 235,-10 235,2 0,5 8,5 7,0 1,-4 2,-8 3,-13 3,-5 -1,-11 -7,-11 -79,-3 -159,1 -239,4 -5,-22 -25,-40 -48,-38 -2,0 -4,0 -6,0 -26,2 -47,22 -47,49 1,27 23,46 49,47 2,0 4,0 6,0 23,0 42,-18 46,-39z"/>
  <path class="fil39" d="M8127 4426c66,-3 218,-10 218,2 0,4 7,4 7,0 1,-4 2,-8 2,-12 2,-5 -1,-10 -6,-11 -73,-3 -148,1 -221,4 -4,-20 -23,-37 -45,-36 -2,0 -4,0 -6,0 -24,2 -44,20 -43,46 1,25 21,43 46,43 2,0 4,0 6,0 21,0 39,-17 43,-37z"/>
  <path class="fil39" d="M8205 4610c7,11 22,13 35,14 132,9 265,4 396,-14 8,-1 16,-2 22,-7 9,-7 11,-19 12,-30 19,-131 25,-263 18,-394 0,-5 -1,-11 -3,-16 -4,-7 -12,-11 -20,-15 -80,-32 -169,-31 -256,-29 -55,1 -110,3 -166,4 -7,0 -14,0 -20,3 -14,7 -17,25 -18,40 -12,141 -14,282 -4,423 0,7 1,14 5,19z"/>
  <path class="fil40" d="M8390 4586c-49,0 -98,-1 -146,-3 -3,0 -5,-2 -5,-5 5,-131 6,-263 16,-394l1 -2c-6,-4 -5,-14 3,-14 0,0 0,0 0,0 126,5 251,13 377,23 4,0 7,3 8,8 3,126 -5,252 -28,376 -1,3 -4,5 -7,5 -73,4 -146,7 -218,7zm-129 -403l0 0c0,119 -7,239 -11,359 -1,28 16,33 36,33 5,0 10,0 15,0 5,0 10,0 15,0 0,0 1,0 1,0 16,0 32,0 47,0 15,0 29,0 44,0 61,-1 122,-3 182,-7 37,-2 53,-361 28,-363 -119,-9 -238,-16 -357,-21z"/>
  <path class="fil17" d="M8381 4390c8,-26 17,-53 25,-79 4,25 7,50 11,76 -12,1 -24,2 -36,4zm38 -125c-2,-11 -17,-9 -20,0 -23,73 -44,147 -60,221 -2,7 9,10 11,3 9,-29 18,-58 27,-87 14,3 29,6 43,8 3,25 6,50 9,74 2,13 22,14 21,0 -4,-74 -17,-148 -32,-220z"/>
  <path class="fil17" d="M8522 4477c-2,-44 -1,-88 -3,-132 -1,-16 4,-46 -3,-65 10,-3 9,-18 -1,-21 -5,-1 -11,0 -16,0 -7,0 -12,7 -10,14 1,5 6,8 11,8l1 0c4,64 4,129 1,193 -13,0 -13,22 1,22 4,0 7,0 11,0 11,0 13,-13 8,-19z"/>
  <path class="fil13" d="M11059 11873c74,-150 133,-305 188,-463 28,-79 52,-159 75,-239 23,-81 51,-168 56,-252 2,-29 -37,-45 -51,-15 -33,71 -52,151 -76,225 -27,82 -57,163 -88,244 -55,142 -122,280 -190,416 -9,5 -16,13 -22,23 -8,14 -9,26 -8,42 2,25 22,47 47,51 2,0 4,1 6,1 26,4 50,-9 62,-33z"/>
  <path class="fil38" d="M10672 12667c-3,14 -6,27 -9,41 7,5 16,8 25,8 70,-95 133,-194 189,-297 -24,-38 -105,-90 -134,-38 -22,40 -23,92 -35,136 -13,50 -25,100 -36,150z"/>
  <path class="fil16" d="M11040 12065c-24,-35 -73,-42 -110,-62 -14,-7 -27,-17 -42,-19 -25,-3 -47,13 -66,28 -20,16 -40,32 -60,48 -23,18 -47,38 -60,64 -14,29 -14,62 -13,94 1,32 1,64 2,95 0,17 1,35 9,50 6,12 17,21 27,29 42,33 93,55 146,63 11,2 23,3 34,0 15,-4 26,-16 37,-27 29,-31 59,-62 88,-93 10,-11 21,-23 26,-37 3,-9 4,-19 5,-28 3,-49 2,-98 -4,-146 -2,-21 -6,-42 -18,-59z"/>
  <path class="fil31" d="M11096 12043c-75,-28 -150,-55 -226,-83 -8,-3 -15,-6 -23,-8 -2,-1 -3,-1 -5,-1 -3,1 -4,3 -5,6 -5,13 -10,25 -16,38 -1,2 -2,5 -1,7 1,2 3,2 4,3 83,31 170,56 248,100 8,-20 15,-41 23,-61z"/>
  <path class="fil32" d="M11157 12049c14,-20 25,-55 32,-72 6,-13 11,-27 8,-41 -5,-21 -45,-26 -62,-36 -29,-18 -59,-32 -90,-45 -32,-13 -64,-27 -95,-40 -28,-12 -68,-29 -94,-9 -24,18 -34,51 -42,79 -2,9 -13,37 -10,46 4,10 32,17 42,23 73,38 141,81 223,100 19,4 57,18 74,9 5,-3 9,-7 13,-13z"/>
  <path class="fil13" d="M13757 10710c-98,-9 -205,15 -303,25 -101,10 -202,21 -304,31 -211,21 -422,41 -633,59 -203,17 -406,31 -608,45 -101,7 -203,12 -305,18 -51,3 -102,7 -152,10 -11,1 -23,-1 -35,-2 -17,-2 -35,-3 -49,0l-2 1c-24,6 -34,34 -22,55 36,67 121,50 185,50 110,-1 220,-5 330,-10 212,-10 423,-25 634,-42 211,-17 422,-36 633,-57 110,-11 219,-22 329,-33 103,-10 219,-9 318,-39 63,-19 46,-103 -15,-109z"/>
  <path class="fil18" d="M11408 11191c-3,0 -6,0 -10,0 -13,-1 -26,-4 -38,-8 0,0 0,0 0,0 3,0 6,0 10,0 51,0 101,-27 128,-70 11,-18 18,-37 24,-57 6,-18 10,-37 11,-56 13,0 25,0 38,0 0,21 -5,43 -11,64 -6,20 -13,39 -24,57 -27,43 -77,70 -128,70zm88 -297c-1,-1 -2,-3 -2,-4 -6,-11 -12,-22 -21,-31 -16,-18 -39,-27 -63,-33 4,1 8,1 12,2 32,6 67,14 89,38 7,8 12,16 18,25 -11,1 -21,1 -32,2z"/>
  <path class="fil34" d="M11533 11001c0,-9 0,-19 -2,-28 -4,-22 -16,-42 -27,-62 -3,-6 -6,-11 -10,-17 11,-1 21,-1 32,-2 1,2 2,4 3,6 4,7 8,14 12,21 11,20 22,40 27,62 1,7 2,13 2,20 -13,0 -25,0 -38,0z"/>
  <path class="fil35" d="M11498 11113c11,-18 18,-37 24,-57 8,-27 14,-56 9,-84 -4,-22 -16,-42 -27,-62 -4,-7 -8,-14 -12,-21 -6,-11 -12,-22 -21,-31 -22,-24 -57,-32 -89,-38 -23,-4 -47,-8 -71,-5 -53,6 -98,47 -116,97 -18,50 -12,106 11,154 28,61 86,112 154,116 54,4 109,-24 138,-70z"/>
  <path class="fil36" d="M11351 11049c-5,0 -10,-1 -15,-2 -20,-5 -38,-19 -52,-34 -9,-25 3,-56 26,-70 11,-7 23,-10 36,-10 14,0 28,4 40,12 7,5 14,11 16,19 2,5 2,11 2,17 0,17 -1,35 -11,49 -9,13 -26,19 -42,19z"/>
 </g>
</svg>
