<svg data-name="Layer 1" xmlns="http://www.w3.org/2000/svg" width="980" height="258" viewBox="0 0 980 258">
    <title>icon-home-town</title>
    <g data-name="Joes">
        <path d="M120.1 132.1c43.7 0 70-12.2 70-12.2v-5c-12.6 3.5-37.4 5.3-68.8 5.3s-58-1.9-70.1-5.7v5s25.2 12.6 68.9 12.6z"
            fill="#babac8"></path>
        <path d="M142 82.1v-4.4h-.8V82H140v-4.5h-.8v4.4H138v-4.7h-.8v4.4h-1.3V77h-.8v4.4h-1.3v-4.6h-.8v4.4h-1.3v-4.5h-.7V81h-1.3v-4.5h-.7v4.4h-1.3v-4.6h-.8v4.4h-1.3v-4.5h-.8v4.4h-1.3v-4.5h-.8v4.4h-1.3v-4.4h-.8v4.4h-1.3v-4.4h-.8v4.4h-1.3v-4.4h-.8v4.4h-1.3v-4.3h-.8v4.4H113v-4.3h-.8v4.4h-1.3v-4.3h-.8v4.4h-1.3v-4.2h-.8V81h-1.3v-4.2h-.8v4.4h-1.3v-4.3h-.8v4.4h-1.3v-4.1h-.8v4.4h-1.3v-4.2h-.8v4.4h-.7v-4.2h-.8V82c-17.6 6.7-32.9 27-32.9 30.7 0 .7 4.2 1.3 4.9 2 5.1-4.1 25.5-7.2 49.9-7.2s44.9 3.1 49.9 7.2c.8-.6 4.9-1.3 4.9-2 .1-3.5-15.1-23.9-32.8-30.6z"
            fill="#d8d9e0"></path>
        <path fill="#d1d1da" d="M184.5 203.1l-127.8-.8v-84.8l63.3-7.4 64.5 8.2v84.8z"></path>
        <path d="M59.6 109.6l-4 7.1c10.1-3.4 35.2-5.8 64.4-5.8s54.3 2.4 64.5 5.8l-4-7.1c-10.1-3.4-31.2-5.8-60.4-5.8s-50.4 2.4-60.5 5.8z"
            fill="#babac8"></path>
        <path d="M121.1 109.7c-40.2 0-64.4 5.2-64.4 5.2v5.1c11.6-3.2 34.4-4.6 63.3-4.6s53.3 1.5 64.4 4.9v-4.6s-23.1-6-63.3-6z"
            fill="#babac8"></path>
        <path d="M121.1 108.3c-43.7 0-70 5.6-70 5.6v5.6c12.6-3.5 37.5-5.9 68.8-5.9s58 2.6 70.1 6.3v-5s-25.2-6.6-68.9-6.6z"
            fill="#c1c2ce"></path>
        <path d="M131.7 111.6h-.1a3.7 3.7 0 0 0-3.1-3v-.3a7.85 7.85 0 0 0-15.7 0v.3a3.7 3.7 0 0 0-3.6 3h-.1a2.2 2.2 0 1 0 1.6 3.7 3.7 3.7 0 0 0 5.1-.8 7.8 7.8 0 0 0 9.3.3 3.6 3.6 0 0 0 4.9.6 2.2 2.2 0 1 0 1.6-3.7z"
            fill="#b2b2c1"></path>
        <path d="M131.7 110h-.1a3.7 3.7 0 0 0-3.1-3v-.3a7.85 7.85 0 1 0-15.7 0v.3a3.7 3.7 0 0 0-3.6 3h-.1a2.2 2.2 0 1 0 1.6 3.7 3.7 3.7 0 0 0 5.1-.8 7.8 7.8 0 0 0 9.3.3 3.6 3.6 0 0 0 4.9.6 2.2 2.2 0 1 0 1.6-3.7z"
            fill="#d1d1da"></path>
        <circle cx="120.7" cy="106.7" r="5.6" fill="#babac8"></circle>
        <path d="M120.7 102.8a5.6 5.6 0 0 1 5.5 4.7 5.6 5.6 0 1 0-11.1 0 5.6 5.6 0 0 1 5.6-4.7z" fill="#b2b2c1"></path>
        <path d="M128.9 151.8a5.3 5.3 0 0 0-5.3 5.3v3h10.6v-3a5.3 5.3 0 0 0-5.3-5.3zm-5.2 9.7h10.6v10.56h-10.6zm21.2-9.5a5.3 5.3 0 0 0-5.3 5.3v3h10.6v-3a5.3 5.3 0 0 0-5.3-5.3zm-5.3 9.8h10.6v10.56h-10.6zm21.3-9.3a5.3 5.3 0 0 0-5.3 5.3v3h10.6v-3a5.3 5.3 0 0 0-5.3-5.3zm-5.3 9.8h10.6v10.56h-10.6zm21.3-8.8a5.3 5.3 0 0 0-5.3 5.3v3h10.6v-3a5.3 5.3 0 0 0-5.3-5.3zm-5.3 9.8h10.6v10.56h-10.6zm-58.7-11.5a5.3 5.3 0 0 0-5.3 5.3v3h10.6v-3a5.3 5.3 0 0 0-5.3-5.3zm-5.3 9.7h10.6v10.56h-10.6zM96.9 152a5.3 5.3 0 0 0-5.3 5.3v3h10.6v-3a5.3 5.3 0 0 0-5.3-5.3zm-5.3 9.8h10.6v10.56H91.6zm-10.7-9.4a5.3 5.3 0 0 0-5.3 5.3v3h10.6v-3a5.3 5.3 0 0 0-5.3-5.3zm-5.3 9.8h10.6v10.56H75.6zm-10.7-8.8a5.3 5.3 0 0 0-5.3 5.3v3h10.6v-3a5.3 5.3 0 0 0-5.3-5.3zm-5.2 9.7h10.6v10.56H59.7z"
            fill="#c9c9d4"></path>
        <circle cx="128.9" cy="123.9" r="1.6" fill="#c9c9d4"></circle>
        <circle cx="145.4" cy="123.9" r="1.6" fill="#c9c9d4"></circle>
        <circle cx="161.9" cy="125.4" r="1.6" fill="#c9c9d4"></circle>
        <circle cx="177.6" cy="126.9" r="1.6" fill="#c9c9d4"></circle>
        <circle cx="112.7" cy="123.9" r="1.6" fill="#c9c9d4"></circle>
        <circle cx="96.2" cy="123.9" r="1.6" fill="#c9c9d4"></circle>
        <circle cx="79.7" cy="125.4" r="1.6" fill="#c9c9d4"></circle>
        <circle cx="64" cy="126.9" r="1.6" fill="#c9c9d4"></circle>
        <path d="M184.5 148.4v-10.2H180v9.4l-5.6-.5v-9.6h-10.6v9l-5.6-.2v-9.5h-10.6v9.2H142v-10h-10.6v9.7H126v-10.5h-10.5v10.4h-5.6V136H99.3v9.8h-5.7v-9.2H83.1v9.5l-5.6.2v-9H66.9v9.7l-5.6.5v-9.3h-4.6v9.9c-1.8.3-1.5.7-1.5 1s.5.5 1.5.8c3-.7 8.9-1.4 18.8-1.8h1.8c11.5-.5 26.4-.8 42.6-.8s32.1.3 43.8.9h.7c9.9.5 17.1 1.1 20.1 1.8 1-.2 1.6-.5 1.6-.8s-.6-.6-1.6-.8zm-42.6-16.8a5.3 5.3 0 0 0-10.6 0v3h10.6zm16.2.7a5.3 5.3 0 0 0-10.6 0v3h10.6zm16.2.7a5.3 5.3 0 1 0-10.6 0v3h10.6zm10.2-4.4a5.3 5.3 0 0 0-4.5 5.2v3h4.5zm-58.5 2.2a5.3 5.3 0 1 0-10.6 0v3H126zm-16.2.8a5.3 5.3 0 1 0-10.6 0v3h10.6zm-16.2.7a5.3 5.3 0 0 0-10.6 0v3h10.6zm-16.2.7a5.3 5.3 0 0 0-10.6 0v3h10.6zm-16.2.8a5.3 5.3 0 0 0-4.5-5.2v8.2h4.5z"
            fill="#c9c9d4"></path>
        <path d="M785.4 116.8a10.3 10.3 0 0 0-8.5-3.5c-14.5.9-33.8-6-50.9-12.1s-30.4-10.8-38.5-8.8c-24.6 6.2-30.1 42.2-32.4 57.6a5.8 5.8 0 0 0 1.5 4.7c8.4 10.1 55.9 14.4 71.6 15.8 30.9 2.8 60.6 3.7 60.9 3.7h1.7l.2-1.7c.1-1.7 5.6-43.5-5.6-55.7zm-125.9 28.7v.6l.3-1.9v.8l4.3-2.1 5.8.6-5.2 2.6zm3.9 1l-4.4 2.2v.7l.5-3.3zm8.8-32.7l5.8.6-5.2 2.6-5.2-.5.6-1.3-.4.9zm-4 1.3l.8-1.6 2 .2zm51-12.2l.6.2h-.6zm14.6 5.2l.9.3h-1.3zm3.5 1.2l.6.2-5 2.5-5.7-.6 5.2-2.6zM769 123l-5.7-.6 5.2-2.6 5.8.6zm6.3-2.5l5.8.6-5.2 2.6-5.7-.6zm-59.6 8.2l-5.7-.6 5.2-2.6 5.8.6zm6.3-2.4l5.8.6-5.2 2.6-5.7-.6zm-13.3 1.8l-5.7-.6 5.2-2.6 5.8.6zm-6.9-.7l-5.7-.6 5.2-2.6 5.8.6zm5.9 1.2l-5.2 2.6-5.7-.6 5.2-2.6zm1.2.1l5.8.6-5.2 2.6-5.7-.6zm6.9.7l5.8.6-5.2 2.6-5.7-.6zm6.9.7l5.8.6-5.2 2.6-5.7-.6zm1-.5l5.3-2.6 5.8.6-5.2 2.6zm-.7-3.8l5.2-2.6 5.8.6-5.2 2.6zm-1.2-.1l-5.7-.6 5.2-2.6 5.8.6zm-7-.7l-5.7-.6 5.2-2.6 5.8.6zm-6.9-.7l-5.7-.6 5.2-2.6 5.8.6zm-6.9-.7l-5.8-.6 5.2-2.6 5.8.6zm-6.9-.7l-5.7-.6 5.2-2.6 5.8.6zm5.9 1.2l-5.2 2.6-5.7-.6 5.2-2.6zm.7 3.8l-5.2 2.6-5.7-.6 5.2-2.6zm-6.2 3.1l-5.2 2.6-5.7-.6 5.2-2.6zm1.2.1l5.8.6-5.2 2.6-5.7-.6zm6.9.7l5.8.6-5.2 2.6-5.7-.6zm6.4 4.4l-5.2 2.6-5.7-.6 5.2-2.6zm-4.7-1.1l5.2-2.6 5.8.6-5.2 2.6zm12.1-1.9l5.8.6-5.2 2.6-5.7-.6zm6.9.7l5.8.6-5.2 2.6-5.7-.6zm1-.5l5.2-2.6 5.8.6-5.2 2.5zm6.2-3.1l5.2-2.6 5.8.6-5.2 2.6zm-.7-3.8l5.2-2.6 5.8.6-5.2 2.6zm-.7-3.8l5.2-2.6 5.8.6-5.2 2.6zm-1.2-.1l-5.7-.6 5.2-2.6 5.8.6zm-6.9-.7l-5.7-.6 5.2-2.6 5.8.6zm-6.9-.7l-5.7-.6 5.2-2.6 5.8.6zm-6.9-.7l-5.7-.6 5.2-2.6 5.8.6zm-6.9-.7l-5.7-.6 5.2-2.6 5.8.6zm-6.9-.7l-5.7-.6 5.2-2.6 5.8.6zm-1 .5l-5.2 2.6-5.7-.6 5.2-2.6zm.7 3.8L688 126l-5.7-.6 5.2-2.6zm.7 3.8l-5.2 2.6-5.7-.6 5.2-2.6zm-6.2 3.1l-5.2 2.6-5.7-.6 5.2-2.6zm.7 3.8l-5.2 2.6-5.7-.6 5.2-2.6zm1.2.1l5.8.6-5.2 2.6-5.7-.6zm6.9.7l5.8.6-5.2 2.6-5.7-.6zm6.4 4.4l-5.2 2.6-5.7-.6 5.2-2.6zm1.2.1l5.8.6-5.2 2.6-5.7-.6zm1-.5l5.2-2.6 5.8.6-5.2 2.6zm12.1-1.9l5.8.6-5.2 2.6-5.7-.6zm6.9.7l5.8.6-5.2 2.6-5.7-.6zm1-.5l5.2-2.6 5.8.6-5.2 2.6zm6.2-3.1l5.2-2.6 5.8.6-5.2 2.6zm6.2-3.1l5.2-2.6 5.8.6-5.2 2.6zm-.7-3.8l5.2-2.6 5.8.6-5.2 2.6zm6.2-3.1l5.2-2.6 5.8.6-5.2 2.6zm-.9-.1l-5.7-.6 5.2-2.6 5.8.6zm-6.4-4.4l5.2-2.6 5.8.6-5.2 2.6zm-1.2-.1l-5.7-.6 5.2-2.6 5.8.6zm-6.9-.7l-5.7-.6 5.2-2.6 5.8.6zm-6.9-.7l-5.7-.6 5.2-2.6 5.8.6zm-6.9-.7l-5.7-.6 5.2-2.6 5.8.6zm-6.9-.7l-5.7-.6 5.2-2.6 5.8.6zm-6.9-.7l-5.7-.6 5.2-2.6 5.8.6zm-6.4-4.4l5.1-2.6 5.8.6-5.2 2.6zm-.7-3.8l5.2-2.6 5.8.6-5.2 2.6zm4.7 1.1l-5.2 2.6-5.7-.6 5.2-2.6zm.7 3.8l-5.2 2.6-5.7-.6 5.2-2.6zm-6.2 3.1l-5.2 2.6-5.7-.6 5.2-2.6zm-6.2 3.1l-5.2 2.6-5.7-.6 5.2-2.6zm.7 3.8l-5.2 2.6-5.7-.6 5.2-2.6zm.7 3.8l-5.2 2.6-5.8-.5 5.2-2.6zm-6.2 3.1l-5.2 2.6-5.7-.6 4.9-2.6zm.7 3.8l-5.2 2.6-5.7-.6 5.2-2.6zm.7 3.8l-5.2 2.6-5.7-.6 5.2-2.6zm1.2.1l5.8.6-5.2 2.6-5.7-.6zm6.9.7l5.8.6-5.2 2.6-5.7-.6zm6.4 4.4l-5.2 2.6-5.7-.6 5.2-2.6zm1.2.1l5.8.6-5.2 2.6-5.7-.6zm6.9.7l5.8.6-5.2 2.6-5.7-.6zm1-.5l5.2-2.6 5.8.6-5.2 2.6zm12.1-1.9l5.8.6-5.2 2.6-5.7-.6zm6.9.7l5.8.6-5.2 2.6-5.7-.6zm1-.5l5.2-2.6 5.8.6-5.2 2.6zm6.2-3.1l5.2-2.6 5.7.7-5.2 2.6zm6.2-3.1l5.2-2.6 5.8.6-5.2 2.6zm6.2-3.1l5.2-2.6 5.8.6-5.2 2.6zm-.7-3.8l5.2-2.6 5.8.6-5.2 2.6zm6.2-3.1l5.2-2.6 5.8.6-5.2 2.6zm6.2-3.1l5.2-2.6 5.8.6-5.2 2.6zm-1.2-.1l-5.7-.6 5.2-2.6 5.8.6zm-6.9-.7l-5.7-.6 5.2-2.6 5.8.6zm-6.4-4.4l5.2-2.6 5.8.6-5.2 2.6zm-1.2-.1l-5.7-.6 5.2-2.6 5.8.6zm-6.9-.7l-5.7-.6 5.2-2.6 5.8.6zm-6.9-.7l-5.7-.6 5.2-2.6 5.8.6zm-6.9-.7l-5.7-.6 5.2-2.6 5.8.6zm-6.9-.7l-5.7-.6 5.2-2.6 5.8.6zm-6.9-.6l-5.7-.6 5.2-2.6 5.8.6zm-6.4-4.4l5.2-2.6 5.8.6-5.2 2.6zm-.7-3.8l5.2-2.6 5.8.6-5.2 2.6zm-1.2-.1l-5.8-.7 5.2-2.6 5.8.6zm-6.4-4.4l5.2-2.6 5.8.6-5.2 2.6zm4.7 1.1l-5.2 2.6-5.7-.6 5.2-2.6zm.7 3.8l-5.2 2.6-5.7-.6 5.2-2.6zm-6.2 3.1l-5.2 2.6-5.7-.6 5.2-2.6zm.7 3.8l-5.2 2.6-5.7-.6 5.2-2.6zm-6.2 3.1l-5.2 2.6-5.7-.6 5.2-2.6zm-6.2 3.1l-5.2 2.6-5.7-.6 5.2-2.6zm.7 3.8l-5.2 2.6-5.7-.6 5.2-2.6zm.7 3.8l-5.2 2.6-5.7-.6 5.2-2.6zm-6.2 3.1l-5.2 2.6-5.7-.6 5.2-2.6zm.7 3.8l-5.2 2.6-5.7-.6 5.2-2.6zm.7 3.8l-5.2 2.6-5.7-.6 5.2-2.6zm.7 3.8L671 143l-5.7-.6 5.2-2.6zm1.2.1l5.8.6-5.2 2.6-5.7-.6zm6.9.7l5.8.6-5.2 2.6-5.7-.6zm6.4 4.4l-5.2 2.6-5.7-.6 5.2-2.6zm1.2.1l5.8.6-5.2 2.6-5.7-.6zm6.9.7l5.8.6-5.2 2.6-5.7-.6zm6.9.7l5.8.6-5.2 2.6-5.7-.6zm1-.5l5.2-2.6 5.8.6-5.2 2.6zm12.1-1.9l5.8.6-5.2 2.6-5.7-.6zm6.9.7l5.8.6-5.2 2.6-5.7-.6zm1-.5l5.2-2.6 5.8.6-5.2 2.6zm6.2-3.1l5.2-2.6 5.8.6-5.2 2.6zm6.2-3.1l5.2-2.6 5.8.6-5.2 2.6zm6.2-3.1l5.2-2.6 5.8.6-5.1 2.6zm6.2-3.1l5.2-2.6 5.8.6-5.2 2.5zm-.7-3.8l5.2-2.6 5.8.6-5.2 2.6zm6.2-3.1l5.2-2.6 5.8.6-5.2 2.6zm5.5-6.9l4-2 6 .5-4.2 2.1zm-1.2-.1l-5.7-.6 4.6-2.3 5.2.9zm-6.9-.7l-5.7-.6 5.2-2.6 3.4.3 2 .4zm-6.4-4.4l1.1-.5 3.8 1zm-1.2-.1l-5.7-.6 2.8-1.4 4.3 1.3zm-3.8-2.2l-3.1 1.5-5.7-.6 4.6-2.3 4.2 1.4zm-16.9.1l-5.7-.6 5.2-2.6 5.8.6zm-6.9-.7l-5.7-.6 5.2-2.6 5.8.6zm-6.9-.7l-5.7-.6 5.2-2.6 5.8.6zm-6.4-4.4l5.2-2.6 5.8.6-5.2 2.6zm6.2-3.1l2.3-1.1-.8-.3-2.6 1.3-5.7-.6 4.2-2.1 9.3 3.1h-.2l-.6.3zm-8.1-.8l-5.7-.6 5.2-2.6 3 .3 2.1.6zm4.5-2.2l.8.3zm-5.6-1.6l1.6.4zm1.9.5l1.6.5zm-7.2-1.1l1-.5-1-.2-1.1.6-5.7-.6 1.2-.6h-1a42.7 42.7 0 0 1 11.9 1.8zm-2.2.4l-5.2 2.6-5.7-.6 5.2-2.6zm-12.1 1.9l-1.8-.2a24.5 24.5 0 0 1 5.4-2.6l1.5.2zm-1 .5l-4.8 2.4a28.1 28.1 0 0 1 3.2-2.6zm-1.6-.2l.8-.5zm2.8.3l5.8.6-5.2 2.6-5.7-.6zm6.4 4.4l-5.2 2.6-5.7-.6 5.2-2.6zm-6.2 3.1l-5.2 2.6-5.7-.6 5.2-2.6zm.7 3.8l-5.2 2.6-5.7-.6 5.2-2.6zm-12.5 6.2l-5.2 2.6h-.5l-.5 1.2c.5-1.4 1.1-2.8 1.7-4.2zm-4.4-.5l.3-.6zm-.6 3.7l5.8.6-5.2 2.6-2.5-.3-.2.6 1.7.2-2 1v.3l1.5-4.5zm.7 3.8l5.8.6-5.2 2.6-4.3-.4-.2.6.5-1.6zm-.5 3.7l-4.2 2.1-.3 1.2 1-3.6zm.7 3.8l-5.2 2.6h-.7l-.3 1.3 1-4.3zm-5.1 3.2l5.8.6-5.2 2.6-2.2-.2v.6l.6-3zm-.6 3.7l-1.5.7v.7l.3-1.6zm1.2.1l5.8.6-5.2 2.6-3.6-.4.3-1.4zm-.5 3.7l-3 1.5.3-1.8zm8.1.8l5.8.6-5.2 2.6-5.7-.6zm6.9.7l5.8.6-5.2 2.6-5.7-.6zm6.4 4.4l-16.6 8.3-3.8-1.5 14.7-7.4zm-15.8 8.6l17-8.4 5.8.6-18.4 9.2.9.2-6-1.8zm23.9-7.7l5.8.6-19.8 9.8-4.7-1.1zm-13 10.6l20-9.9 5.8.6-20.8 10.4 1 .2-6.9-1.4zm26.9-9.2l5.8.6-21.6 10.7-5.1-.9zm1-.5l5.2-2.6 5.8.6-5.2 2.6zm12.1-1.9l5.8.6-5.2 2.6-5.7-.6zm6.9.7l62.3 6.4v-.6l-61.3-6.2 5.2-2.6 56.2 5.7c0 2.3-.1 4.6-.2 6.8l-67.4-7zm7.3-3.6l5.2-2.6 50 5.1v-.6l-49-5 5.2-2.6 43.7 4.5v-.6l-42.7-4.4 5.2-2.6 37.3 3.8c.2 3.5.3 7.1.2 10.6zm18.7-9.3l5.2-2.6 30.8 3.1q.1 1.5.3 3.1zm6.2-3.1l5.2-2.6 24.1 2.5q.3 1.7.4 3.5v-.3zm-.7-3.8l5.2-2.6 5.8.6-5.2 2.6zm6.2-3.1l5.2-2.6 5.8.6-5.2 2.6zm12.1-1.9l9.9 1c.3 1 .6 2.1.9 3.2l-16-1.6zm11 4.8a2.8 2.8 0 0 0-.2-.6 3.2 3.2 0 0 0 .1.6zm-1.1-3.8l-.2-.7a3.1 3.1 0 0 0 .2.7zm-.2-.7l-8.6-.9 5.2-2.6 1.9.2-.4-.7a18.7 18.7 0 0 1 1.9 3.9zm-2.4-4l.3-.2v.2zm-.7-1.4l1 1.2-.4-.5-1.1.6-5.7-.6 4.4-2.2a7.5 7.5 0 0 1 1.8 1.5zm-5.5-2.3h1.3a6.3 6.3 0 0 1 2.4.7l-.7-.3-4.8 2.4-5.7-.6 4.4-2.2h3.3zm-44.1-9.3l-.7.3-5.7-.6 2.4-1.2-.8-.3-2.7 1.4-5.7-.6 4.4-2.2-.8-.3-4.8 2.4-5.7-.6 5.2-2.6 4.5.5-2.5-.9 4.8 1.7zM689 96l1.9-.2h-.7l-.8.4h-.4zm-.7.2l-1.6.5 1.6-.4zm-11 6.1l-1.5 1.4 1.4-1.4zm-1.5 1.4l1.2-.6 5.8.6-5.2 2.6-3.7-.4-.5.6 3.1.3-5.1 2.6a38.6 38.6 0 0 1 4.4-5.6zm-4.4 5.7l-.6 1zm-.6 1l.7-.4 5.8.6-5.2 2.6-2.7-.3-.3.6 1.7-3zm-12.1 40.3l.2-1.2 5.7-2.8 5.8.6-10.8 5.4-.2-.2a2.1 2.1 0 0 1-.6-1.7zm.8 1.9l.5.5-.5-.4zm.5.5l11.5-5.7 5.8.6-14.3 7 .7.4a15.7 15.7 0 0 1-3.7-2.3zm30.3 9.1l1 .2zm97.1 8.2c-6.7-.2-32.4-1.2-59-3.6-15.5-1.4-27.6-2.9-37-4.4l21.6-10.8 5.8.6-22.2 11 1.1.2 22.3-11.1 68.4 7c-.2 4.3-.6 8.2-1 11.2zm.3-37.4a4.2 4.2 0 0 0-.1-.6v.6zm-.1-.6l-23-2.3 5.2-2.6 17.2 1.8c.2 1 .4 2.1.6 3.2zM263.7 4.4h-.9c-9.7 0-17.6 1.5-17.6 3.2v120.2h18.5z"
            fill="#d1d1da"></path>
        <path d="M257.5 4.6l-2.3.2v179.3h2.3z" fill="#c1c2ce"></path>
        <path d="M286.9 65.7l3.7-4.2V39.3h-3.7l3.7-4.2V7.7c0-1.8-7.9-3.2-17.6-3.2h-.9v179.6h18.5V65.7z" fill="#d1d1da"></path>
        <path fill="#babac8" d="M240.4 35.8h17.1l-.1 148.3h-35.8l18.8-148.3z"></path>
        <path fill="#d8d9e0" d="M277.5 15.2h13.1v4.31h-13.1zm0 6.6h13.1v4.31h-13.1zm0 6.6h13.1v4.31h-13.1zm13.1 6.6h-13.1v4.3h9.4l3.7-4.2V35zm0 26.4h-13.1v4.3h9.4l3.7-4.2v-.1zm-13.1-19.8h13.1v4.31h-13.1zm0 6.6h13.1v4.31h-13.1zm0 6.6h13.1v4.31h-13.1zm0 13.2h13.1v4.31h-13.1zm0 6.6h13.1v4.31h-13.1zm0 6.6h13.1v4.31h-13.1zm0 6.6h13.1v4.31h-13.1zm0 6.6h13.1v4.31h-13.1zm0 6.6h13.1v4.31h-13.1zm0 6.6h13.1v4.31h-13.1zm0 6.7h13.1v4.31h-13.1zm0 6.5h13.1v4.31h-13.1zm0 6.7h13.1v4.31h-13.1zm0 6.6h13.1v4.31h-13.1zm0 6.5h13.1v4.31h-13.1zm0 6.7h13.1v4.31h-13.1zm0 6.6h13.1v4.31h-13.1z"></path>
        <path fill="#c9c9d4" d="M257.4 0h14.7v184.13h-14.7z"></path>
        <path d="M274.4 4.4h-2.3v179.7h2.3z" fill="#c1c2ce"></path>
        <path fill="#d1d1da" d="M262.9 15.2h4.8v4.31h-4.8zm0 6.6h4.8v4.31h-4.8zm0 6.6h4.8v4.31h-4.8zm0 6.6h4.8v4.31h-4.8zm0 6.6h4.8v4.31h-4.8zm0 6.6h4.8v4.31h-4.8zm0 6.6h4.8v4.31h-4.8zm0 6.6h4.8v4.31h-4.8zm0 6.6h4.8v4.31h-4.8zm0 6.6h4.8v4.31h-4.8zm0 6.6h4.8v4.31h-4.8zm0 6.6h4.8v4.31h-4.8zm0 6.6h4.8v4.31h-4.8zm0 6.7h4.8v4.31h-4.8zm0 6.6h4.8v4.31h-4.8zm0 6.6h4.8v4.31h-4.8zm0 6.5h4.8v4.31h-4.8zm0 6.6h4.8v4.31h-4.8zm0 6.7h4.8v4.31h-4.8zm0 6.6h4.8v4.31h-4.8zm0 6.6h4.8v4.31h-4.8zm0 6.6h4.8v4.31h-4.8z"></path>
        <path fill="#c1c2ce" d="M243.6 94.4v4.4H230l.5-4.4h13.1zm0-6.6v4.4h-12.8l.5-4.4h12.3zm-14.7 19.9h14.7v4.3h-15.2l.5-4.3zm14.7-6.7v4.3h-14.4l.5-4.3h13.9zm0-19.8v4.3h-12l.6-4.3h11.4zm0-33v4.3h-7.9l.5-4.3h7.4zm0 13.2v4.3h-9.5l.5-4.3h9zm0-6.6v4.3h-8.7l.5-4.3h8.2zm0 13.2v4.3h-10.3l.5-4.3h9.8zm0 6.6v4.3h-11.2l.6-4.3h10.6zm0 66.1v4.3h-19.3l.5-4.3h18.8zm0-6.6v4.3h-18.5l.6-4.3h17.9zm-20.4 19.8h20.4v4.3h-20.9l.5-4.3zm20.4-6.6v4.3h-20.1l.5-4.3h19.6zm0-19.8v4.3h-17.7l.6-4.3h17.1zm0-13.2v4.3h-16l.5-4.3h15.5zm0 6.5v4.4h-16.8l.5-4.4h16.3z"></path>
        <path d="M548 122.3s-10.7-7.4-48.9-7.4-48.9 7.4-48.9 7.4-10.1 17.3-10.1 21.5 2 28.5 2 28.5h114s2-24.4 2-28.5-10.1-21.5-10.1-21.5z"
            fill="#d1d1da"></path>
        <path fill="#c9c9d4" d="M518.8 133.9h11.5l3.5 3.5-3.5 3.5h-11.5l-3.5-3.5 3.5-3.5zm18.1 4.7h10l3 3-3 3h-10l-3.1-3 3.1-3zm-29.4 1.7h7.3l2.1 2.1-2.1 2.2h-7.3l-2.1-2.2 2.1-2.1zm-46.3 5.3h7.2l2.2 2.2-2.2 2.2h-7.2l-2.2-2.2 2.2-2.2zm-11.2-4h7.3l2.1 2.2-2.1 2.2H450l-2.1-2.2 2.1-2.2zm21.3-5.2h7.2l2.2 2.2-2.2 2.2h-7.2l-2.2-2.2 2.2-2.2zm41-7.3h4.9l1.5 1.5-1.5 1.5h-4.9l-1.5-1.5 1.5-1.5zm-48.2 4.8h4.9l1.5 1.5-1.5 1.5h-4.9l-1.5-1.5 1.5-1.5zm48.8 20.2h-31.3l-14 18.2h59.3l-14-18.2z"></path>
        <path fill="#c1c2ce" d="M887.8 22.1v-3.7l-1.6-1.2-1.5 1.2v3.7l-1.6 1V37h6.2V23.1l-1.5-1z"></path>
        <path d="M886.2 21.6c-6.9 0-12.5 12.1-12.5 19v15.3h25V40.6c0-6.9-5.6-19-12.5-19z" fill="#c9c9d4"></path>
        <path d="M886.2 21.6c-6.9 0-12.5 12.1-12.5 19v15.3h6.4V40.6c0-6.9 2.7-19 6.1-19zm0 0c3.4 0 6.1 12.1 6.1 19v15.3h6.4V40.6c0-6.9-5.6-19-12.5-19zm2.5 37.6h-14.9v35.6h24.8V59.2h-9.9zm-55.4 45.5h105.9v63.4H833.3z"
            fill="#c1c2ce"></path>
        <path d="M942.1 117.9h-3v-13.2c0-.4-.5-.7-1.1-.7s-1.1.3-1.1.7v3.2h-8.2v-3.2c0-.4-.5-.7-1.1-.7s-1.1.3-1.1.7v3.2h-8.2v-3.2c0-.4-.5-.7-1.1-.7s-1.1.3-1.1.7v3.2H908v-3.2c0-.4-.5-.7-1.1-.7s-1.1.3-1.1.7v3.2h-1.5V94.8h-4.5V63.2A2.2 2.2 0 0 1 902 61h.8V46.5c0-.4-.5-.7-1.1-.7s-1.1.3-1.1.7v1.9h-2.3v-1.9c0-.4-.5-.7-1.1-.7s-1.1.3-1.1.7v1.9h-2.2v-1.9c0-.4-.5-.7-1.1-.7s-1.1.3-1.1.7v1.9h-2.3v-1.9c0-.4-.5-.7-1.1-.7s-1.1.3-1.1.7v1.9h-2.3v-1.9c0-.4-.5-.7-1.1-.7s-1.1.3-1.1.7v1.9h-2.3v-1.9c0-.4-.5-.7-1.1-.7s-1.1.3-1.1.7v1.9h-2.3v-1.9c0-.4-.5-.7-1.1-.7s-1.1.3-1.1.7v1.9h-1.4v-1.9c0-.4-.5-.7-1.1-.7s-1.1.3-1.1.7v14.6h1a2.2 2.2 0 0 1 1.9 2.2v31.5h-4.5v13.1H867v-3.2c0-.4-.5-.7-1.1-.7s-1.1.3-1.1.7v3.2h-8.2v-3.2c0-.4-.5-.7-1.1-.7s-1.1.3-1.1.7v3.2h-8.2v-3.2c0-.4-.5-.7-1.1-.7s-1.1.3-1.1.7v3.2h-8.2v-3.2c0-.4-.5-.7-1.1-.7s-1.1.3-1.1.7V118h-5v2.6h2.4a3 3 0 0 1 2.6 3v59.7h2.9v-59.8a3 3 0 0 1 2.6-3h3.3a3 3 0 0 1 2.6 3v59.7h2.9v-59.7a3 3 0 0 1 2.6-3h3.3a3 3 0 0 1 2.6 3v59.7h2.9v-59.7a3 3 0 0 1 2.6-3h3.1a3 3 0 0 1 2.6 3v59.7h2.9v-59.7a3 3 0 0 1 2.6-3h3.3a3 3 0 0 1 2.6 3v59.7h3v-59.7a3 3 0 0 1 2.6-3h3.3a3 3 0 0 1 2.6 3v59.7h2.9v-59.7a3 3 0 0 1 2.8-3h3a3 3 0 0 1 2.8 3v59.7h2.9v-59.7a3 3 0 0 1 2.8-3h3a3 3 0 0 1 2.8 3v59.7h2.9v-59.7a3 3 0 0 1 2.8-3h3a3 3 0 0 1 2.8 3v59.7h2.9v-59.7a3 3 0 0 1 2.8-3h3a3 3 0 0 1 2.8 3v59.7h2.9v-59.7a3 3 0 0 1 2.8-3h2.3v-2.6zm-50.6-54.7a2.2 2.2 0 0 1 2.1-2.2h2a2.2 2.2 0 0 1 2.1 2.2v31.6h-6.2zm-8.4 0A2.2 2.2 0 0 1 885 61h2.4a2.2 2.2 0 0 1 1.9 2.2v31.6h-6.2zm-8.4 0a2.2 2.2 0 0 1 1.9-2.2h2.4a2.2 2.2 0 0 1 2 2.2v31.6h-6.3z"
            fill="#d1d1da"></path>
        <circle cx="886.2" cy="55.7" r="3.7" fill="#c9c9d4"></circle>
        <path fill="#656684" d="M833.3 183.1h2.9v2.17h-2.9z"></path>
        <path d="M833.3 123.4a3 3 0 0 0-2.6-3h-2.4v2.2h2.4a3 3 0 0 1 2.6 3zm11.4 0a3 3 0 0 0-2.6-3h-3.2a3 3 0 0 0-2.6 3v2.2a3 3 0 0 1 2.6-3h3.3a3 3 0 0 1 2.6 3z"
            fill="#c9c9d4"></path>
        <path fill="#656684" d="M844.7 183.1h2.9v2.17h-2.9z"></path>
        <path d="M867.6 123.4a3 3 0 0 0-2.6-3h-3.2a3 3 0 0 0-2.6 3v2.2a3 3 0 0 1 2.6-3h3.2a3 3 0 0 1 2.6 3zm-11.4 0a3 3 0 0 0-2.6-3h-3.2a3 3 0 0 0-2.6 3v2.2a3 3 0 0 1 2.6-3h3.3a3 3 0 0 1 2.6 3z"
            fill="#c9c9d4"></path>
        <path fill="#656684" d="M856.2 183.1h2.9v2.17h-2.9z"></path>
        <path d="M879 61h-2.4a2.2 2.2 0 0 0-1.9 2.2v2.2a2.2 2.2 0 0 1 1.9-2.2h2.4a2.2 2.2 0 0 1 2 2.2v-2.2a2.2 2.2 0 0 0-2-2.2z"
            fill="#c9c9d4"></path>
        <rect x="939.1" y="109.9" height="2.17" fill="#656684"></rect>
        <path d="M869.6 63.2h1a2.2 2.2 0 0 1 1.9 2.2v-2.2a2.2 2.2 0 0 0-1.9-2.2h-1v-1.9 2.2zm17.8-2.2H885a2.2 2.2 0 0 0-1.9 2.2v2.2a2.2 2.2 0 0 1 1.9-2.2h2.4a2.2 2.2 0 0 1 1.9 2.2v-2.2a2.2 2.2 0 0 0-1.9-2.2zm12.5 2.2v2.2a2.2 2.2 0 0 1 2.1-2.2h.8v-4.1V61h-.8a2.2 2.2 0 0 0-2.1 2.2zm-4.3-2.2h-2a2.2 2.2 0 0 0-2.1 2.2v2.2a2.2 2.2 0 0 1 2.1-2.2h2a2.2 2.2 0 0 1 2.1 2.2v-2.2a2.2 2.2 0 0 0-2.1-2.2z"
            fill="#c9c9d4"></path>
        <path fill="#656684" d="M913.3 183.1h2.9v2.17h-2.9zm11.5 0h2.9v2.17h-2.9z"></path>
        <path d="M936.2 123.4a3 3 0 0 0-2.7-3h-3a3 3 0 0 0-2.7 3v2.2a3 3 0 0 1 2.8-3h3a3 3 0 0 1 2.8 3zm-11.4 0a3 3 0 0 0-2.7-3h-3a3 3 0 0 0-2.7 3v2.2a3 3 0 0 1 2.8-3h3a3 3 0 0 1 2.8 3z"
            fill="#c9c9d4"></path>
        <path fill="#656684" d="M936.2 183.1h2.9v2.17h-2.9z"></path>
        <path d="M913.3 123.4a3 3 0 0 0-2.7-3h-3a3 3 0 0 0-2.7 3v2.2a3 3 0 0 1 2.8-3h3a3 3 0 0 1 2.8 3z" fill="#c9c9d4"></path>
        <path fill="#656684" d="M867.6 183.1h2.9v2.17h-2.9z"></path>
        <path d="M939.1 123.4v2.2a3 3 0 0 1 2.8-3h2.3v-2.2h-2.3a3 3 0 0 0-2.8 3z" fill="#c9c9d4"></path>
        <path fill="#656684" d="M879 183.1h2.9v2.17H879zm22.9 0h2.9v2.17h-2.9z"></path>
        <path d="M890.5 123.4a3 3 0 0 0-2.6-3h-3.2a3 3 0 0 0-2.6 3v2.2a3 3 0 0 1 2.6-3h3.3a3 3 0 0 1 2.6 3zm-11.5 0a3 3 0 0 0-2.6-3h-3.2a3 3 0 0 0-2.6 3v2.2a3 3 0 0 1 2.6-3h3.3a3 3 0 0 1 2.6 3zm22.9 0a3 3 0 0 0-2.7-3h-3a3 3 0 0 0-2.7 3v2.2a3 3 0 0 1 2.8-3h3a3 3 0 0 1 2.8 3z"
            fill="#c9c9d4"></path>
        <path fill="#656684" d="M890.5 183.1h2.9v2.17h-2.9z"></path>
        <path d="M975 136.9a16 16 0 0 0-12.5 6v-6h-3.6v25.9l-2.5-2.5-2.5 2.5-2.5-2.5-2.5 2.5-2.5-2.5-2.5 2.5-2.5-2.5-2.4 2.4-2.4-2.4-2.5 2.5-2.5-2.5-2.5 2.5-2.5-2.5-2.5 2.5-2.4-2.4v-7.6L909 148l-13.6 5-13.6-5-12.7 4.9v7.6l-2.4 2.4-2.5-2.5-2.5 2.5-2.5-2.5-2.5 2.5-2.5-2.5-2.4 2.4-2.4-2.4-2.5 2.5-2.5-2.5-2.5 2.5-2.5-2.5-2.5 2.5-2.5-2.5-2.5 2.5v-26h-3.6v6a16.1 16.1 0 0 0-28.6 9.9h-3.6l-1.8 1.8-19.7-19.7v-8.4h-7.2v-7.2l-7.2 7.2h-22.9v16a17 17 0 0 0-12.5-5.8 16.1 16.1 0 0 0-16.1 15.9v.2h-3.6l-1.8 1.8-19.8-19.6-19.8 19.8-1.7-1.8h-3.6v-.2a16.1 16.1 0 0 0-16.1-15.9 17 17 0 0 0-12.5 5.8v-16h-23.1l-7.2-7.2v7.2h-7.2v8.4l-19.7 19.6-1.6-1.7h-3.6v-.2a16.1 16.1 0 0 0-28.6-9.9v-6h-3.6v25.9l-2.5-2.5-2.5 2.5-2.5-2.5-2.5 2.5-2.5-2.5-2.5 2.5-2.5-2.5-2.4 2.4-2.4-2.4-2.5 2.5-2.5-2.5-2.5 2.5-2.5-2.5-2.5 2.5-2.4-2.3v-7.1l-16.1-4.3-16.1 4.3v7.1l-2.4 2.4-2.5-2.5-2.5 2.5-2.5-2.5-2.5 2.5-2.5-2.5-2.4 2.4-2.4-2.4-2.5 2.5-2.5-2.5-2.5 2.5-2.5-2.5-2.5 2.5-2.5-2.5-2.5 2.5v-26H425v6a16.1 16.1 0 0 0-28.6 9.9v.2h-3.6l-1.8 1.8-19.7-19.7v-8.4h-7.1v-7.2l-7.1 7.2H334v16a17 17 0 0 0-12.5-5.8 16.1 16.1 0 0 0-16.1 15.9v.2h-3.6l-1.8 1.8-19.7-19.8-19.8 19.8-1.8-1.8h-3.6v-.2a16.1 16.1 0 0 0-16.1-15.9 17 17 0 0 0-12.6 5.8v-16h-23.1l-7.1-7.2v7.2H189v8.4l-19.6 19.6-1.7-1.8h-3.6v-.2a16.1 16.1 0 0 0-28.6-9.9v-6h-3.6v25.9l-2.5-2.5-2.5 2.5-2.5-2.5-2.5 2.5-2.5-2.5-2.5 2.5-2.5-2.5-2.4 2.5-2.4-2.4-2.5 2.5-2.5-2.5-2.5 2.5-2.5-2.5-2.5 2.5-2.4-2.4v-7.6L82 148l-13.6 5-13.6-5-12.7 4.9v7.6l-2.4 2.4-2.5-2.5-2.5 2.5-2.5-2.5-2.5 2.5-2.5-2.5-2.4 2.4-2.4-2.4-2.5 2.5-2.5-2.5-2.5 2.5-2.5-2.5-2.5 2.5-2.5-2.5-2.5 2.5v-26H1.3v6L0 141.5v54.8a36 36 0 0 0 33.6 35.9h912.8a36 36 0 0 0 33.6-35.9v-58.6a16 16 0 0 0-5-.8z"
            fill="#f8be8f"></path>
        <path fill="#f7b279" d="M208.6 131.4h17.9v.55h-17.9zm0 5.3h17.9v.55h-17.9zm0-13h17.9v3.03h-17.9zm0 18.2h17.9v.55h-17.9z"></path>
        <circle cx="239.3" cy="152.5" r="5.6" fill="#f7b279"></circle>
        <path fill="#f7b279" d="M208.6 147.1h17.9v.55h-17.9zm0 5.3h17.9v.55h-17.9zm0 5.2h17.9v.55h-17.9zm0 5.3h17.9v.55h-17.9z"></path>
        <circle cx="321.2" cy="152.5" r="5.6" fill="#f7b279"></circle>
        <path fill="#f7b279" d="M334 136.7h17.9v.55H334zm75.8 21.8h9.4v2.21h-9.4zM334 147.1h17.9v.55H334zm0-15.7h17.9v.55H334zm0 21h17.9v.55H334zm0-28.7h17.9v3.03H334zm75.8 39.2h9.4v2.21h-9.4zm0 4.4h9.4v2.21h-9.4zm0 4.4h9.4v2.21h-9.4zm-147 21.5h1.6l15.9-15.9 15.8 15.9h1.6l-17.4-17.5-17.5 17.5z"></path>
        <path fill="#f7b279" d="M272.5 193.2h1.6l6.2-6.1 6.1 6.1h1.6l-7.7-7.8-7.8 7.8z"></path>
        <path fill="#f7b279" d="M269.3 193.2h1.6l9.4-9.4 9.3 9.4h1.7l-11-11-11 11z"></path>
        <path fill="#f7b279" d="M275.7 193.2h1.7l2.9-2.9 2.8 2.9h1.7l-4.5-4.5-4.6 4.5zm58.3-35.6h17.9v.55H334z"></path>
        <path fill="#f7b279" d="M266 193.2h1.6l12.7-12.6 12.6 12.6h1.6L280.3 179 266 193.2zm68-30.3h17.9v.55H334zm-166.3 69.3h1.7v-77.4l-1.7-1.8v79.2z"></path>
        <path fill="#f7b279" d="M279 193.2h2.5l-1.2-1.3-1.3 1.3z"></path>
        <path d="M300 159.8L280.3 140l-19.8 19.8v-5l-1.8-1.8v79.2h1.8v-39h.6l19.1-19.1 19.1 19.1h.6v39h1.8V153l-1.8 1.8zm0 32.4l-19.8-19.8-19.8 19.8v-1.6l19.8-19.8 19.8 19.8zm0-3.2l-19.8-19.8-19.7 19.8v-1.6l19.8-19.8 19.7 19.8zm0-3.2L280.3 166l-19.8 19.8v-1.6l19.8-19.8 19.7 19.7zm0-3.2l-19.8-19.8-19.8 19.8V181l19.8-19.8 19.8 19.7zm0-3.2l-19.8-19.8-19.8 19.8v-1.6l19.8-19.8 19.8 19.6zm0-3.2l-19.8-19.8-19.7 19.6v-1.6l19.8-19.8 19.7 19.8zm0-3.2l-19.7-20-19.8 19.8v-1.6l19.8-19.8 19.7 19.7zm0-3.2L280.2 150l-19.8 19.8v-1.6l19.8-19.8 19.8 19.5zm0-3.2l-19.7-19.7-19.8 19.8v-1.6l19.8-19.8 19.7 19.3zm0-3.2l-19.8-19.8-19.7 19.4v-1.6l19.8-19.8 19.7 19.8zm34-21.5h17.9v.55H334zM14.9 194h2.5v-33.7l-2.5 2.5V194zm-5 0h2.5v-33.7l-2.5 2.5V194zm-5 0h2.5v-33.7l-2.5 2.5V194zm15 0h2.5v-33.7l-2.5 2.5V194zm39.3-25.1H51a1.4 1.4 0 0 0 0 2.8h8.3a1.4 1.4 0 0 0 0-2.8zM39.8 194h2.3v-33.6l-2.3 2.4V194zm-5 0h2.5v-33.7l-2.5 2.5V194zm-10 0h2.5v-33.7l-2.5 2.5V194zM498 153.4v-3.1l-16.1-4.3-16.1 4.3v3.1l16.1-4.3 16.1 4.3zM29.8 194h2.5v-33.7l-2.5 2.5V194zm938.5-35.5h9.4v2.21h-9.4zm-19.4 73.4v-69.1l-2.5-2.5v71.9zm19.4-77.8h9.4v2.21h-9.4zm0-4.5h9.4v2.21h-9.4zm0 13.3h9.4v2.21h-9.4zm-14.4 68v-68.1l-2.5-2.5v71.2zm5-1.9v-66.2l-2.5-2.5v69.8zm9.4-57.3h9.4v2.21h-9.4zm0-4.4h9.4v2.21h-9.4zm-827-13.2h9.4v2.21h-9.4zM129.4 194h2.5v-31.2l-2.5-2.5V194zm-15 0h2.5v-31.2l-2.5-2.5V194zm26.9-22.3h9.4v2.21h-9.4zM119.4 194h2.5v-31.2l-2.5-2.5V194zm5 0h2.5v-31.2l-2.5-2.5V194zm16.9-26.7h9.4v2.21h-9.4zm-82.1-3.9H51a1.4 1.4 0 0 0 0 2.8h8.3a1.4 1.4 0 0 0 0-2.8zm82.1-4.9h9.4v2.21h-9.4zm0 4.4h9.4v2.21h-9.4zm0-13.3h9.4v2.21h-9.4zm-55.4 19.3h-8.3a1.4 1.4 0 1 0 0 2.8h8.3a1.4 1.4 0 1 0 0-2.8zm8.8-15.5v-2.6l-13.4-3.6-12.9 3.5-12.9-3.5-13.4 3.6v2.6l13.4-3.6 12.9 3.5 12.9-3.5 13.4 3.6zm-8.8 10h-8.3a1.4 1.4 0 1 0 0 2.8h8.3a1.4 1.4 0 1 0 0-2.8zm-26.7-5.5H51a1.4 1.4 0 0 0 0 2.8h8.3a1.4 1.4 0 0 0 0-2.8zm26.7 0h-8.3a1.4 1.4 0 0 0 0 2.8h8.3a1.4 1.4 0 0 0 0-2.8zm18.6 36.1h2.5v-31.2l-2.5-2.5V194zm-5 0h2.5v-31.2l-2.5-2.5V194zm-4.8 0H97v-31.2l-2.3-2.4V194zm14.8 0h2.5v-31.2l-2.5-2.5V194zm281.6 38.2h1.7V153l-1.7 1.8v77.4zm403.3 0h1.7V153l-1.7 1.8v77.4zm37.5 0h2.5v-71.9l-2.5 2.5v69.4zm-18.8-60.5h9.4v2.21h-9.4zm-75.8-48h17.9v3.03h-17.9zm0 7.7h17.9v.55h-17.9zm75.8 27.1h9.4v2.21h-9.4zm0-4.4h9.4v2.21h-9.4zm0-4.5h9.4v2.21h-9.4zm-75.8-12.9h17.9v.55h-17.9zm75.8 26.2h9.4v2.21h-9.4zm0 4.4h9.4v2.21h-9.4zm-75.8-25.4h17.9v.55h-17.9zm-71.2 51.3h1.6l15.8-15.9 15.9 15.9h1.6l-17.5-17.5-17.4 17.5z"
            fill="#f7b279"></path>
        <path fill="#f7b279" d="M669.3 193.2h1.6l12.6-12.6 12.7 12.6h1.6L683.5 179l-14.2 14.2z"></path>
        <circle cx="724.5" cy="152.5" r="5.7" fill="#f7b279"></circle>
        <path d="M703.3 159.8L683.5 140l-19.8 19.8v-5L662 153v79.2h1.8v-39h.7l19.1-19.1 19.1 19.1h.7v39h1.8V153l-1.8 1.8zm0 32.4l-19.8-19.8-19.8 19.8v-1.6l19.8-19.8 19.8 19.8zm0-3.2l-19.8-19.8-19.7 19.8v-1.6l19.8-19.8 19.8 19.8zm0-3.2L683.5 166l-19.8 19.8v-1.6l19.8-19.8 19.8 19.8zm0-3.2l-19.8-19.8-19.8 19.8V181l19.8-19.8 19.8 19.8zm0-3.2l-19.8-19.8-19.8 19.8v-1.6l19.8-19.8 19.8 19.8zm0-3.2l-19.8-19.8-19.7 19.6v-1.6l19.8-19.8 19.8 19.8zm0-3.2l-19.8-20-19.8 19.8v-1.6l19.8-19.8 19.8 19.8zm0-3.2L683.5 150l-19.8 19.8v-1.6l19.8-19.8 19.8 19.8zm0-3.2l-19.8-19.7-19.8 19.8v-1.6l19.8-19.8 19.8 19.8zm0-3.2l-19.8-19.8-19.7 19.4v-1.6l19.8-19.8 19.8 19.8zm34-16.3h17.9v.55h-17.9zm0 5.3h17.9v.55h-17.9zm0 10.5h17.9v.55h-17.9zm0-5.3h17.9v.55h-17.9zm175.5.3h-8.3a1.4 1.4 0 0 0 0 2.8h8.3a1.4 1.4 0 0 0 0-2.8zm8.9-4.5v-2.6l-13.4-3.6-12.9 3.5-12.9-3.5-13.4 3.6v2.6l13.4-3.6 12.9 3.5 12.9-3.5 13.4 3.6zm0 78.8h2.3v-69.4l-2.3-2.4v71.8zm-8.9-68.8h-8.3a1.4 1.4 0 0 0 0 2.8h8.3a1.4 1.4 0 0 0 0-2.8zm0 5.5h-8.3a1.4 1.4 0 0 0 0 2.8h8.3a1.4 1.4 0 0 0 0-2.8z"
            fill="#f7b279"></path>
        <path fill="#f7b279" d="M672.5 193.2h1.7l9.3-9.4 9.4 9.4h1.6l-11-11-11 11zm264 39h2.5v-69.4l-2.5-2.5v71.9zm-10 0h2.5v-69.4l-2.5-2.5v71.9zm14.9 0h2.5v-69.4l-2.5-2.5v71.9zm-9.9 0h2.5v-69.4l-2.5-2.5v71.9zm-84.6 0h2.5v-71.9l-2.5 2.5v69.4zm9.9 0h2.5v-71.9l-2.5 2.5v69.4zm-19.9 0h2.5v-71.9l-2.5 2.5v69.4zm14.9 0h2.5v-71.9l-2.5 2.5v69.4zm-9.9 0h2.5v-71.9l-2.5 2.5v69.4zm24.9 0h2.3v-71.8l-2.3 2.4v69.4zm-5 0h2.5v-71.9l-2.5 2.5v69.4zm24.4-68.8h-8.3a1.4 1.4 0 1 0 0 2.8h8.3a1.4 1.4 0 1 0 0-2.8zm0 5.5h-8.3a1.4 1.4 0 1 0 0 2.8h8.3a1.4 1.4 0 1 0 0-2.8zm0-11h-8.3a1.4 1.4 0 1 0 0 2.8h8.3a1.4 1.4 0 1 0 0-2.8zm-476.4-8.3h9.4v2.21h-9.4zm93 44.4h2.5v-31.2l-2.5-2.5V194zm24.9 0h2.5v-31.2l-2.5-2.5V194zm-37.5-35.8h-16.6a1.4 1.4 0 1 0 0 2.8h16.5a1.4 1.4 0 1 0 0-2.8zm0 5.5h-16.6a1.4 1.4 0 0 0 0 2.8h16.5a1.4 1.4 0 1 0 0-2.8zm17.6 30.3h2.5v-31.2l-2.5-2.5V194zm14.9 0h2.5v-31.2l-2.5-2.5V194zm-32.5-24.8h-16.6a1.4 1.4 0 0 0 0 2.8h16.5a1.4 1.4 0 1 0 0-2.8zm27.5 24.8h2.5v-31.2l-2.5-2.5V194zm-4.9 0h2.5v-31.2l-2.5-2.5V194zm-14.8 0h2.3v-31.2l-2.3-2.4V194zm-64.4 0h2.5v-33.7l-2.5 2.5V194zm-5 0h2.5v-33.7l-2.5 2.5V194zm10 0h2.5v-33.7l-2.5 2.5V194zm24.9 0h2.3v-33.6l-2.3 2.4V194zm-53.7-39.9h9.4v2.21h-9.4zm43.7 39.9h2.4v-33.7l-2.4 2.5V194zm5 0h2.4v-33.7l-2.4 2.5V194zm-10 0h2.4v-33.7l-2.4 2.5V194zm-4.9 0h2.5v-33.7l-2.5 2.5V194zm101-26.7h9.4v2.21h-9.4zm67.3-35.9h17.9v.55h-17.9zm0 10.5h17.9v.55h-17.9zM532.7 194h2.5v-31.2l-2.5-2.5V194zm79.2-41.6h17.9v.55h-17.9zm0-5.3h17.9v.55h-17.9z"></path>
        <path fill="#f7b279" d="M682.3 193.2h2.5l-1.3-1.3-1.2 1.3z"></path>
        <path fill="#f7b279" d="M679 193.2h1.7l2.8-2.9 2.9 2.9h1.6l-4.5-4.5-4.5 4.5z"></path>
        <circle cx="642.6" cy="152.5" r="5.7" fill="#f7b279"></circle>
        <path fill="#f7b279" d="M611.9 123.7h17.9v3.03h-17.9zm0 13h17.9v.55h-17.9zm-67.3 26.2h9.4v2.21h-9.4zm131.2 30.3h1.6l6.1-6.1 6.2 6.1h1.6l-7.8-7.8-7.7 7.8zm-131.2-34.7h9.4v2.21h-9.4zm0 13.2h9.4v2.21h-9.4zm67.3-8.8h17.9v.55h-17.9zM571 232.2h1.7v-77.4L571 153v79.2zm40.9-74.6h17.9v.55h-17.9zm-67.3-8h9.4v2.21h-9.4zm0 4.5h9.4v2.21h-9.4z"></path>
        <path d="M248.3 139.5a24.3 24.3 0 0 0-19 9.1v-9.1h-5.4v39.3l-3.8-3.8-3.8 3.8-3.8-3.8-3.8 3.8-3.7-3.8-3.8 3.8-3.8-3.8-3.8 3.8H186l-2.7 2.7-29.8-29.8v-27.6a27.1 27.1 0 0 0-27.1 27.1v-27.1a27.1 27.1 0 0 0-27.1 27.1v33.3H61.4v-2.7a9.2 9.2 0 1 0-18.4 0v.8l-20.6-10v10h-2.2l-4.3-4.3H0v18a36 36 0 0 0 35.3 36h237.4v-68.7a24.4 24.4 0 0 0-24.4-24.1zm721.4 9.1v-9.1h-5.4v39.3l-3.8-3.8-3.8 3.8-3.8-3.8-3.8 3.8-3.8-3.8-3.8 3.8-3.8-3.8-3.8 3.8h-7.6l-2.7 2.7-29.8-29.8v-27.6a27.1 27.1 0 0 0-27.1 27.1v-27.1a27.1 27.1 0 0 0-27.1 27.1v33.3h-38v-2.7a9.2 9.2 0 0 0-18.4 0v.8l-20.6-10v10h-2.2l-4.3-4.3H725l-4.3 4.3h-2.2v-10l-20.6 10v-.8a9.2 9.2 0 0 0-18.4 0v2.7h-37.9v-33.3a27.1 27.1 0 0 0-27.1-27.1v27.1a27.1 27.1 0 0 0-27.1-27.1v27.6l-29.8 29.8-2.7-2.7h-7.6l-3.8-3.8-3.8 3.8-3.8-3.8-3.8 3.8-3.8-3.8-3.8 3.8-3.8-3.8-3.8 3.8v-39.2h-5.4v9.1a24.4 24.4 0 0 0-43.4 15.1v18.6l-5.5 1V182a9.2 9.2 0 1 0-18.4 0v.8l-20.6-10v10h-4.3l-4.3-4.3h-25.9l-4.3 4.3h-5.3v-10l-20.6 10v-.8a9.2 9.2 0 1 0-18.4 0v2.7h-38v-33.5a27.1 27.1 0 0 0-27.1-27.1v108.2h669.1a36 36 0 0 0 35.5-36v-55.2a24.4 24.4 0 0 0-10.3 7.5z"
            fill="#e8e8ed"></path>
        <circle cx="208.8" cy="206.6" r="1.9" fill="#e0e0e6"></circle>
        <circle cx="201.2" cy="187.3" r="1.9" fill="#e0e0e6"></circle>
        <path fill="#e0e0e6" d="M230.5 194.3h5.8v5.81h-5.8z"></path>
        <circle cx="208.8" cy="216.3" r="1.9" fill="#e0e0e6"></circle>
        <path fill="#e0e0e6" d="M230.5 175.5h5.8v5.81h-5.8zm9.9 18.8h5.8v5.81h-5.8zm0 18.4h5.8v5.81h-5.8zm616.9 1.7v-9.2h-9.2l9.2 9.2z"></path>
        <circle cx="208.8" cy="197" r="1.9" fill="#e0e0e6"></circle>
        <path fill="#e0e0e6" d="M230.5 203.7h5.8v5.81h-5.8z"></path>
        <circle cx="216.4" cy="206.6" r="1.9" fill="#e0e0e6"></circle>
        <path fill="#e0e0e6" d="M240.4 184.9h5.8v5.81h-5.8zm-9.9 27.8h5.8v5.81h-5.8z"></path>
        <circle cx="216.4" cy="216.3" r="1.9" fill="#e0e0e6"></circle>
        <circle cx="208.8" cy="187.3" r="1.9" fill="#e0e0e6"></circle>
        <circle cx="216.4" cy="187.3" r="1.9" fill="#e0e0e6"></circle>
        <circle cx="216.4" cy="197" r="1.9" fill="#e0e0e6"></circle>
        <path fill="#e0e0e6" d="M230.5 166.1h5.8v5.81h-5.8zM354 192.2h-8.4a2.7 2.7 0 0 0 0 5.4h8.4a2.7 2.7 0 0 0 0-5.4zm503.3-4.9v-9.2h-9.2l9.2 9.2zm9.5 45h2.7V126.8l-2.7-2.7v108.2zm-9.5-58.6v-9.2h-9.2l9.2 9.2zm-572.4.1l9.2-9.3h-9.2v9.3zm600.3 40.6v-9.2H876l9.2 9.2zm-600.3-54.2l9.2-9.2h-9.2v9.2zm69.1 39.6h-8.4a2.7 2.7 0 0 0 0 5.4h8.4a2.7 2.7 0 0 0 0-5.4zm-51.5 32.5h37.9v-50.2h-37.9zm27.5-43.4h4.2v8.3H330zm0 15.4h4.2v8.3H330zm-7-15.4h4.2v8.3H323zm0 15.4h4.2v8.3H323zm-7-15.4h4v8.3h-4.2zm0 15.4h4v8.3h-4.2zm-7-15.4h4v8.3h-4.2zm0 15.4h4v8.3h-4.2zm492.8 28h37.9v-50.2h-37.9zm27.5-43.4h4.2v8.3h-4.2zm0 15.4h4.2v8.3h-4.2zm-7-15.4h4.2v8.3h-4.2zm0 15.4h4.2v8.3h-4.2zm-7-15.4h4.2v8.3h-4.2zm0 15.4h4.2v8.3h-4.2zm-7-15.4h4.2v8.3h-4.2zm0 15.4h4.2v8.3h-4.2zM354 215h-8.4a2.7 2.7 0 0 0 0 5.4h8.4a2.7 2.7 0 0 0 0-5.4zm-69.1-27.7l9.2-9.2h-9.2v9.2zm69.1 20.1h-8.4a2.7 2.7 0 0 0 0 5.4h8.4a2.7 2.7 0 0 0 0-5.4z"></path>
        <circle cx="201.2" cy="197" r="1.9" fill="#e0e0e6"></circle>
        <path fill="#e0e0e6" d="M857.3 200.8v-9.2h-9.2l9.2 9.2zm-607-15.9h5.8v5.81h-5.8zm0 9.4h5.8v5.81h-5.8zm0 9.4h5.8v5.81h-5.8zm-9.9-28.2h5.8v5.81h-5.8zm9.9-9.4h5.8v5.81h-5.8zm-9.9 0h5.8v5.81h-5.8zm7.8-19.7a18.3 18.3 0 0 0-17.7 13.9 73.6 73.6 0 0 1 35.5-.1 18.3 18.3 0 0 0-17.8-13.8zm2.1 66.3h5.8v5.81h-5.8zm9.9-9h5.8v5.81h-5.8zm24.7-2.9l9.2-9.2h-9.2v9.2zm-24.7-25.3h5.8v5.81h-5.8zm24.7 38.9l9.2-9.2h-9.2v9.2zm-12.2 17.9h2.7V124.1l-2.7 2.7v105.5zm-12.5-47.4h5.8v5.81h-5.8zm0 9.4h5.8v5.81h-5.8zm597.1-34.1V151h-9.2l9.2 9.2z"></path>
        <circle cx="956.7" cy="216.3" r="1.9" fill="#e0e0e6"></circle>
        <circle cx="949.2" cy="187.3" r="1.9" fill="#e0e0e6"></circle>
        <path fill="#e0e0e6" d="M970.8 203.7h5.8v5.81h-5.8z"></path>
        <circle cx="949.2" cy="216.3" r="1.9" fill="#e0e0e6"></circle>
        <circle cx="949.2" cy="206.6" r="1.9" fill="#e0e0e6"></circle>
        <circle cx="949.2" cy="197" r="1.9" fill="#e0e0e6"></circle>
        <path d="M970.8 218.5h1.4a36 36 0 0 0 3.7-5.8h-5.2z" fill="#e0e0e6"></path>
        <circle cx="956.7" cy="206.6" r="1.9" fill="#e0e0e6"></circle>
        <circle cx="956.7" cy="187.3" r="1.9" fill="#e0e0e6"></circle>
        <circle cx="956.7" cy="197" r="1.9" fill="#e0e0e6"></circle>
        <circle cx="941.6" cy="187.3" r="1.9" fill="#e0e0e6"></circle>
        <circle cx="934" cy="216.3" r="1.9" fill="#e0e0e6"></circle>
        <circle cx="941.6" cy="197" r="1.9" fill="#e0e0e6"></circle>
        <circle cx="934" cy="206.6" r="1.9" fill="#e0e0e6"></circle>
        <path fill="#e0e0e6" d="M893.9 205.4l26.8 26.8h2.4L893.9 203v2.4zm29.8-21.4l-29.8-29.8v2.4l29.8 29.8v2.5l-29.8-29.8v2.4l29.8 29.8v2.5l-29.8-29.9v2.5l29.8 29.8v2.4l-29.8-29.8v2.5l29.8 29.8v2.4l-29.8-29.8v2.4l29.8 29.8v2.5l-29.8-29.8v2.4l29.8 29.8v2.5l-29.8-29.9v2.5l29.8 29.8v2.4l-29.8-29.8v2.5l29.8 29.8v2.4l-29.8-29.8v2.5l29.8 29.7v2.5l-29.8-29.8v2.4l29.8 29.8v-.5 2.5h2.7v-53.5l-2.7 2.7v2.5z"></path>
        <circle cx="941.6" cy="216.3" r="1.9" fill="#e0e0e6"></circle>
        <circle cx="934" cy="197" r="1.9" fill="#e0e0e6"></circle>
        <circle cx="941.6" cy="206.6" r="1.9" fill="#e0e0e6"></circle>
        <circle cx="934" cy="187.3" r="1.9" fill="#e0e0e6"></circle>
        <path fill="#e0e0e6" d="M0 192.7h10.3v1.02H0zm10.3 16.8v-1H2.1l.4 1zm0-2.6v-1h-9l.3 1zm0 5.2v-1H3.2l.5 1zm0 2.6v-1H4.5l.6 1zm0-10.5v-1H.7l.2 1zm0 13.2v-1H6.1l.7 1zm886.3-90.6l-2.7-2.7v27.6l2.7 2.7v-27.6zm-740.4 0l-2.7-2.7v27.6l2.7 2.7v-27.6zM10.3 201.6v-1H.3a6.5 6.5 0 0 0 .1 1zm0-3.6H0a4.7 4.7 0 0 0 .1 1h10.2zm960.5-3.7h5.8v5.81h-5.8zm-960.5 2v-1H0v1h10.3zm960.5-30.2h5.8v5.81h-5.8zM10.3 220v-1H8.1l.9 1zm960.5-44.5h5.8v5.81h-5.8zm0-15.2a65.1 65.1 0 0 1 9.2-1.7v-10a18.3 18.3 0 0 0-9.2 11.7zm-76.9 50l21.9 21.9h2.5l-24.4-24.4v2.5zM0 187.4h10.3v1.02H0zm0-2.6h10.3v1.02H0zm0 5.3h10.3v1.02H0zm144.8-2.8v-9.2h-9.2l9.2 9.2zm8.7 45h2.2l-2.2-2.2v2.2zm-36.6-72.1V151h-9.2l9.2 9.2zm36.6 64.7l7.3 7.3h2.5l-9.8-9.7v2.4zm-8.7-51.2v-9.2h-9.2l9.2 9.2zm8.7 56.1l2.5 2.4h2.4l-4.9-4.9v2.5zm0-9.8l12.2 12.2h2.4l-14.6-14.6v2.4zm-27.1 12.3h2.7V126.8l-2.7-2.7v108.2z"></path>
        <circle cx="201.2" cy="206.6" r="1.9" fill="#e0e0e6"></circle>
        <path fill="#e0e0e6" d="M144.8 214.4v-9.2h-9.2l9.2 9.2zm749.1.8l17 17h2.5l-19.5-19.5v2.5zm-749.1-55V151h-9.2l9.2 9.2z"></path>
        <circle cx="193.6" cy="197" r="1.9" fill="#e0e0e6"></circle>
        <circle cx="193.6" cy="187.3" r="1.9" fill="#e0e0e6"></circle>
        <circle cx="201.2" cy="216.3" r="1.9" fill="#e0e0e6"></circle>
        <circle cx="193.6" cy="206.6" r="1.9" fill="#e0e0e6"></circle>
        <circle cx="193.6" cy="216.3" r="1.9" fill="#e0e0e6"></circle>
        <path fill="#e0e0e6" d="M153.5 210.3l21.9 21.9h2.5l-24.4-24.4v2.5zm0-4.9l26.8 26.8h2.5L153.5 203v2.4zm29.8-21.4l-29.8-29.8v2.4l29.8 29.8v2.5l-29.8-29.8v2.4l29.8 29.8v2.5l-29.8-29.9v2.5l29.8 29.8v2.4l-29.8-29.8v2.5l29.8 29.8v2.4l-29.8-29.8v2.4l29.8 29.8v2.5l-29.8-29.8v2.4l29.8 29.8v2.5l-29.8-29.9v2.5l29.8 29.8v2.4l-29.8-29.8v2.5l29.8 29.8v2.4l-29.8-29.8v2.5l29.8 29.7v2.5l-29.8-29.8v2.4l29.8 29.8v-.5 2.5h2.7v-53.5l-2.7 2.7v2.5zm-29.8 31.2l17.1 17h2.4l-19.5-19.5v2.5zm-8.7-14.4v-9.2h-9.2l9.2 9.2zm-27.9-27.1v-9.2h-9.2l9.2 9.2zm-60.7 18.4h-8.4a2.7 2.7 0 0 0 0 5.4h8.4a2.7 2.7 0 0 0 0-5.4z"></path>
        <circle cx="52.2" cy="182.4" r="6.8" fill="#e0e0e6"></circle>
        <path fill="#e0e0e6" d="M893.9 224.9l7.3 7.3h2.4l-9.7-9.7v2.4zm-837.7-10h-8.4a2.7 2.7 0 0 0 0 5.4h8.4a2.7 2.7 0 0 0 0-5.4zm-33.8 14.7a35.8 35.8 0 0 0 13.3 2.7H43v-49.7l-20.6-10zm13.8-42.9h2.2v2.2h-2.2zm0 4.3h2.2v2.2h-2.2zm0 4.3h2.2v2.2h-2.2zm0 4.3h2.2v2.2h-2.2zm0 4.3h2.2v2.2h-2.2zm0 4.3h2.2v2.2h-2.2zm0 4.3h2.2v2.2h-2.2zm0 4.3h2.2v2.2h-2.2zm0 4.3h2.2v2.2h-2.2zm-4.9-34.7h2.2v2.2h-2.2zm0 4.3h2.2v2.2h-2.2zm0 4.3h2.2v2.2h-2.2zm0 4.3h2.2v2.2h-2.2zm0 4.3h2.2v2.2h-2.2zm0 4.3h2.2v2.2h-2.2zm0 4.3h2.2v2.2h-2.2zm0 4.3h2.2v2.2h-2.2zm0 4.3h2.2v2.2h-2.2zm-4.9-34.7h2.2v2.2h-2.2zm0 4.3h2.2v2.2h-2.2zm0 4.3h2.2v2.2h-2.2zm0 4.3h2.2v2.2h-2.2zm0 4.3h2.2v2.2h-2.2zm0 4.3h2.2v2.2h-2.2zm0 4.3h2.2v2.2h-2.2zm0 4.3h2.2v2.2h-2.2zm0 4.3h2.2v2.2h-2.2zm867.5 9.3l2.4 2.4h2.5l-4.9-4.9v2.5zM56.2 199.7h-8.4a2.7 2.7 0 0 0 0 5.4h8.4a2.7 2.7 0 0 0 0-5.4zm0 7.6h-8.4a2.7 2.7 0 0 0 0 5.4h8.4a2.7 2.7 0 1 0 0-5.4zM893.9 220l12.2 12.2h2.4l-14.6-14.6v2.4zm-777-19.2v-9.2h-9.2l9.2 9.2zm-55.5 31.5h37.9v-50.2H61.4zm27.5-43.4H93v8.3h-4.2zm0 15.4H93v8.3h-4.2zm-7-15.4H86v8.3h-4.2zm0 15.4H86v8.3h-4.2zm-7-15.4H79v8.3h-4.2zm0 15.4H79v8.3h-4.2zm-7-15.4H72v8.3h-4.3zm0 15.4H72v8.3h-4.3zm49 10.1v-9.2h-9.2l9.2 9.2zm0-27.1v-9.2h-9.2l9.2 9.2zm768.3 13.5v-9.2H876l9.2 9.2zm0-40.6V151H876l9.2 9.2zm8.7 72.1h2.1l-2.1-2.2v2.2zm-8.7-58.6v-9.2H876l9.2 9.2zm0 13.6v-9.2H876l9.2 9.2zm-289.2 0l9.3-9.2H596v9.2z"></path>
        <circle cx="547.3" cy="216.3" r="1.9" fill="#e0e0e6"></circle>
        <circle cx="539.7" cy="187.3" r="1.9" fill="#e0e0e6"></circle>
        <circle cx="539.7" cy="197" r="1.9" fill="#e0e0e6"></circle>
        <circle cx="532.1" cy="197" r="1.9" fill="#e0e0e6"></circle>
        <circle cx="539.7" cy="216.3" r="1.9" fill="#e0e0e6"></circle>
        <circle cx="539.7" cy="206.7" r="1.9" fill="#e0e0e6"></circle>
        <circle cx="532.1" cy="187.3" r="1.9" fill="#e0e0e6"></circle>
        <circle cx="547.3" cy="197" r="1.9" fill="#e0e0e6"></circle>
        <circle cx="547.3" cy="206.7" r="1.9" fill="#e0e0e6"></circle>
        <path fill="#e0e0e6" d="M567.3 232.2l20.1-20v-2.5l-22.6 22.5h2.5z"></path>
        <circle cx="547.3" cy="187.3" r="1.9" fill="#e0e0e6"></circle>
        <path fill="#e0e0e6" d="M556.7 232.2h.6l30.1-30.1v-2.5l-30.7 30.7v1.9zm5.6 0l25.1-25.1v-2.5l-27.6 27.6h2.5zm23 0l-.1.1h2.2v-2.6l-2.5 2.5h.4zm-2.9 0l5-5v-2.5l-7.5 7.5h2.5zm-5.1 0l10.1-10v-2.5l-12.6 12.5h2.5zm-5 0l15.1-15v-2.5l-17.6 17.5h2.5zm-67.7-19.5h5.8v5.81h-5.8zm0-9h5.8v5.81h-5.8zm-9.9-37.5h5.8v5.81h-5.8zm9.9 9.3h5.8v5.81h-5.8zm0 18.8h5.8v5.81h-5.8zm-9.9-18.8h5.8v5.81h-5.8zm0 18.8h5.8v5.81h-5.8zm0-9.4h5.8v5.81h-5.8z"></path>
        <circle cx="524.5" cy="206.7" r="1.9" fill="#e0e0e6"></circle>
        <circle cx="524.5" cy="187.3" r="1.9" fill="#e0e0e6"></circle>
        <circle cx="524.5" cy="197" r="1.9" fill="#e0e0e6"></circle>
        <path fill="#e0e0e6" d="M504.6 166.2h5.8v5.81h-5.8z"></path>
        <circle cx="532.1" cy="216.3" r="1.9" fill="#e0e0e6"></circle>
        <path d="M492.7 146.4a18.3 18.3 0 0 0-17.7 13.7 73.6 73.6 0 0 1 35.5.1 18.3 18.3 0 0 0-17.8-13.8z" fill="#e0e0e6"></path>
        <circle cx="524.5" cy="216.3" r="1.9" fill="#e0e0e6"></circle>
        <circle cx="532.1" cy="206.7" r="1.9" fill="#e0e0e6"></circle>
        <path fill="#e0e0e6" d="M556.7 197.7l30.7-30.7v-2.5l-30.7 30.7v2.5z"></path>
        <circle cx="349.7" cy="182.4" r="6.8" fill="#e0e0e6"></circle>
        <path fill="#e0e0e6" d="M624 160.2l9.2-9.2H624v9.2zM729.8 219h20.9v1.02h-20.9zm-173.1 8.8l30.7-30.7v-2.5l-30.7 30.7v2.5zm164 4.5h4.3v-54l-4.3 4.3v49.7zm-96.7-45l9.2-9.2H624v9.2zm0 27.1l9.2-9.2H624v9.2zm0-13.6l9.2-9.2H624v9.2zm0 27.1l9.2-9.2H624v9.2zm69-35.7h-8.4a2.7 2.7 0 0 0 0 5.4h8.4a2.7 2.7 0 0 0 0-5.4z"></path>
        <circle cx="688.7" cy="182.4" r="6.8" fill="#e0e0e6"></circle>
        <path d="M693 199.8h-8.4a2.7 2.7 0 0 0 0 5.4h8.4a2.7 2.7 0 0 0 0-5.4zm4.9 32.5h20.6v-59.6l-20.6 10zm14.4-45.5h2.2v2.2h-2.2zm0 4.3h2.2v2.2h-2.2zm0 4.3h2.2v2.2h-2.2zm0 4.3h2.2v2.2h-2.2zm0 4.3h2.2v2.2h-2.2zm0 4.3h2.2v2.2h-2.2zm0 4.3h2.2v2.2h-2.2zm0 4.3h2.2v2.2h-2.2zm0 4.3h2.2v2.2h-2.2zm-4.9-34.7h2.2v2.2h-2.2zm0 4.3h2.2v2.2h-2.2zm0 4.3h2.2v2.2h-2.2zm0 4.3h2.2v2.2h-2.2zm0 4.3h2.2v2.2h-2.2zm0 4.3h2.2v2.2h-2.2zm0 4.3h2.2v2.2h-2.2zm0 4.3h2.2v2.2h-2.2zm0 4.3h2.2v2.2h-2.2zm-4.9-34.7h2.2v2.2h-2.2zm0 4.3h2.2v2.2h-2.2zm0 4.3h2.2v2.2h-2.2zm0 4.3h2.2v2.2h-2.2zm0 4.3h2.2v2.2h-2.2zm0 4.3h2.2v2.2h-2.2zm0 4.3h2.2v2.2h-2.2zm0 4.3h2.2v2.2h-2.2zm0 4.3h2.2v2.2h-2.2zm-9.5-13.2h-8.4a2.7 2.7 0 0 0 0 5.4h8.4a2.7 2.7 0 0 0 0-5.4zm-51.4 24.9h37.9v-50.2h-37.9zm27.4-43.4h4.2v8.3H669zm0 15.4h4.2v8.3H669zm-7-15.4h4.2v8.3H662zm0 15.4h4.2v8.3H662zm-14.1-15.4h4.1v8.3h-4.2zm0 15.4h4.1v8.3h-4.2zm0 15.4h4.1v8.3h-4.2zM693 215h-8.4a2.7 2.7 0 0 0 0 5.4h8.4a2.7 2.7 0 0 0 0-5.4zm36.8 6.6h20.9v1.02h-20.9zm-118 10.7h2.7V124.1l-2.7 2.7v105.5zm-55.1-24.6l30.7-30.6v-2.5l-30.7 30.6v2.5zm-62 5h5.8v5.81h-5.8zm62 5l30.7-30.6v-2.5l-30.7 30.6v2.5zm0 5l30.7-30.6v-2.5l-30.7 30.6v2.5zm0-30l30.7-30.7v-2.5l-30.7 30.7v2.5zm0 20l30.7-30.6v-2.5l-30.7 30.6v2.5zm0-10l30.7-30.7v-2.5l-30.7 30.7v2.5zm0-15.1l30.7-30.6v-2.5l-30.7 30.6v2.5zm39.3 13.2l9.3-9.2H596v9.2zm0-40.6l9.3-9.2H596v9.2zm0 13.6l9.3-9.3H596v9.3zm-11.3-19.3l2.7-2.7v-27.7l-2.7 2.7v27.7zm11.3 59.9l9.3-9.2H596v9.2zm0 13.5l9.3-9.2H596v9.2zm28-54.1l9.2-9.3H624v9.3zm-229.6 29.4h6.2v1.02h-6.2zm9 15.8h6.2v1.02h-6.2zm-9-31.6h6.2v1.02h-6.2zm9 34.2h6.2v1.02h-6.2zm-9-31.5h6.2v1.02h-6.2zm0 2.6h6.2v1.02h-6.2zm0 7.9h6.2v1.02h-6.2zm0-5.3h6.2v1.02h-6.2zm0-10.5h6.2v1.02h-6.2zm9 21h6.2v1.02h-6.2zm0-5.2h6.2v1.02h-6.2zm0-2.7h6.2v1.02h-6.2zm0 15.8h6.2v1.02h-6.2zm0 2.6h6.2v1.02h-6.2zm0-7.8h6.2v1.02h-6.2zm0 2.6h6.2v1.02h-6.2zm-9 5.2h6.2v1.02h-6.2zm402.2-1.4h-8.4a2.7 2.7 0 0 0 0 5.4h8.4a2.7 2.7 0 0 0 0-5.4zm-33.9 17.4h20.6v-49.7l-20.6-10zm13.8-45.5h2.2v2.2h-2.2zm0 4.3h2.2v2.2h-2.2zm0 4.3h2.2v2.2h-2.2zm0 4.3h2.2v2.2h-2.2zm0 4.3h2.2v2.2h-2.2zm0 4.3h2.2v2.2h-2.2zm0 4.3h2.2v2.2h-2.2zm0 4.3h2.2v2.2h-2.2zm0 4.3h2.2v2.2h-2.2zm-4.9-34.7h2.2v2.2h-2.2zm0 4.3h2.2v2.2h-2.2zm0 4.3h2.2v2.2h-2.2zm0 4.3h2.2v2.2h-2.2zm0 4.3h2.2v2.2h-2.2zm0 4.3h2.2v2.2h-2.2zm0 4.3h2.2v2.2h-2.2zm0 4.3h2.2v2.2h-2.2zm0 4.3h2.2v2.2h-2.2zm-4.9-34.7h2.3v2.2h-2.2zm0 4.3h2.3v2.2h-2.2zm0 4.3h2.3v2.2h-2.2zm0 4.3h2.3v2.2h-2.2zm0 4.3h2.3v2.2h-2.2zm0 4.3h2.3v2.2h-2.2zm0 4.3h2.3v2.2h-2.2zm0 4.3h2.3v2.2h-2.2zm0 4.3h2.3v2.2h-2.2zm29.9-13.3h-8.4a2.7 2.7 0 0 0 0 5.4h8.4a2.7 2.7 0 0 0 0-5.4z"
            fill="#e0e0e6"></path>
        <circle cx="792.5" cy="182.4" r="6.8" fill="#e0e0e6"></circle>
        <path d="M796.6 199.7h-8.4a2.7 2.7 0 0 0 0 5.4h8.4a2.7 2.7 0 0 0 0-5.4zm-437.7 32.6h20.6v-59.6l-20.6 10zm14.4-45.5h2.2v2.2h-2.2zm0 4.3h2.2v2.2h-2.2zm0 4.3h2.2v2.2h-2.2zm0 4.3h2.2v2.2h-2.2zm0 4.3h2.2v2.2h-2.2zm0 4.3h2.2v2.2h-2.2zm0 4.3h2.2v2.2h-2.2zm0 4.3h2.2v2.2h-2.2zm0 4.3h2.2v2.2h-2.2zm-4.9-34.7h2.2v2.2h-2.2zm0 4.3h2.2v2.2h-2.2zm0 4.3h2.2v2.2h-2.2zm0 4.3h2.2v2.2h-2.2zm0 4.3h2.2v2.2h-2.2zm0 4.3h2.2v2.2h-2.2zm0 4.3h2.2v2.2h-2.2zm0 4.3h2.2v2.2h-2.2zm0 4.3h2.2v2.2h-2.2zm-4.9-34.7h2.2v2.2h-2.2zm0 4.3h2.2v2.2h-2.2zm0 4.3h2.2v2.2h-2.2zm0 4.3h2.2v2.2h-2.2zm0 4.3h2.2v2.2h-2.2zm0 4.3h2.2v2.2h-2.2zm0 4.3h2.2v2.2h-2.2zm0 4.3h2.2v2.2h-2.2zm0 4.3h2.2v2.2h-2.2zm121.3-54.4h5.8v5.81h-5.8zm-90.4 39.6h6.2v1.02h-6.2zm0 7.9h6.2v1.02h-6.2zm0-2.6h6.2v1.02h-6.2zm9-15.8h6.2v1.02h-6.2zm-9 26.3h6.2v1.02h-6.2zm0-2.6h6.2v1.02h-6.2zm0 5.2h6.2v1.02h-6.2zm-9.6 8.1h4.3v-54l-4.3 4.3v49.7zm411.8-40.2h-8.4a2.7 2.7 0 0 0 0 5.4h8.4a2.7 2.7 0 0 0 0-5.4z"
            fill="#e0e0e6"></path>
        <circle cx="453.5" cy="182.4" r="6.8" fill="#e0e0e6"></circle>
        <path d="M457.6 192.2h-8.4a2.7 2.7 0 0 0 0 5.4h8.4a2.7 2.7 0 0 0 0-5.4zm5.1-10.1h6v50.12h-6zm-5.1 17.7h-8.4a2.7 2.7 0 0 0 0 5.4h8.4a2.7 2.7 0 0 0 0-5.4zm0 15.1h-8.4a2.7 2.7 0 0 0 0 5.4h8.4a2.7 2.7 0 0 0 0-5.4zm0-7.6h-8.4a2.7 2.7 0 0 0 0 5.4h8.4a2.7 2.7 0 0 0 0-5.4zm-33.9 25h20.6v-49.7l-20.6-10zm13.8-45.5h2.2v2.2h-2.2zm0 4.3h2.2v2.2h-2.2zm0 4.3h2.2v2.2h-2.2zm0 4.3h2.2v2.2h-2.2zm0 4.3h2.2v2.2h-2.2zm0 4.3h2.2v2.2h-2.2zm0 4.3h2.2v2.2h-2.2zm0 4.3h2.2v2.2h-2.2zm0 4.3h2.2v2.2h-2.2zm-4.9-34.7h2.2v2.2h-2.2zm0 4.3h2.2v2.2h-2.2zm0 4.3h2.2v2.2h-2.2zm0 4.3h2.2v2.2h-2.2zm0 4.3h2.2v2.2h-2.2zm0 4.3h2.2v2.2h-2.2zm0 4.3h2.2v2.2h-2.2zm0 4.3h2.2v2.2h-2.2zm0 4.3h2.2v2.2h-2.2zm-4.9-34.7h2.2v2.2h-2.2zm0 4.3h2.2v2.2h-2.2zm0 4.3h2.2v2.2h-2.2zm0 4.3h2.2v2.2h-2.2zm0 4.3h2.2v2.2h-2.2zm0 4.3h2.2v2.2h-2.2zm0 4.3h2.2v2.2h-2.2zm0 4.3h2.2v2.2h-2.2zm0 4.3h2.2v2.2h-2.2zm47.2-16.9h5.8v5.81h-5.8zm0-18.8h5.8v5.81h-5.8zm9.9 18.8h5.8v5.81h-5.8zm0-9.4h5.8v5.81h-5.8zm-81.4-1.6h6.2v1.02h-6.2zm81.4-7.8h5.8v5.81h-5.8zm0 27.8h5.8v5.81h-5.8zm245 3.6h20.9v1.02h-20.9zm-254.9-40.8h5.8v5.81h-5.8zm0 18.8h5.8v5.81h-5.8zm254.9-6.9h20.9v1.02h-20.9zm0 2.7h20.9v1.02h-20.9zm0-5.3h20.9v1.02h-20.9zm-326.4 0h6.2v1.02h-6.2zm0 2.6h6.2v1.02h-6.2zm326.4 26.3h20.9v1.02h-20.9zm0-21h20.9v1.02h-20.9zm-314.7 39.6h4.3v-49.7l-4.3-4.3v54zm314.7-23.8h20.9v1.02h-20.9zm0-2.7h20.9v1.02h-20.9zm0-10.5h20.9v1.02h-20.9zm0 15.8h20.9v1.02h-20.9zm0-13.2h20.9v1.02h-20.9zm0 5.3h20.9v1.02h-20.9zm0-2.6h20.9v1.02h-20.9z"
            fill="#e0e0e6"></path>
        <path d="M531.4 56.8h-4.9a2.3 2.3 0 0 0-2.3-2.3l-.8.2a4.9 4.9 0 0 0-9.3 2.1 2.405 2.405 0 0 0 .3 4.8h16.9a2.45 2.45 0 0 0 0-4.9zm152.5 35.4h-12.2a5.7 5.7 0 0 0-7.8-5.3 12.3 12.3 0 0 0-23.3 5.3 6.1 6.1 0 0 0 .9 12.1H684a6.155 6.155 0 0 0 .5-12.3h-.5zM29.8 45.8h12.4a5.8 5.8 0 0 1 7.9-5.4 12.5 12.5 0 0 1 23.7 5.4v.2a6.2 6.2 0 0 1-.9 12.3H29.8a6.25 6.25 0 1 1 0-12.5zM843 41.5h-2.8a17.6 17.6 0 1 0-33.8-6.8 11.9 11.9 0 0 0 .1 1.7 5.7 5.7 0 0 0-9.4 5.1h-1.5a10.1 10.1 0 0 0 0 20.1H843a10.1 10.1 0 0 0 0-20.1zM357.9 83.4H355a17.6 17.6 0 1 0-33.8-6.8 11.9 11.9 0 0 0 .1 1.7 5.7 5.7 0 0 0-9.4 5.1h-1.5a10.1 10.1 0 0 0 0 20.1h47.4a10.1 10.1 0 0 0 0-20.1z"
            fill="#f27e20" opacity=".1" style="isolation:isolate"></path>
        <path d="M112.9 139.6a4.1 4.1 0 0 0-4.1 4.1v8.2h8.2v-8.2a4.1 4.1 0 0 0-4.1-4.1zm-1.1 17.8h2v44.2h-2z" fill="#c1c2ce"></path>
        <path fill="#b2b2c1" d="M106.8 143.7H119v2.04h-12.2z"></path>
        <path fill="#b5b6c4" d="M111.8 201.6h2.1v30.66h-2.1z"></path>
        <path d="M108.8 145.7v8.2a4.1 4.1 0 0 0 4.1 4.1v-12.3z" fill="#fbd8bc"></path>
        <path d="M117 145.7v8.2a4.1 4.1 0 0 1-4.1 4.1v-12.3z" fill="#facba6"></path>
        <path d="M371.5 139.6a4.1 4.1 0 0 0-4.1 4.1v8.2h8.2v-8.2a4.1 4.1 0 0 0-4.1-4.1zm-1 17.8h2v44.2h-2z" fill="#c1c2ce"></path>
        <path fill="#b2b2c1" d="M365.4 143.7h12.2v2.04h-12.2z"></path>
        <path fill="#b5b6c4" d="M370.5 201.6h2.1v30.66h-2.1z"></path>
        <path d="M367.4 145.7v8.2a4.1 4.1 0 0 0 4.1 4.1v-12.3z" fill="#fbd8bc"></path>
        <path d="M375.6 145.7v8.2a4.1 4.1 0 0 1-4.1 4.1v-12.3z" fill="#facba6"></path>
        <path d="M630.2 139.6a4.1 4.1 0 0 0-4.1 4.1v8.2h8.2v-8.2a4.1 4.1 0 0 0-4.1-4.1zm-1 17.8h2v44.2h-2z" fill="#c1c2ce"></path>
        <path fill="#b2b2c1" d="M624.1 143.7h12.2v2.04h-12.2z"></path>
        <path fill="#b5b6c4" d="M629.1 201.6h2.1v30.66h-2.1z"></path>
        <path d="M626.1 145.7v8.2a4.1 4.1 0 0 0 4.1 4.1v-12.3z" fill="#fbd8bc"></path>
        <path d="M634.3 145.7v8.2a4.1 4.1 0 0 1-4.1 4.1v-12.3z" fill="#facba6"></path>
        <path d="M888.8 139.6a4.1 4.1 0 0 0-4.1 4.1v8.2h8.2v-8.2a4.1 4.1 0 0 0-4.1-4.1zm-1 17.8h2v44.2h-2z" fill="#c1c2ce"></path>
        <path fill="#b2b2c1" d="M882.7 143.7h12.2v2.04h-12.2z"></path>
        <path fill="#b5b6c4" d="M887.8 201.6h2.1v30.66h-2.1z"></path>
        <path d="M884.7 145.7v8.2a4.1 4.1 0 0 0 4.1 4.1v-12.3z" fill="#fbd8bc"></path>
        <path d="M892.9 145.7v8.2a4.1 4.1 0 0 1-4.1 4.1v-12.3z" fill="#facba6"></path>
        <path d="M231.4 107.1h-4.5v-5h-5v-4.5a28.8 28.8 0 1 0 9.5 9.5z" fill="#f5984d"></path>
        <path fill="#8b8ca3" d="M204 148v84.3h5.8V148l-2.9 2.9-2.9-2.9z"></path>
        <path d="M206.9 93.3a28.8 28.8 0 0 0 0 57.6z" fill="#f6a563"></path>
        <path d="M946.7 162.3H944v-3h-3v-2.7a17.3 17.3 0 1 0 5.7 5.7z" fill="#f5984d"></path>
        <path fill="#8b8ca3" d="M930 186.7v45.6h4l-.1-45.6-1.9 1.9-2-1.9z"></path>
        <path d="M932 154a17.3 17.3 0 0 0 0 34.6z" fill="#f6a563"></path>
        <path d="M76.1 162.3h-2.7v-3h-3v-2.7a17.3 17.3 0 1 0 5.7 5.7z" fill="#f5984d"></path>
        <path fill="#8b8ca3" d="M59.4 186.7v45.6h4v-45.6l-2 1.9-2-1.9z"></path>
        <path d="M61.4 154a17.305 17.305 0 1 0-.8 34.6h.8z" fill="#f6a563"></path>
        <circle cx="886.2" cy="54.3" r="3.7" fill="#c1c2ce"></circle>
    </g>
    <g data-name="Layer 2">
        <path d="M336.3 224.5c.4 0 .7-.4.7-1v-15.2c0-.6-.3-1-.7-1s-.7.4-.7 1v15.2c0 .6.3 1 .7 1z" fill="#9394a9"></path>
        <rect x="333.5" y="197.6" width="2.8" height="20.77" rx="1" ry="1" fill="#faceaa"></rect>
        <path fill="#9394a9" d="M334.3 230.1h9v15.93h-9z"></path>
        <path d="M335.7 245.5a.7.7 0 0 1-.7-.7v-1a.7.7 0 0 1 .7-.7h9.8v-1.6h-9.8a.7.7 0 0 1-.7-.7v-1a.7.7 0 0 1 .7-.7h9.8v-1.6h-9.8a.7.7 0 0 1-.7-.7v-1a.7.7 0 0 1 .7-.7h9.8v-1.6h-9.8a.7.7 0 0 1-.7-.7v-1a.7.7 0 0 1 .7-.7h9.8a2.3 2.3 0 0 0-2.3-2.3h-8a2.3 2.3 0 0 0-2.3 2.3v14.3a2.3 2.3 0 0 0 2.3 2.3h8a2.3 2.3 0 0 0 2.3-2.3h-9.8z"
            fill="#e0e0e6"></path>
        <rect x="197.9" y="222.6" width="27" height="18.94" rx="3" ry="3" fill="#fce5d2"></rect>
        <path d="M201.9 242.3c.4 0 .7-.4.7-1V223c0-.6-.3-1-.7-1s-.7.4-.7 1v18.3c0 .5.3 1 .7 1zm9.5 0c.4 0 .7-.4.7-1V223c0-.6-.3-1-.7-1s-.7.4-.7 1v18.3c0 .5.3 1 .7 1zm9.6 0c.4 0 .7-.4.7-1V223c0-.6-.3-1-.7-1s-.7.4-.7 1v18.3a.8.8 0 0 0 .7 1z"
            fill="#fbd8bc"></path>
        <ellipse cx="216.8" cy="255.1" rx="127.5" ry="2.3" fill="#656684" opacity=".2" style="isolation:isolate"></ellipse>
        <path d="M268.3 110H88.5v122.1h12.9a19.3 19.3 0 0 1 36.1-.4 19.2 19.2 0 0 1 36.1.4h58.1a19.3 19.3 0 0 1 36.2 0h6.6V110zm74.9 95.9a20.2 20.2 0 0 0-3.1-10.7s-15.4-25.9-17.4-29.1-4.2-4.8-8.1-4.8h-31.8c-3.6 0-.2.8-.2 4.4v69.2a6.5 6.5 0 0 0 6.5 6.5h.7a19.3 19.3 0 1 1 38.2 0h8.8a6.5 6.5 0 0 0 6.5-6.5c0-4.4-.1-25.9-.1-29z"
            fill="#b2b2c1"></path>
        <circle cx="308.9" cy="238.6" r="16.7" fill="#656684"></circle>
        <path d="M301.2 238.6a7.7 7.7 0 1 0 7.7-7.7 7.7 7.7 0 0 0-7.7 7.7zm2.6 0a5.1 5.1 0 1 1 5.1 5.1 5.1 5.1 0 0 1-5.1-5.1z"
            fill="#c1c2ce"></path>
        <path d="M303.8 238.6a5.1 5.1 0 1 1 5.1 5.1 5.1 5.1 0 0 1-5.1-5.1z" fill="#9394a9"></path>
        <path d="M297.1 226.9a16.7 16.7 0 0 1 23.6 23.6z" fill="#656684" opacity=".1" style="isolation:isolate"></path>
        <path d="M293 204.1a2.4 2.4 0 0 1-2.3-2.4v-33.1a2.3 2.3 0 0 1 2.3-2.3h21.3a4.8 4.8 0 0 1 3.6 2l17.1 26.8a9.4 9.4 0 0 1 1.3 4.3v5.3z"
            fill="#f7f7f9"></path>
        <rect x="290.4" y="208.5" width="8.4" height="2.8" rx="1" ry="1" fill="#656684"></rect>
        <path d="M328.6 232.1a20.8 20.8 0 0 0-39.5 0h-6.6v9.4h7.2a19.3 19.3 0 0 1 37.2-9.3 19.3 19.3 0 0 1 .9 9.3h8.8a6.5 6.5 0 0 0 6.5-6.5v-2.8z"
            fill="#9697ab"></path>
        <path d="M282.6 228.5a1.6 1.6 0 0 1-1.6-1.5v-68l-5.3-5.3a1.6 1.6 0 1 1 2.2-2.2l6.2 6.2V227a1.5 1.5 0 0 1-1.5 1.5z"
            fill="#e0e0e6"></path>
        <path d="M286.5 216v-47.4c0-1-1.9-1.9-4.1-1.9s-4.1.9-4.1 1.9V216c0 1 1.9 1.9 4.1 1.9s4.1-.9 4.1-1.9z" fill="#d1d1da"></path>
        <path fill="#f7b279" d="M149 110.2h4.5v108.91H149zm60.2 0h4.5v121.95h-4.5z"></path>
        <path d="M317.9 168.2a4 4 0 0 0-1.1-1.1l-25.6 36.1a2.4 2.4 0 0 0 1.8.9l43.3.6v-5.3a9.4 9.4 0 0 0-1.3-4.3z"
            fill="#e8e8ed" opacity=".5" style="isolation:isolate"></path>
        <path d="M155.4 217.9a20.7 20.7 0 0 0-18 10.4 20.7 20.7 0 0 0-37.6 3.8h1.6a19.2 19.2 0 0 1 35.2-2.2l.8 1.9a19.2 19.2 0 0 1 36 .3h1.6a20.7 20.7 0 0 0-19.6-14.2z"
            fill="#9697ab"></path>
        <circle cx="249.7" cy="238.6" r="16.7" fill="#656684"></circle>
        <path d="M242.1 238.6a7.7 7.7 0 1 0 7.7-7.7 7.7 7.7 0 0 0-7.7 7.7zm2.6 0a5.1 5.1 0 1 1 5.1 5.1 5.1 5.1 0 0 1-5.1-5.1z"
            fill="#c1c2ce"></path>
        <path d="M244.6 238.6a5.1 5.1 0 1 1 5.1 5.1 5.1 5.1 0 0 1-5.1-5.1z" fill="#9394a9"></path>
        <path d="M238 226.9a16.7 16.7 0 0 1 23.6 23.6z" fill="#656684" opacity=".1" style="isolation:isolate"></path>
        <circle cx="155.4" cy="238.6" r="16.7" fill="#656684"></circle>
        <path d="M147.7 238.6a7.7 7.7 0 1 0 7.7-7.6 7.7 7.7 0 0 0-7.7 7.6zm2.6 0a5.1 5.1 0 1 1 5.1 5.1 5.1 5.1 0 0 1-5.1-5.1z"
            fill="#c1c2ce"></path>
        <path d="M150.3 238.6a5.1 5.1 0 1 1 5.1 5.1 5.1 5.1 0 0 1-5.1-5.1z" fill="#9394a9"></path>
        <path d="M143.6 226.9a16.7 16.7 0 0 1 23.6 23.6z" fill="#656684" opacity=".1" style="isolation:isolate"></path>
        <circle cx="119.5" cy="238.6" r="16.7" fill="#656684"></circle>
        <path d="M111.8 238.6a7.7 7.7 0 1 0 7.7-7.7 7.7 7.7 0 0 0-7.7 7.7zm2.6 0a5.1 5.1 0 1 1 5.1 5.1 5.1 5.1 0 0 1-5.1-5.1z"
            fill="#c1c2ce"></path>
        <path d="M114.4 238.6a5.1 5.1 0 1 1 5.1 5.1 5.1 5.1 0 0 1-5.1-5.1z" fill="#9394a9"></path>
        <path d="M107.7 226.9a16.7 16.7 0 0 1 23.6 23.6z" fill="#656684" opacity=".1" style="isolation:isolate"></path>
        <path d="M231.6 232.1a19.2 19.2 0 0 1 36.2 0h1.6a20.7 20.7 0 0 0-39.4 0z" fill="#9697ab"></path>
        <path d="M583.2 228a7 7 0 0 1-7-7v-10.7l-40.7-40.7s-5.5-5.6-13.1-5.6H400.9a6.5 6.5 0 0 0-6.5 6.5v69.2a6.5 6.5 0 0 0 6.5 6.5h16.3a13.9 13.9 0 1 1 27.1 0h96.8a13.9 13.9 0 1 1 27.2 0h14.8a6.5 6.5 0 0 0 6.5-6.5V228z"
            fill="#d1d1da"></path>
        <ellipse cx="492" cy="255.7" rx="97.6" ry="2.3" fill="#656684" opacity=".2" style="isolation:isolate"></ellipse>
        <path d="M571.8 236.9a17.7 17.7 0 0 0-33.4 0h-90.9a17.7 17.7 0 0 0-33.4 0h-19.7v2.8a6.5 6.5 0 0 0 6.5 6.5h16.4a13.9 13.9 0 1 1 27.1 0h96.8a13.8 13.8 0 0 1-.2-1.4 13.9 13.9 0 1 1 27.6 0 6.5 6.5 0 0 1-.2 1.3h14.8a6.5 6.5 0 0 0 6.5-6.5V237z"
            fill="#a3a3b5"></path>
        <path d="M560.8 202.3a2.6 2.6 0 0 1 1.8 1l5.1 5.1a1.9 1.9 0 0 1-1.3 3.3H401.8a3.7 3.7 0 0 1-3.7-3.7v-5.6z"
            fill="#c1c2ce"></path>
        <circle cx="555.1" cy="243.5" r="12.2" fill="#656684"></circle>
        <path d="M549.5 243.5a5.6 5.6 0 1 0 5.6-5.6 5.6 5.6 0 0 0-5.6 5.6zm1.9 0a3.7 3.7 0 1 1 3.7 3.7 3.7 3.7 0 0 1-3.7-3.7z"
            fill="#c1c2ce"></path>
        <path d="M551.4 243.5a3.7 3.7 0 1 1 3.7 3.7 3.7 3.7 0 0 1-3.7-3.7z" fill="#f0f0f3"></path>
        <path d="M546.5 234.9a12.2 12.2 0 0 1 17.2 17.2z" fill="#fff" opacity=".1" style="isolation:isolate"></path>
        <circle cx="430.8" cy="243.5" r="12.1" fill="#656684"></circle>
        <path d="M425.2 243.5a5.6 5.6 0 1 0 5.6-5.6 5.6 5.6 0 0 0-5.6 5.6zm1.9 0a3.7 3.7 0 1 1 3.7 3.7 3.7 3.7 0 0 1-3.7-3.7z"
            fill="#c1c2ce"></path>
        <path d="M427.1 243.5a3.7 3.7 0 1 1 3.7 3.7 3.7 3.7 0 0 1-3.7-3.7z" fill="#f0f0f3"></path>
        <path d="M422.2 234.9a12.2 12.2 0 0 1 17.2 17.2z" fill="#fff" opacity=".1" style="isolation:isolate"></path>
        <path d="M589.7 226.9v1.1h-6.5a7 7 0 0 1-7-7v-10.7l7 7s6.5 5.1 6.5 9.6z" fill="#f7f7f9"></path>
        <path d="M504.7 198.6a3.7 3.7 0 0 1-3.7-3.7v-23.4a3.7 3.7 0 0 1 3.7-3.7h17.8c5.9 0 10.4 4.4 10.4 4.5l15.2 15.2v11.1z"
            fill="#c2f8ff"></path>
        <path d="M504.7 198.6a3.7 3.7 0 0 1-3.7-3.7v-23.4a3.7 3.7 0 0 1 3.7-3.7h17.8c5.9 0 10.4 4.4 10.4 4.5l15.2 15.2v11.1z"
            fill="#f7f7f9"></path>
        <path d="M401.8 167.7h91.6a3.7 3.7 0 0 1 3.7 3.7v23.4a3.7 3.7 0 0 1-3.7 3.7h-95.3v-27a3.7 3.7 0 0 1 3.7-3.8z"
            fill="#c1c2ce"></path>
        <rect x="499.1" y="205.1" width="8.4" height="2.8" rx="1" ry="1" fill="#656684"></rect>
        <rect x="481.3" y="205.1" width="8.4" height="2.8" rx="1" ry="1" fill="#656684"></rect>
        <path d="M502.5 197.9l27.7-27.7a16.9 16.9 0 0 1 2.6 2l15.2 15.2v11.1h-43.3a3.7 3.7 0 0 1-2.2-.6z" fill="#e8e8ed"
            opacity=".5" style="isolation:isolate"></path>
        <path d="M548.1 198.6v-11.1l7.9 7.9a1.9 1.9 0 0 1-1.3 3.3h-6.5z" fill="#656684"></path>
        <path d="M543.9 193a5.6 5.6 0 0 1 0 11.2z" fill="#a3a3b5"></path>
        <path fill="#656684" d="M542 193h1.9v11.22H542z"></path>
        <path d="M400.4 171.5v60.8a1.4 1.4 0 0 0 1.4 1.4h8.3v-.3a22.9 22.9 0 0 1 41.1 0v.3h42a1.4 1.4 0 0 0 1.4-1.4v-60.8a1.4 1.4 0 0 0-1.4-1.4h-91.4a1.4 1.4 0 0 0-1.4 1.4zm93 61.2h-40.6V171h40.7a.5.5 0 0 1 .5.5v60.8a.5.5 0 0 1-.5.5zm-92.1-61.2a.5.5 0 0 1 .5-.5h50v61.3a23.8 23.8 0 0 0-42.3.4h-7.7a.5.5 0 0 1-.5-.5z"
            fill="#a3a3b5"></path>
        <path d="M687.3 203.8l11.7 9.8c.4.3.2 1.2-.5 2s-1.5 1.1-1.8.8l-11.7-9.8z" fill="#f9c59b"></path>
        <ellipse cx="683.2" cy="203.2" rx="4.2" ry="2.3" fill="#fff"></ellipse>
        <path d="M681.4 198.7v2.7a1.8 1.8 0 0 0 3.6 0v-2.7z" fill="#facba6"></path>
        <circle cx="689.5" cy="194" r="1.3" fill="#fbd8bc"></circle>
        <circle cx="683.2" cy="194.4" r="6.3" fill="#fbd8bc"></circle>
        <path d="M689.5 192.6v-.4a6.3 6.3 0 0 0-12.6 0 5.5 5.5 0 0 0 .1 1.1 6.3 6.3 0 0 1 1.4-3 12.4 12.4 0 0 0 7.9 2.7 13.8 13.8 0 0 0 2.9-.3z"
            fill="#c9a48d"></path>
        <path d="M689.5 192.6v-.4a6.3 6.3 0 0 0-12.6 0 5.5 5.5 0 0 0 .1 1.1 6.3 6.3 0 0 1 1.4-3 12.4 12.4 0 0 0 7.9 2.7 13.8 13.8 0 0 0 2.9-.3z"
            fill="#f5984d"></path>
        <path d="M683.2 199a2.7 2.7 0 0 0 2.7-2.7h-5.4a2.7 2.7 0 0 0 2.7 2.7z" fill="#fff"></path>
        <circle cx="676.9" cy="194" r="1.3" fill="#fbd8bc"></circle>
        <path fill="#fff" d="M679 203.2h8.3v14.41H679z"></path>
        <path d="M684.5 203.4l11.8 9.8c.4.3.2 1.2-.5 2s-1.5 1.1-1.8.8l-11.8-9.8z" fill="#fbd8bc"></path>
        <path d="M686.8 205.4l-.6-.5-4-3.3c-.4-.3-1.2 0-1.8.8s-.8 1.6-.5 2l.6.5 4 3.3c.4.3 1.2 0 1.8-.8s.9-1.7.5-2z"
            fill="#f7f7f9"></path>
        <path d="M707.8 191.8c-.3-1.3-.5-1.9-1.2-1.9a1 1 0 0 0-1 1V216h6.6v-7.7z" fill="#e0e0e6"></path>
        <ellipse cx="696.9" cy="255.1" rx="58.9" ry="2.4" fill="#656684" opacity=".2" style="isolation:isolate"></ellipse>
        <circle cx="662.1" cy="204.4" r="2.9" fill="#656684"></circle>
        <path fill="#656684" d="M659.2 204.4h5.8v9.66h-5.8zm44.9 3a1 1 0 0 0-1.3.4l-5.8 10 1.7 1 5.8-10a1 1 0 0 0-.4-1.4z"></path>
        <circle cx="659.2" cy="244" r="11.6" fill="#656684"></circle>
        <path d="M653.4 244a5.8 5.8 0 1 0 5.8-5.8 5.8 5.8 0 0 0-5.8 5.8zm1.9 0a3.9 3.9 0 1 1 3.9 3.9 3.9 3.9 0 0 1-3.9-3.9z"
            fill="#c1c2ce"></path>
        <path d="M655.3 244a3.9 3.9 0 1 1 3.9 3.9 3.9 3.9 0 0 1-3.9-3.9z" fill="#f0f0f3"></path>
        <path d="M651 235.8a11.6 11.6 0 0 1 16.4 16.4z" fill="#fff" opacity=".1" style="isolation:isolate"></path>
        <circle cx="725.7" cy="244" r="11.6" fill="#656684"></circle>
        <path d="M719.9 244a5.8 5.8 0 1 0 5.8-5.8 5.8 5.8 0 0 0-5.8 5.8zm1.9 0a3.9 3.9 0 1 1 3.9 3.9 3.9 3.9 0 0 1-3.8-3.9z"
            fill="#c1c2ce"></path>
        <path d="M721.9 244a3.9 3.9 0 1 1 3.9 3.9 3.9 3.9 0 0 1-3.9-3.9z" fill="#f0f0f3"></path>
        <path d="M717.5 235.8a11.6 11.6 0 0 1 16.4 16.4z" fill="#fff" opacity=".1" style="isolation:isolate"></path>
        <path d="M749.9 218.8l-37.7-10.5a5.8 5.8 0 0 1-5.8 5.8h-63.6a5.8 5.8 0 0 0-5.8 5.8v20.3a5.8 5.8 0 0 0 5.8 5.8h3a13.5 13.5 0 1 1 26.7 0h39.8a13.5 13.5 0 1 1 26.7 0h10.8a5.8 5.8 0 0 0 5.8-5.8v-14.6c.1-3.2-2.3-5.6-5.7-6.8z"
            fill="#f38b36"></path>
        <path d="M749.9 218.8l-5.8-1.6c0 7 5.2 11.4 11.6 11.4v-2.9c0-3.3-2.4-5.7-5.8-6.9zm-90.7-4.8v5.6a5.8 5.8 0 0 0 4 5.5h.2a17.4 17.4 0 0 1 12.3 11.2 5.8 5.8 0 0 0 5.4 3.7h18.6a5.8 5.8 0 0 0 5.8-5.8V214z"
            fill="#f5984d"></path>
        <path d="M669.8 216.9h-2.9a1.9 1.9 0 0 0-1.9 1.9v1h6.8v-1a1.9 1.9 0 0 0-2-1.9z" fill="#656684"></path>
        <path d="M705.4 210.1v7.7c2.7 0 4.8-1.7 4.8-3.9s-2.1-3.8-4.8-3.8z" fill="#f27e20"></path>
        <path fill="#f38b36" d="M704 210.1h1.4v7.73H704z"></path>
        <path d="M646.2 240.1H637a5.8 5.8 0 0 0 5.8 5.8h3a13 13 0 0 1 .4-5.8zm109.5 0h-17a13 13 0 0 1 .4 5.8h10.8a5.8 5.8 0 0 0 5.8-5.8z"
            fill="#a3a3b5"></path>
        <path d="M665 208.2v5.8h5.8a5.8 5.8 0 0 0-5.8-5.8z" fill="#a0a0b3"></path>
        <path d="M653.4 216.3V214h-10.6a5.8 5.8 0 0 0-5.8 5.8v2.3h10.6a5.8 5.8 0 0 0 5.8-5.8z" fill="#f5984d"></path>
        <path d="M837.3 250l-3-3.4-3.2-1.8-1.4 2.5a1.4 1.4 0 0 0 .5 1.9l5.6 3.1a1.4 1.4 0 0 0 1.9-.5c.5-.6.1-1.2-.4-1.8z"
            fill="#707070"></path>
        <path d="M841.8 233.3l-7.5 13.4c-.2.4-1.2.4-2-.1s-1.4-1.2-1.1-1.7l7.5-13.4z" fill="#fbd8bc"></path>
        <path d="M842.2 227.6l-9.7-5.1-6.6-3.6-1.5 3.1a4.1 4.1 0 0 0 1.6 5.6l1.1.4 10.6 3.2-5.1 9.6c-.2.5.6 1.4 1.9 2.1s2.5.9 2.8.4l6.3-12.6a2.5 2.5 0 0 0-1.3-3.2z"
            fill="#5c5c5c"></path>
        <path d="M838.7 205l17.7 6.7c.5.2.6 1.1.2 2s-1 1.6-1.5 1.4l-17.7-6.7z" fill="#facba6"></path>
        <path d="M854.2 228.9s5.4-3.8 4.6-1.5-10.8 17-10.8 17l-9.4-3.5-4.1-10s2.4-2.1 4.8-2.1z" fill="#e8e8ed"></path>
        <path d="M857.4 243.8a11.8 11.8 0 1 0 11.8-11.8 11.8 11.8 0 0 0-11.8 11.8zm5.2 0a6.6 6.6 0 1 1 6.6 6.6 6.6 6.6 0 0 1-6.6-6.6z"
            fill="#656684"></path>
        <path d="M861.9 243.8a7.2 7.2 0 1 0 7.2-7.2 7.2 7.2 0 0 0-7.2 7.2zm.9 0a6.3 6.3 0 1 1 6.3 6.3 6.3 6.3 0 0 1-6.3-6.3z"
            fill="#e8e8ed"></path>
        <path d="M875.5 243.8a6.3 6.3 0 0 0-10.8-4.5l-3.8-3.8a11.8 11.8 0 0 1 16.7 16.6l-3.8-3.8a6.3 6.3 0 0 0 1.7-4.5z"
            fill="#fff" opacity=".1" style="isolation:isolate"></path>
        <path d="M802.1 243.8a11.8 11.8 0 1 0 11.7-11.8 11.8 11.8 0 0 0-11.8 11.8zm5.3 0a6.5 6.5 0 1 1 6.5 6.5 6.5 6.5 0 0 1-6.6-6.5z"
            fill="#656684"></path>
        <path d="M806.6 243.8a7.2 7.2 0 1 0 7.2-7.2 7.2 7.2 0 0 0-7.2 7.2zm.9 0a6.3 6.3 0 1 1 6.3 6.3 6.3 6.3 0 0 1-6.3-6.3z"
            fill="#e8e8ed"></path>
        <path d="M820.2 243.8a6.3 6.3 0 0 0-10.8-4.5l-3.8-3.8a11.8 11.8 0 1 1 16.7 16.6l-3.8-3.8a6.3 6.3 0 0 0 1.7-4.5z"
            fill="#fff" opacity=".1" style="isolation:isolate"></path>
        <path d="M812.6 245.4l14.5-10.1a.86.86 0 0 0-1-1.4l-10.9 7.6c.9-3.6 3-12.7 3.2-13.9l.2-.9h-.9c-12.3-2-16.6 4.7-16.7 5a.854.854 0 1 0 1.6.6c.1-.3 3.9-5.4 14-4l-3.5 15.1z"
            fill="#e8e8ed"></path>
        <path d="M830.5 231l-20.5-.8a3.3 3.3 0 0 1-3-3.4c0-7.6 3.3-5.7 3.3-5.7s9.9 5.6 15.5 5.6a33.1 33.1 0 0 0 9.4-1.5 1.3 1.3 0 0 1 1.2.7l-1.7 5z"
            fill="#f38b36"></path>
        <path d="M856.7 231h-21.9s-3.3.3-.8-2.9 12.2-8.1 19.6-8.1 9.5 11 3.1 11z" fill="#656684"></path>
        <path d="M827.2 232.2h9.8a2.4 2.4 0 0 1 1.9 2.4c0 2-2 3.3-5 3.3-4.5 0-11-2.7-11-4.3s2-1.4 2-1.4zm14.4 8.4h9.3s1.4 0 .7 1.4l-1.9 3.3a2.1 2.1 0 0 1-1.8 1.1h-8.5z"
            fill="#f6a563"></path>
        <path d="M836.5 238.8h-9.1a.6.6 0 0 0-.7.6v2.7s-.1.8 1 1.1 8.6 3.1 8.6 3.1z" fill="#e8e8ed"></path>
        <circle cx="838.6" cy="242.2" r="4.8" fill="#adadad"></circle>
        <circle cx="838.6" cy="242.2" r="4.7" transform="rotate(-45 838.598 242.14)" fill="#a3a3b5"></circle>
        <circle cx="838.6" cy="242.2" r="3.8" transform="rotate(-45 838.598 242.14)" fill="#f7f7f9"></circle>
        <path d="M834.4 249.9h14.3a4.2 4.2 0 0 0 3.8-1.9l11.8-20.6-.5-3.5-12.7 22a3 3 0 0 1-2.5 1.7h-14l-32.6-8c-3-.7-3.5 4.8-1.7 4.8s34.1 5.5 34.1 5.5z"
            fill="#c1c2ce"></path>
        <path d="M859.1 212.6l3.2-.9 8.5 31.7a1.7 1.7 0 1 1-3.2.9z" fill="#d1d1da"></path>
        <path d="M864 230.7l3.2-.9a.825.825 0 0 1 .4 1.6l-3.2.9a.838.838 0 1 1-.5-1.6z" fill="#a3a3b5"></path>
        <path d="M860.1 210.8a1.7 1.7 0 0 1 1.6 2.9h-.2l-5.2 2.4-1.4-3z" fill="#f6a563"></path>
        <circle cx="855.5" cy="214.7" r="1.7" transform="rotate(-25 855.57 214.757)" fill="#f38b36"></circle>
        <circle cx="869.2" cy="243.8" r=".8" fill="#656684"></circle>
        <path d="M843.8 232.9a.7.7 0 0 1 .7-.6h14.4a.7.7 0 1 1 0 1.3h-14.4a.7.7 0 0 1-.7-.7zm.7 2h13a.7.7 0 1 1 0 1.3h-13a.7.7 0 1 1 0-1.3zm0 2.6H856a.7.7 0 1 1 0 1.3h-11.5a.7.7 0 1 1 0-1.3z"
            fill="#a3a3b5"></path>
        <path d="M835.2 238.8a4.8 4.8 0 0 1 6.7 6.7z" fill="#a3a3b5" opacity=".2" style="isolation:isolate"></path>
        <path d="M870 228.9c-2.7 0-5-1.5-5-3.3s2.2-3.3 5-3.3z" fill="#f6a563"></path>
        <path d="M870 222.2h2.5a.5.5 0 0 1 .5.8l-1.9 5.1a1.3 1.3 0 0 1-1.1.8v-6.6z" fill="#f38b36"></path>
        <ellipse cx="840.9" cy="255.6" rx="41.2" ry="1.7" fill="#656684" opacity=".2" style="isolation:isolate"></ellipse>
        <path d="M842.3 202.8c-1.9-1.3-4-1.4-4.7-.4l-11.8 16.7 6.8 4.8 12-17c.7-1-.3-2.9-2.3-4.1z" fill="#fff"></path>
        <path d="M838.8 200.6v2.7a1.8 1.8 0 1 0 3.6 0v-2.7z" fill="#facba6"></path>
        <ellipse cx="840.7" cy="196.3" rx="5.7" ry="6.8" fill="#3d3d3d"></ellipse>
        <circle cx="847.1" cy="197.7" r=".3" fill="#333"></circle>
        <circle cx="834.2" cy="197.7" r=".3" fill="#333"></circle>
        <path d="M840.7 190.3a6.5 6.5 0 0 1 6.2 8.4 23.2 23.2 0 0 1-12.4 0 6.5 6.5 0 0 1 4.4-8.1l1.8-.3z" fill="#666"></path>
        <path d="M834.2 196.8a6.5 6.5 0 0 1 5.3-6.4 11.2 11.2 0 0 1 3.5 8.4v.6h-2.3a22.3 22.3 0 0 1-6.2-.9 6.6 6.6 0 0 1-.3-1.7z"
            fill="#5c5c5c"></path>
        <path d="M841.2 203.8l17.7 6.7c.5.2.6 1.1.2 2s-1 1.6-1.5 1.4l-17.6-6.8z" fill="#fbd8bc"></path>
        <path d="M844 204.8l-.7-.2-4.8-1.8c-.5-.2-1.1.4-1.5 1.4s-.2 1.8.2 2l.7.3 4.8 1.8c.5.2 1.1-.4 1.5-1.4s.3-1.9-.2-2.1z"
            fill="#f7f7f9"></path>
        <path d="M833.2 251.3l-2.5-3.7-2.9-2.1-1.7 2.3a1.4 1.4 0 0 0 .3 2l5.1 3.8a1.4 1.4 0 0 0 2-.3c.5-.7.2-1.3-.3-2z"
            fill="#999"></path>
        <path d="M839.8 235.2l-9.1 12.3c-.3.4-1.2.3-2-.4s-1.2-1.4-.9-1.8l9.1-12.3z" fill="#fbd8bc"></path>
        <path d="M840.9 229.7l-9-6.2-6.1-4.3-1.9 2.9a4.1 4.1 0 0 0 .8 5.7l1.1.6 10.1 4.5-6.2 8.9c-.3.5.5 1.5 1.6 2.4s2.4 1.2 2.8.8l7.8-11.7a2.5 2.5 0 0 0-.8-3.4z"
            fill="#333"></path>
    </g>
</svg>