<svg xmlns="http://www.w3.org/2000/svg" width="1440" height="675" viewBox="0 0 1440 675" xmlns:xlink="http://www.w3.org/1999/xlink">
  <defs>
    <linearGradient id="b" x1="100%" x2="0%" y1="0%" y2="100%">
      <stop stop-color="#FE6C5F" offset="0%"/>
      <stop stop-color="#FF4F81" offset="100%"/>
    </linearGradient>
    <path id="a" d="M0,674.5 C61.5546135,673.899651 66.0684969,628.101899 172.853318,628.101899 L385.535228,628.101899 C490.237956,628.101899 493.156943,567.710069 599.712817,567.710069 L808.629708,567.710069 C914.259009,567.710069 914.111574,519.0222 1019.74088,519.0222 C1125.37018,519.0222 1126.49239,519.0222 1230.26855,519.0222 C1334.04471,519.0222 1337.14733,448.095703 1440.92348,448.095703 C1440.92348,450 1440,1 1440,1 L0.208432321,0.500072372 C0.208432321,0.500072372 0,675 0,674.5 Z"/>
    <linearGradient id="c" x1="55.836%" x2="53.578%" y1="98.184%" y2="22.547%">
      <stop stop-color="#FE6C5F" stop-opacity="0" offset="0%"/>
      <stop stop-color="#FF7965" offset="100%"/>
    </linearGradient>
    <linearGradient id="e" x1="55.836%" x2="53.578%" y1="98.184%" y2="22.547%">
      <stop stop-color="#FE6C5F" stop-opacity="0" offset="0%"/>
      <stop stop-color="#FF935E" offset="100%"/>
    </linearGradient>
    <linearGradient id="f" x1="55.836%" x2="53.578%" y1="98.184%" y2="22.547%">
      <stop stop-color="#FE6C5F" stop-opacity="0" offset="0%"/>
      <stop stop-color="#FFA65E" offset="100%"/>
    </linearGradient>
    <linearGradient id="g" x1="55.836%" x2="53.578%" y1="98.184%" y2="22.547%">
      <stop stop-color="#FE6C5F" stop-opacity="0" offset="0%"/>
      <stop stop-color="#FFB060" offset="100%"/>
    </linearGradient>
    <linearGradient id="h" x1="55.836%" x2="53.578%" y1="98.184%" y2="22.547%">
      <stop stop-color="#FE6C5F" stop-opacity="0" offset="0%"/>
      <stop stop-color="#FFB460" offset="100%"/>
    </linearGradient>
  </defs>
  <g fill="none" fill-rule="evenodd" transform="translate(0 -.406)">
    <mask id="d" fill="white">
      <use xlink:href="#a"/>
    </mask>
    <use fill="url(#b)" xlink:href="#a"/>
    <path fill="url(#c)" d="M-63.2250043,525.144895 C46.1105884,525.144895 43.33087,328.506708 150.813317,328.506708 L363.495227,328.506708 C468.197956,328.506708 471.116942,82.2964779 577.672816,82.2964779 L786.589707,82.2964779 C892.219008,82.2964779 892.071573,-116.198115 997.700874,-116.198115 C1103.33018,-116.198115 1104.45239,-116.198115 1208.22855,-116.198115 C1312.0047,-116.198115 1315.10733,-405.356918 1418.88348,-405.356918 C1522.65964,-405.356918 1406.31949,1010.68996 1406.31949,1010.68996 L-66.0400009,1010.68996" mask="url(#d)"/>
    <path fill="url(#e)" d="M-39.2250043,542.054369 C70.1105884,542.054369 67.33087,387.993643 174.813317,387.993643 L387.495227,387.993643 C492.197956,387.993643 495.116942,195.094556 601.672816,195.094556 L810.589707,195.094556 C916.219008,195.094556 916.071573,39.5793869 1021.70087,39.5793869 C1127.33018,39.5793869 1128.45239,39.5793869 1232.22855,39.5793869 C1336.0047,39.5793869 1339.10733,-186.96875 1442.88348,-186.96875 C1546.65964,-186.96875 1430.31949,922.465852 1430.31949,922.465852 L-42.0400009,922.465852" mask="url(#d)"/>
    <path fill="url(#f)" d="M-39.2250043,562.359374 C70.1105884,562.359374 67.33087,447.042875 174.813317,447.042875 L387.495227,447.042875 C492.197956,447.042875 495.116942,302.655348 601.672816,302.655348 L810.589707,302.655348 C916.219008,302.655348 916.071573,186.25018 1021.70087,186.25018 C1127.33018,186.25018 1128.45239,186.25018 1232.22855,186.25018 C1336.0047,186.25018 1339.10733,16.6758916 1442.88348,16.6758916 C1546.65964,16.6758916 1430.31949,847.102419 1430.31949,847.102419 L-42.0400009,847.102419" mask="url(#d)"/>
    <path fill="url(#g)" d="M-39.2250043,613.32388 C70.1105884,613.32388 67.33087,518.647213 174.813317,518.647213 L387.495227,518.647213 C492.197956,518.647213 495.116942,400.102772 601.672816,400.102772 L810.589707,400.102772 C916.219008,400.102772 916.071573,304.532289 1021.70087,304.532289 C1127.33018,304.532289 1128.45239,304.532289 1232.22855,304.532289 C1336.0047,304.532289 1339.10733,165.309119 1442.88348,165.309119 C1546.65964,165.309119 1430.31949,847.102419 1430.31949,847.102419 L-42.0400009,847.102419" mask="url(#d)"/>
    <path fill="url(#h)" d="M-39.2250043,665.683238 C70.1105884,665.683238 67.33087,592.211296 174.813317,592.211296 L387.495227,592.211296 C492.197956,592.211296 495.116942,500.217243 601.672816,500.217243 L810.589707,500.217243 C916.219008,500.217243 916.071573,426.051672 1021.70087,426.051672 C1127.33018,426.051672 1128.45239,426.051672 1232.22855,426.051672 C1336.0047,426.051672 1339.10733,318.010304 1442.88348,318.010304 C1546.65964,318.010304 1430.31949,847.102419 1430.31949,847.102419 L-42.0400009,847.102419" mask="url(#d)"/>
  </g>
</svg>
