<svg xmlns="http://www.w3.org/2000/svg" width="1400" height="215.7" viewBox="0 0 1400 215.7">
    <path fill="#9E9FB7" d="M1396.8 126.9c-4.5 0-8.8 2-11.6 5.6v-5.6h-3.3v24l-2.3-2.3-2.3 2.3-2.3-2.3-2.3 2.3-2.3-2.3-2.3 2.3-2.3-2.3-2.3 2.3-2.3-2.3-2.3 2.3-2.3-2.3-2.3 2.3-2.3-2.3-2.3 2.3-2.2-2.2v-7l-11.8-4.6-12.5 4.6v-29.4h-3.1V99.8h-4.7v12.5h-21.6v12.8l-6.6-6.6v6.6h-6.5l-18.3 18.4-1.7-1.7h-3.3v-.2c-.1-8.2-6.7-14.8-14.9-14.8-4.5.1-8.7 2-11.6 5.4v-12.1h-21.5l-6.6-9.4v6.6h-6.6v7.8l-18.2 18.2-1.7-1.7h-3.3v-.2c-.1-8.2-6.9-14.8-15.1-14.8-4.4.1-8.6 2.1-11.4 5.5v-5.6h-3.3v24l-2.3-2.3-2.3 2.3-2.3-2.3-2.3 2.3-2.3-2.3-2.3 2.3-2.3-2.3-2.3 2.3-2.3-2.3-2.3 2.3-2.3-2.3-2.3 2.3-2.3-2.3-2.3 2.3-2.2-2.2v-7l-11.8-4.6-12.6 4.6-12.6-4.6-11.8 4.6v7l-2.2 2.2-2.3-2.3-2.3 2.3-2.3-2.3-2.3 2.3-2.3-2.3-2.3 2.3-2.3-2.3-2.3 2.3-2.3-2.3-2.3 2.3-2.3-2.3-2.3 2.3-2.3-2.3-2.3 2.3v-24h-3.3v5.6c-5.2-6.4-14.6-7.4-21-2.2-3.5 2.8-5.5 7-5.5 11.4v.2h-3.3l-1.7 1.7-18.2-18.2v-7.8H966v-6.6l-6.6 6.6h-21.5v14.9c-2.9-3.4-7.2-5.4-11.6-5.4-8.2 0-14.8 6.6-14.9 14.8v.2h-3.3l-1.7 1.7-18.3-18.4-18.4 18.4-1.7-1.7h-3.3v-.2c-.1-8.2-6.7-14.8-14.9-14.8-4.5.1-8.7 2-11.7 5.4v-14.9h-21.5l-6.6-6.6v6.6h-6.6v7.8l-18.2 18.2-1.7-1.7h-3.3v-.2c-.1-8.2-6.8-14.9-15-14.8-4.5 0-8.7 2.1-11.5 5.6v-5.6h-3.3v24l-2.3-2.3-2.3 2.3-2.3-2.3-2.3 2.3-2.3-2.3-2.3 2.3-2.3-2.3-2.3 2.3-2.3-2.3-2.3 2.3-2.3-2.3-2.3 2.3-2.3-2.3-2.3 2.3-2.2-2.2v-6.6l-14.9-4-15 4v6.6l-2.2 2.2-2.3-2.3-2.3 2.3-2.3-2.3-2.3 2.3-2.3-2.3-2.3 2.3-2.3-2.3-2.3 2.3-2.3-2.3-2.3 2.3-2.3-2.3-2.3 2.3-2.3-2.3-2.3 2.3v-24h-3.3v5.6c-5.2-6.4-14.6-7.4-21-2.2-3.5 2.8-5.5 7-5.5 11.4v.2h-3.3l-1.7 1.7-18.2-18.2v-7.8h-6.6v-6.6l-6.6 6.6H564v14.9c-2.9-3.4-7.2-5.3-11.6-5.4-8.2 0-14.8 6.6-14.9 14.8v.2h-3.3l-1.7 1.7-18.3-18.4-18.3 18.3-1.7-1.7h-3.3v-.2c-.1-8.2-6.7-14.8-14.9-14.8-4.5.1-8.7 2-11.6 5.4v-14.9h-21.5l-6.6-6.6v6.6h-6.6v7.8L410 143.5l-1.7-1.7H405v-.2c-.1-8.2-6.9-14.8-15.1-14.8-4.4.1-8.6 2.1-11.4 5.5v-5.6h-3.3v24l-2.3-2.3-2.3 2.3-2.3-2.3-2.3 2.3-2.3-2.3-2.3 2.3-2.3-2.3-2.3 2.3-2.3-2.3-2.3 2.3-2.3-2.3-2.3 2.3-2.3-2.3-2.3 2.3-2.2-2.2v-7l-11.8-4.6-12.6 4.6-12.6-4.6-11.8 4.6v7l-2.2 2.2-2.3-2.3-2.3 2.3-2.3-2.3-2.3 2.3-2.3-2.3-2.3 2.3-2.3-2.3-2.3 2.3-2.3-2.3-2.3 2.3-2.3-2.3-2.3 2.3-2.3-2.3-2.3 2.3v-24h-3.3v5.6c-5.2-6.4-14.6-7.4-21-2.2-3.5 2.8-5.5 7-5.5 11.4v.2H224l-1.7 1.7-18.2-18.2v-7.8h-6.6v-6.6l-6.6 9.4h-21.5v12.1c-2.9-3.4-7.1-5.3-11.6-5.4-8.2 0-14.8 6.6-14.9 14.8v.2h-3.3l-1.7 1.7-18.3-18.4h-6.5v-6.6l-6.6 6.6v-12.8H84.8V99.8h-4.7v12.5H77v29.4l-12.5-4.6-11.8 4.6v7l-2.2 2.2-2.3-2.3-2.3 2.3-2.3-2.3-2.3 2.3-2.3-2.3-2.3 2.3-2.3-2.3-2.3 2.3-2.3-2.3-2.3 2.3-2.3-2.3-2.3 2.3-2.3-2.3-2.3 2.3v-24h-3.4v5.6c-3.6-4.4-9.3-6.4-14.9-5.2v88.1h1400v-88.1c-1.1-.3-2.2-.4-3.2-.4z"></path>
    <g fill="#9A9BB3">
        <path d="M408.3 215.3h1.7v-71.8l-1.7-1.7zm-185.9 0h1.7v-73.5l-1.7 1.7zm393.3 0h1.6v-73.5l-1.6 1.7zm-308.1-68.9H300c-.7 0-1.3.6-1.3 1.3 0 .7.6 1.3 1.3 1.3h7.7c.7 0 1.3-.6 1.3-1.3-.1-.7-.6-1.3-1.4-1.3zm-50.4 33.5h2.3v-31.3l-2.3 2.3zm4.7 0h2.3v-31.3l-2.3 2.3zm4.6 0h2.3v-31.3l-2.3 2.3zm4.7 0h2.3v-31.3l-2.3 2.3zm4.5 0h2.3v-31.3l-2.3 2.3zm4.6 0h2.3v-31.3l-2.3 2.3zm4.7 0h2.3v-31.3l-2.3 2.3zm4.6 0h2.2v-31.1l-2.2 2.1zm-120.2-62.5H186v2.8h-16.6zm0 7.5H186v.5h-16.6zm0 4.9H186v.5h-16.6zm0 4.8H186v.5h-16.6zm0 4.9H186v.5h-16.6zm0 4.9H186v.5h-16.6zm0 4.8H186v.5h-16.6zm0 5v.5h16.7v-.6h-16.7zm0 4.8H186v.5h-16.6zm0 4.9H186v.5h-16.6zm0 4.9H186v.5h-16.6zm0 4.8H186v.5h-16.6zm0 4.9H186v.5h-16.6zm0 4.8H186v.5h-16.6zM101 117.2H86c-.7 0-1.3.6-1.3 1.3 0 .7.6 1.3 1.3 1.3h15c.7 0 1.3-.6 1.3-1.3-.1-.7-.6-1.3-1.3-1.3zm0 4.6H86c-.7 0-1.3.6-1.3 1.3 0 .7.6 1.3 1.3 1.3h15c.7 0 1.3-.6 1.3-1.3 0-.7-.6-1.3-1.3-1.3zm0 4.6H86c-.7 0-1.3.6-1.3 1.3 0 .7.6 1.3 1.3 1.3h15c.7 0 1.3-.6 1.3-1.3-.1-.7-.6-1.3-1.3-1.3zm-24 13.3l-11.9-3.2-12.4 3.3v2.4l12.4-3.3L77 142v73.3h3.1V99.8l-3.1 3.1zm162.8-1h8.7v2.1h-8.7zm0 4.1h8.7v2.1h-8.7zm0 4.1h8.7v2.1h-8.7zm0 4.1h8.7v2.1h-8.7zm0 4.1h8.7v2.1h-8.7zm0 4.1h8.7v2.1h-8.7zm76.4-17.1l12-3.2 12.4 3.3v-2.4l-12.4-3.3-12 3.2-12-3.2-12.4 3.3v2.4l12.4-3.3 12 3.2zm16.2 9.4h-7.7c-.7 0-1.3.6-1.3 1.3 0 .7.6 1.3 1.3 1.3h7.7c.7 0 1.3-.6 1.3-1.3 0-.7-.6-1.3-1.3-1.3zm0 5.1h-7.7c-.7 0-1.3.6-1.3 1.3 0 .7.6 1.3 1.3 1.3h7.7c.7 0 1.3-.6 1.3-1.3 0-.7-.6-1.3-1.3-1.3zm40.4 23.3h2.3v-29l-2.3-2.3zm-4.6 0h2.3v-29l-2.3-2.3zm-4.7 0h2.3v-29l-2.3-2.3zm-4.6 0h2.3v-29l-2.3-2.3zm-4.5 0h2.2v-29l-2.2-2.3zm-4.7 0h2.3v-29l-2.3-2.3zm-4.6 0h2.3v-29l-2.3-2.3zm-4.5 0h2.1v-29l-2.1-2.1zm105.7-65.2h16.6v2.8h-16.6zm0 7.1h16.6v.5h-16.6zm0 4.9h16.6v.5h-16.6zm0 4.8h16.6v.5h-16.6zm0 4.9h16.6v.5h-16.6zm0 4.9h16.6v.5h-16.6zm0 4.8h16.6v.5h-16.6zm0 4.9h16.6v.5h-16.6zm50.3 28.2h1.5l14.7-14.8 14.8 14.8h1.5l-16.3-16.3z"></path>
        <path d="M511.6 179.2h2.4l-1.2-1.2z"></path>
        <path d="M508.6 179.2h1.5l2.7-2.7 2.7 2.7h1.5l-4.2-4.2z"></path>
        <path d="M499.6 179.2h1.5l11.7-11.8 11.7 11.8h1.5l-13.2-13.3z"></path>
        <path d="M505.6 179.2h1.5l5.7-5.7 5.7 5.7h1.5l-7.2-7.2z"></path>
        <path d="M502.6 179.2h1.5l8.7-8.7 8.7 8.7h1.5l-10.2-10.3z"></path>
        <circle cx="474.8" cy="141.4" r="5.2"></circle>
        <path d="M650.5 179.9h2.3v-31.3l-2.3 2.3zm4.7 0h2.3v-31.3l-2.3 2.3zm4.6 0h2.3v-31.3l-2.3 2.3zm4.6 0h2.4v-31.3l-2.4 2.3zm4.6 0h2.3v-31.3l-2.3 2.3zm4.6 0h2.3v-31.3l-2.3 2.3zm4.6 0h2.4v-31.3l-2.4 2.3zm4.7 0h2.2v-31.1l-2.2 2.1zm-120.2-65.2h16.6v2.8h-16.6zm0 7.1h16.6v.5h-16.6zm0 4.9h16.6v.5h-16.6zm0 4.8h16.6v.5h-16.6zm0 4.9h16.6v.5h-16.6zm0 4.9h16.6v.5h-16.6zm0 4.8h16.6v.5h-16.6zm0 4.9h16.6v.5h-16.6zm-31.5-2.9l-18.3-18.3-18.3 18.3v-4.6l-1.7-1.7v73.5h1.7v-36.2h.6l17.7-17.7 17.7 17.7h.6v36.2h1.7v-73.5l-1.7 1.7v4.6zm-18.4-16.8l18.3 18.3v1.5l-18.3-18.4-18.3 18.4v-1.5l18.3-18.3zm0 22.6l-18.3 18.4v-1.5l18.3-18.3 18.3 18.3v1.5l-18.3-18.4zm18.4 19.8v1.5l-18.3-18.4-18.3 18.4v-1.5l18.3-18.3 18.3 18.3zm-18.4-22.8l-18.3 18.3v-1.5l18.3-18.3 18.3 18.3v1.5l-18.3-18.3zm0-3l-18.3 18.3v-1.5l18.3-18.3 18.3 18.3v1.5l-18.3-18.3zm0-3.1l-18.3 18.4v-1.5l18.3-18.3 18.3 18.3v1.5l-18.3-18.4zm0-3l-18.3 18.4v-1.5l18.3-18.3 18.3 18.3v1.5l-18.3-18.4zm0-3l-18.3 18.4v-1.5l18.3-18.3 18.3 18.3v1.5l-18.3-18.4zm0-3l-18.3 18.4v-1.5l18.3-18.3 18.3 18.3v1.5l-18.3-18.4zm0 24.1l-18.3 18.3v-1.5l18.3-18.3 18.3 18.3v1.5l-18.3-18.3z"></path>
        <circle cx="550.8" cy="141.4" r="5.2"></circle>
        <path d="M633.1 138.7h8.7v2.1h-8.7zm0 8.2h8.7v2.1h-8.7zm0 8.2h8.7v2.1h-8.7zm-564.5-8.7h-7.7c-.7 0-1.3.6-1.3 1.3 0 .7.6 1.3 1.3 1.3h7.7c.7 0 1.3-.6 1.3-1.3 0-.7-.6-1.3-1.3-1.3zm0 5.1h-7.7c-.7 0-1.3.6-1.3 1.3 0 .7.6 1.3 1.3 1.3h7.7c.7 0 1.3-.6 1.3-1.3 0-.7-.6-1.3-1.3-1.3zm0 5.1h-7.7c-.7 0-1.3.6-1.3 1.3 0 .7.6 1.3 1.3 1.3h7.7c.7 0 1.3-.6 1.3-1.3 0-.7-.6-1.3-1.3-1.3zm-22.7 58.7h2.3v-66.7l-2.3 2.3zm4.7 0h2.1v-66.5l-2.1 2.1zM0 138.7h9.5v2.1H0zm990 76.6h1.7v-73.5l-1.7 1.7zm185.9 0h1.7v-71.8l-1.7-1.7zm-393.2 0h1.6v-71.8l-1.6-1.7zm317.3-68.9h-7.7c-.7 0-1.3.6-1.3 1.3 0 .7.6 1.3 1.3 1.3h7.7c.7 0 1.3-.6 1.3-1.3 0-.7-.6-1.3-1.3-1.3zm0 5.1h-7.7c-.7 0-1.3.6-1.3 1.3 0 .7.6 1.3 1.3 1.3h7.7c.7 0 1.3-.6 1.3-1.3 0-.7-.6-1.3-1.3-1.3zm0 5.1h-7.7c-.7 0-1.3.6-1.3 1.3 0 .7.6 1.3 1.3 1.3h7.7c.7 0 1.3-.6 1.3-1.3 0-.7-.6-1.3-1.3-1.3zm40.5 58.7h2.3v-64.4l-2.3-2.3zm-4.7 0h2.3v-64.4l-2.3-2.3zm-4.6 0h2.3v-64.4l-2.3-2.3zm-4.7 0h2.3v-64.4l-2.3-2.3zm-4.5 0h2.3v-64.4l-2.3-2.3zm-4.6 0h2.3v-64.4l-2.3-2.3zm-4.7 0h2.3v-64.4l-2.3-2.3zm-4.5 0h2.2v-64.4l-2.2-2.1zm105.7-97.9h16.6v2.8h-16.6zm0 7.5h16.6v.5h-16.6zm0 4.9h16.6v.5h-16.6zm0 4.8h16.6v.5h-16.6zm0 4.9h16.6v.5h-16.6zm0 4.9h16.6v.5h-16.6zm0 4.8h16.6v.5h-16.6zm0 5v.5h16.7v-.6h-16.7zm0 4.8h16.6v.5h-16.6zm0 4.9h16.6v.5h-16.6zm0 4.9h16.6v.5h-16.6zm0 4.8h16.6v.5h-16.6zm0 4.9h16.6v.5h-16.6zm0 4.8h16.6v.5h-16.6zm51.8-4.1l14.8-14.7V163l-16.3 16.2zm14.8 0V178l-1.2 1.2zm-2.7 0l2.7-2.7V175l-4.2 4.2zm-9.1 0l11.8-11.7V166l-13.3 13.2zm6.1 0l5.7-5.7V172l-7.2 7.2zm-3 0l8.7-8.7V169l-10.3 10.2zm42.2-62h-15c-.7 0-1.3.6-1.3 1.3 0 .7.6 1.3 1.3 1.3h15c.7 0 1.3-.6 1.3-1.3 0-.7-.6-1.3-1.3-1.3zm0 4.6h-15c-.7 0-1.3.6-1.3 1.3 0 .7.6 1.3 1.3 1.3h15c.7 0 1.3-.6 1.3-1.3 0-.7-.6-1.3-1.3-1.3z"></path>
        <path d="M1262.1 143.5l-1.6-1.7v73.5h1.6v-36.1h.6l17.8-17.7V160l-18.4 18.3v-1.5l18.4-18.3V157l-18.4 18.3v-1.5l18.4-18.3v-1.6l-18.4 18.4v-1.5l18.4-18.4v-1.5l-18.4 18.4v-1.5l18.4-18.4v-1.5l-18.4 18.4v-1.5l18.4-18.4v-1.5l-18.4 18.3v-1.5l18.4-18.3v-1.5l-18.4 18.3v-1.5l18.4-18.3v-1.5l-18.4 18.3v-1.5l18.4-18.3v-1.5l-18.4 18.3v-1.5l18.4-18.3v-1.5l-18.4 18.3v-1.5l18.4-18.3v-1.6l-18.4 18.4z"></path>
        <circle cx="1242.5" cy="141.4" r="5.2"></circle>
        <path d="M1151.5 138.7h8.7v2.1h-8.7zm0 8.2h8.7v2.1h-8.7zm0 8.2h8.7v2.1h-8.7zm0 4.1h8.7v2.1h-8.7zm-43.3-17v-2.4l-12.4-3.3-12 3.2v2.4l12-3.2zm-83.3 73.1h2.3v-66.7l-2.3 2.3zm4.6 0h2.3v-66.7l-2.3 2.3zm4.7 0h2.3v-66.7l-2.3 2.3zm4.6 0h2.3v-66.7l-2.3 2.3zm4.6 0h2.2v-66.7l-2.2 2.3zm4.6 0h2.3v-66.7l-2.3 2.3zm4.6 0h2.3v-66.7l-2.3 2.3zm4.6 0h2.2v-66.5l-2.2 2.1zM937.1 114.7h16.6v2.8h-16.6zm0 7.1h16.6v.5h-16.6zm0 4.9h16.6v.5h-16.6zm0 9.7h16.6v.5h-16.6zm0 9.7h16.6v.5h-16.6zm0 4.9h16.6v.5h-16.6z"></path>
        <circle cx="925.2" cy="141.4" r="5.2"></circle>
        <path d="M1007.5 146.9h8.7v2.1h-8.7zm0 4.1h8.7v2.1h-8.7zm0 8.2h8.7v2.1h-8.7zm-299.8-7.4h-15.3c-.7 0-1.3.6-1.3 1.3 0 .7.6 1.3 1.3 1.3h15.3c.7 0 1.3-.6 1.3-1.3 0-.8-.6-1.3-1.3-1.3zm0 5.1h-15.3c-.7 0-1.3.6-1.3 1.3 0 .7.6 1.3 1.3 1.3h15.3c.7 0 1.3-.6 1.3-1.3 0-.7-.6-1.3-1.3-1.3zm39.5 23h2.3v-29l-2.3-2.3zm-4.7 0h2.3v-29l-2.3-2.3zm-4.6 0h2.3v-29l-2.3-2.3zm-4.7 0h2.3v-29l-2.3-2.3zm-4.5 0h2.3v-29l-2.3-2.3zm-4.6 0h2.3v-29l-2.3-2.3zm-4.7 0h2.3v-29l-2.3-2.3zm-4.5 0h2.2v-29l-2.2-2.1zm105.7-65.2h16.6v2.8h-16.6zm0 7.1h16.6v.5h-16.6zm0 4.9h16.6v.5h-16.6zm0 14.6h16.6v.5h-16.6zm0 4.8h16.6v.5h-16.6zm0 4.9h16.6v.5h-16.6zm50.3 28.2h1.5l14.8-14.8 14.7 14.8h1.5l-16.2-16.3zm-2.1-31v1.5l18.4-18.4 18.4 18.4v-1.5l-18.4-18.4z"></path>
        <path d="M886 179.2h2.4l-1.2-1.2zm-17.2-28v1.5l18.4-18.4 18.4 18.4v-1.5l-18.4-18.4z"></path>
        <path d="M883 179.2h1.5l2.7-2.7 2.7 2.7h1.5l-4.2-4.2z"></path>
        <path d="M874 179.2h1.5l11.7-11.8 11.7 11.8h1.5l-13.2-13.3z"></path>
        <path d="M880 179.2h1.5l5.7-5.7 5.7 5.7h1.5l-7.2-7.2z"></path>
        <path d="M877 179.2h1.5l8.7-8.7 8.7 8.7h1.5l-10.2-10.3zm-8.2-12.9v1.5l18.4-18.4 18.4 18.4v-1.5l-18.4-18.4z"></path>
        <path d="M868.8 154.2v1.5l18.4-18.4 18.4 18.4v-1.5l-18.4-18.4z"></path>
        <path d="M868.8 169.3v1.5l18.4-18.4 18.4 18.4v-1.5l-18.4-18.4z"></path>
        <path d="M868.8 172.3v1.5l18.4-18.4 18.4 18.4v-1.5l-18.4-18.4z"></path>
        <path d="M868.8 178.3v.9h.6l17.8-17.8 17.7 17.8h.7v-.9l-18.4-18.4z"></path>
        <path d="M868.8 175.3v1.5l18.4-18.4 18.4 18.4v-1.5l-18.4-18.4z"></path>
        <path d="M868.8 163.3v1.5l18.4-18.4 18.4 18.4v-1.5l-18.4-18.4z"></path>
        <path d="M868.8 157.2v1.5l18.4-18.4 18.4 18.4v-1.5l-18.4-18.4z"></path>
        <path d="M868.8 160.2v1.6l18.4-18.5 18.4 18.5v-1.6l-18.4-18.4z"></path>
        <circle cx="849.2" cy="141.4" r="5.2"></circle>
        <path d="M758.2 142.8h8.7v2.1h-8.7zm0 12.3h8.7v2.1h-8.7zm0 4.1h8.7v2.1h-8.7zm-43.3-17v-2.9l-14.9-4-14.9 4v2.9l14.9-4zm624.2 4.2h-7.7c-.7 0-1.3.6-1.3 1.3 0 .7.6 1.3 1.3 1.3h7.7c.7 0 1.3-.6 1.3-1.3 0-.7-.6-1.3-1.3-1.3zm40.4 68.9h2.3v-64.4l-2.3-2.3zm-4.6 0h2.3v-64.4l-2.3-2.3zm-4.7 0h2.3v-64.4l-2.3-2.3zm-4.6 0h2.3v-64.4l-2.3-2.3zm-4.5 0h2.2v-64.4l-2.2-2.3zm-4.7 0h2.3v-64.4l-2.3-2.3zm-4.6 0h2.3v-64.4l-2.3-2.3zm-4.6 0h2.2v-64.4l-2.2-2.1zm43.3-56.1h9.5v2.1h-9.5z"></path>
        <path d="M1334.9 138.9l12.4 3.3v-2.4l-12.4-3.3-11.9 3.2v-36.8l-3.1-3.1v115.5h3.1V142z"></path>
    </g>
    <g fill="#A2A3BB">
        <path d="M307.6 151.5H300c-.7 0-1.3.6-1.3 1.3 0 .7.6 1.3 1.3 1.3h7.7c.7 0 1.3-.6 1.3-1.3-.1-.7-.6-1.3-1.4-1.3zm0 5.1H300c-.7 0-1.3.6-1.3 1.3 0 .7.6 1.3 1.3 1.3h7.7c.7 0 1.3-.6 1.3-1.3-.1-.7-.6-1.3-1.4-1.3zm-188.1 7.9l14.8 14.7h1.5L119.5 163zm0 14.7h1.2l-1.2-1.2zm0-2.7l2.7 2.7h1.5l-4.2-4.2zm0-9l11.7 11.7h1.6L119.5 166zm0 6l5.7 5.7h1.5l-7.2-7.2zm0-3l8.7 8.7h1.5L119.5 169z"></path>
        <path d="M137.9 148.2l-18.4-18.4v1.6l18.4 18.3v1.5l-18.4-18.3v1.5l18.4 18.3v1.5l-18.4-18.3v1.5l18.4 18.3v1.5l-18.4-18.3v1.5l18.4 18.3v1.5l-18.4-18.3v1.5l18.4 18.3v1.5l-18.4-18.3v1.5l18.4 18.4v1.5l-18.4-18.4v1.5l18.4 18.4v1.5l-18.4-18.4v1.5l18.4 18.4v1.5l-18.4-18.4v1.6l18.4 18.3v1.5L119.5 157v1.5l18.4 18.3v1.5L119.5 160v1.5l17.8 17.7h.6v36.1h1.6v-73.5l-1.6 1.7z"></path>
        <circle cx="157.5" cy="141.4" r="5.2"></circle>
        <path d="M332.4 146.4h-7.7c-.7 0-1.3.6-1.3 1.3 0 .7.6 1.3 1.3 1.3h7.7c.7 0 1.3-.6 1.3-1.3 0-.7-.6-1.3-1.3-1.3zm51.4-7.7h8.7v2.1h-8.7zm0 4.1h8.7v2.1h-8.7zm0 4.1h8.7v2.1h-8.7zm0 4.1h8.7v2.1h-8.7zm0 4.1h8.7v2.1h-8.7zm0 4.1h8.7v2.1h-8.7zm249.3-16.4h8.7v2.1h-8.7zm0 8.2h8.7v2.1h-8.7zm0 8.2h8.7v2.1h-8.7zM18.2 215.3h2.3v-66.7l-2.3 2.3zm4.6 0h2.3v-66.7l-2.3 2.3zm4.7 0h2.3v-66.7l-2.3 2.3zm4.6 0h2.3v-66.7l-2.3 2.3zm4.6 0h2.2v-66.7l-2.2 2.3zm4.6 0h2.3v-66.7l-2.3 2.3zM0 142.8h9.5v2.1H0zm0 4.1h9.5v2.1H0zm0 4.1h9.5v2.1H0zm0 4.1h9.5v2.1H0zm0 4.1h9.5v2.1H0zm1314-32.8h-15c-.7 0-1.3.6-1.3 1.3 0 .7.6 1.3 1.3 1.3h15c.7 0 1.3-.6 1.3-1.3 0-.7-.6-1.3-1.3-1.3zm-162.5 16.4h8.7v2.1h-8.7zm0 8.2h8.7v2.1h-8.7zm-76.2-4.6h-7.7c-.7 0-1.3.6-1.3 1.3 0 .7.6 1.3 1.3 1.3h7.7c.7 0 1.3-.6 1.3-1.3 0-.7-.6-1.3-1.3-1.3zm0 5.1h-7.7c-.7 0-1.3.6-1.3 1.3 0 .7.6 1.3 1.3 1.3h7.7c.7 0 1.3-.6 1.3-1.3 0-.7-.6-1.3-1.3-1.3zm0 5.1h-7.7c-.7 0-1.3.6-1.3 1.3 0 .7.6 1.3 1.3 1.3h7.7c.7 0 1.3-.6 1.3-1.3 0-.7-.6-1.3-1.3-1.3zm-138.2-25.1h16.6v.5h-16.6zm0 9.8h16.6v.5h-16.6zm-31.6 74h1.7v-73.5l-1.7 1.7zm102-76.6h8.7v2.1h-8.7zm0 4.1h8.7v2.1h-8.7zm0 12.3h8.7v2.1h-8.7zm64.3-18.6l-12.4 3.3v2.4l12.4-3.3 12 3.2v-2.4l-12-3.2zm-364.1 10.2h-15.3c-.7 0-1.3.6-1.3 1.3 0 .7.6 1.3 1.3 1.3h15.3c.7 0 1.3-.6 1.3-1.3 0-.7-.6-1.3-1.3-1.3zm112.9-15.2h16.6v.5h-16.6zm0 4.9h16.6v.5h-16.6zm46.6 78.9h1.6v-71.8l-1.6-1.7zm-109-76.6h8.7v2.1h-8.7zm0 8.2h8.7v2.1h-8.7zm0 4.1h8.7v2.1h-8.7zm580.9.5h-7.7c-.7 0-1.3.6-1.3 1.3 0 .7.6 1.3 1.3 1.3h7.7c.7 0 1.3-.6 1.3-1.3 0-.7-.6-1.3-1.3-1.3zm0 5.1h-7.7c-.7 0-1.3.6-1.3 1.3 0 .7.6 1.3 1.3 1.3h7.7c.7 0 1.3-.6 1.3-1.3 0-.7-.6-1.3-1.3-1.3zm51.4-17.9h9.5v2.1h-9.5zm0 4.1h9.5v2.1h-9.5zm0 4.1h9.5v2.1h-9.5zm0 4.1h9.5v2.1h-9.5zm0 4.1h9.5v2.1h-9.5z"></path>
    </g>
    <path d="M483.2 129.3c-6.8 0-13.3 3.1-17.6 8.4v-8.4h-5v36.5l-3.5-3.5-3.5 3.5-3.5-3.5-3.5 3.5-3.5-3.5-3.5 3.5-3.5-3.5-3.5 3.5h-7l-2.5 2.5-27.7-27.7V115c-13.9 0-25.2 11.2-25.2 25.1v.1V115c-13.9 0-25.1 11.3-25.1 25.1V171h-35.2v-2.5c0-4.7-3.8-8.5-8.5-8.5s-8.5 3.8-8.5 8.5v.7l-19.1-9.3v9.3h-2l-4-4h-29l-4 4h-2v-9.3l-19.1 9.3v-.7c0-4.7-3.8-8.6-8.5-8.6s-8.6 3.8-8.6 8.5v2.5H161V140c0-13.9-11.3-25.1-25.1-25.1V140c0-13.9-11.3-25.1-25.1-25.1v25.7L83 168.4l-2.5-2.5h-7.1l-3.5-3.5-3.5 3.5-3.5-3.5-3.5 3.5-3.5-3.5-3.5 3.5-3.5-3.5-3.5 3.5v-36.5h-5v8.4c-7.9-9.7-22.1-11.2-31.8-3.4C3.2 138.6.1 145 0 151.7v63.6h505.8v-63.6c-.1-12.4-10.2-22.4-22.6-22.4zm687.2 0c-6.8 0-13.3 3.1-17.6 8.4v-8.4h-5v36.5l-3.5-3.5-3.5 3.5-3.5-3.5-3.5 3.5-3.5-3.5-3.5 3.5-3.5-3.5-3.5 3.5h-7l-2.5 2.5-27.7-27.7V115c-13.9 0-25.1 11.3-25.1 25.2V115c-13.9 0-25.2 11.2-25.2 25.1V171h-35.2v-2.5c0-4.7-3.8-8.5-8.5-8.5s-8.5 3.8-8.5 8.5v.7l-19.1-9.3v9.3h-2l-4-4h-29l-4 4h-2v-9.3l-19.1 9.3v-.7c0-4.7-3.8-8.5-8.6-8.5-4.7 0-8.5 3.8-8.5 8.5v2.5h-35.2v-30.9c0-13.9-11.3-25.1-25.1-25.1v25.1c0-13.9-11.3-25.1-25.1-25.1v25.7l-27.7 27.7-2.5-2.5h-7l-3.5-3.5-3.5 3.5-3.5-3.5-3.5 3.5-3.5-3.5-3.5 3.5-3.5-3.5-3.5 3.5v-36.5h-5v8.4c-7.9-9.7-22.1-11.2-31.8-3.4-5.3 4.2-8.3 10.6-8.4 17.4V169l-5.1.9v-1.3c0-4.7-3.8-8.6-8.5-8.6s-8.6 3.8-8.6 8.5v.7l-19.1-9.3v9.3h-4l-4-4h-24.1l-4 4h-5v-9.3l-19.1 9.3v-.7c0-4.7-3.8-8.6-8.5-8.6s-8.6 3.8-8.6 8.5v2.5h-35.2V140c0-13.9-11.3-25.1-25.1-25.1v100.3h684.7v-63.6c-.9-12.3-11-22.3-23.4-22.3zm199 40.6v-1.3c0-4.7-3.8-8.5-8.5-8.5s-8.5 3.8-8.5 8.5v.7l-19.1-9.3v9.3h-4l-4-4h-24.1l-4 4h-5V160l-19.1 9.3v-.7c0-4.7-3.8-8.5-8.5-8.5s-8.5 3.8-8.5 8.5v2.5h-35.2v-30.9c0-13.9-11.2-25.2-25.1-25.2v100.4h177.5l2-46.5-5.9 1z"
        fill="#AAABC3"></path>
    <path fill="#A0A1BB" d="M1082.4 215.4h2l-2-2zm27.7-44.8l-27.7-27.7v2.3l27.7 27.7v2.2l-27.7-27.6v2.2l27.7 27.7v2.3l-27.7-27.7v2.3l27.7 27.6v2.3l-27.7-27.7v2.3l27.7 27.7v2.2l-27.7-27.6v2.2l27.7 27.7v2.2l-27.7-27.6v2.2l27.7 27.7v2.3l-27.7-27.7v2.3l27.7 27.6v2.3l-27.7-27.7v2.3l27.7 27.7v2.2l-27.7-27.6v2.2l27.7 27.7v2.3l-27.7-27.7v2.3l27.7 27.6v-.5 2.3h2.5v-49.6l-2.5 2.5zm-27.7 42.5l2.3 2.3h2.3l-4.6-4.6zm0-22.6l24.9 24.9h2.3l-27.2-27.2zm0 13.6l11.3 11.3h2.3l-13.6-13.6zm0-9.1l20.4 20.4h2.2l-22.6-22.7zm0 13.6l6.8 6.8h2.3l-9.1-9.1zm0-9.1l15.9 15.9h2.2l-18.1-18.1zm-286.5 15.9h2V213l-2.3 2.4zm-21.3 0l23.3-23.3v-2.3l-25.6 25.6zm14 0l9.3-9.3v-2.4l-11.6 11.7zm-9.3 0l18.6-18.7v-2.3l-20.9 21zm13.9 0l4.7-4.7v-2.3l-7 7zm-9.3 0l14-14v-2.3l-16.3 16.3zM769.5 174l28.4-28.4v-2.4l-28.4 28.5zm0 4.6l28.4-28.4v-2.3l-28.4 28.4zm0 9.4l28.4-28.5v-2.3l-28.4 28.4zm0 23.2l28.4-28.4v-2.3l-28.4 28.4zm0 4.2h.5l27.9-28v-2.3l-28.4 28.5zm0-32.1l28.4-28.4v-2.4L769.5 181zm0 23.3l28.4-28.5v-2.3l-28.4 28.4zm0-14l28.4-28.4v-2.4l-28.4 28.5zm0 9.3l28.4-28.4v-2.4l-28.4 28.5zm0-4.6l28.4-28.5v-2.3l-28.4 28.4zm-374.3 18.1h2l-2-2zm27.6-44.8l-27.6-27.7v2.3l27.6 27.7v2.2l-27.6-27.6v2.2l27.6 27.7v2.3L395.2 152v2.3l27.6 27.6v2.3l-27.6-27.7v2.3l27.6 27.7v2.2l-27.6-27.6v2.2l27.6 27.7v2.2l-27.6-27.6v2.2l27.6 27.7v2.3l-27.6-27.7v2.3l27.6 27.6v2.3l-27.6-27.7v2.3l27.6 27.7v2.2l-27.6-27.6v2.2l27.6 27.7v2.3l-27.6-27.7v2.3l27.6 27.6v-.5 2.3h2.6v-49.6l-2.6 2.5zm-27.6 42.5l2.2 2.3h2.3l-4.5-4.6zm0-22.6l24.9 24.9h2.2l-27.1-27.2zm0 13.6l11.3 11.3h2.2l-13.5-13.6zm0-9.1l20.3 20.4h2.3l-22.6-22.7zm0 13.6l6.7 6.8h2.3l-9-9.1zm0-9.1l15.8 15.9h2.3l-18.1-18.1zm-287.1-56.3l2.6-2.5V115l-2.6 2.5zm-92.7 10.9h5.4v5.4h-5.4zm9.2 0H30v5.4h-5.4zm9.2 0h5.4v5.4h-5.4zm-27.6 8.7h5.4v5.4H6.2zm18.4 0H30v5.4h-5.4zm9.2 0h5.4v5.4h-5.4zm-27.6 8.7h5.4v5.4H6.2zm9.2 0h5.4v5.4h-5.4zm9.2 0H30v5.4h-5.4zm-18.4 8.7h5.4v5.4H6.2zm9.2 0h5.4v5.4h-5.4zm9.2 0H30v5.4h-5.4zm9.2 0h5.4v5.4h-5.4zm-27.6 8.7h5.4v5.4H6.2zm9.2 0h5.4v5.4h-5.4zm18.4 0h5.4v5.4h-5.4zm-18.4 8.4h5.4v5.4h-5.4zm9.2 0H30v5.4h-5.4zm9.2 0h5.4v5.4h-5.4zm-11-61.6c-7.8 0-14.5 5.3-16.4 12.8 5.3-1.3 10.7-2 16.2-1.9 5.6 0 11.3.7 16.7 2.1-2-7.7-8.7-13-16.5-13z"></path>
    <circle fill="#A0A1BB" cx="52.3" cy="173.7" r="1.8"></circle>
    <circle fill="#A0A1BB" cx="59.4" cy="173.7" r="1.8"></circle>
    <circle fill="#A0A1BB" cx="66.4" cy="173.7" r="1.8"></circle>
    <circle fill="#A0A1BB" cx="73.4" cy="173.7" r="1.8"></circle>
    <circle fill="#A0A1BB" cx="52.3" cy="182.7" r="1.8"></circle>
    <circle fill="#A0A1BB" cx="59.4" cy="182.7" r="1.8"></circle>
    <circle fill="#A0A1BB" cx="66.4" cy="182.7" r="1.8"></circle>
    <circle fill="#A0A1BB" cx="73.4" cy="182.7" r="1.8"></circle>
    <circle fill="#A0A1BB" cx="52.3" cy="191.6" r="1.8"></circle>
    <circle fill="#A0A1BB" cx="59.4" cy="191.6" r="1.8"></circle>
    <circle fill="#A0A1BB" cx="66.4" cy="191.6" r="1.8"></circle>
    <circle fill="#A0A1BB" cx="73.4" cy="191.6" r="1.8"></circle>
    <circle fill="#A0A1BB" cx="52.3" cy="200.6" r="1.8"></circle>
    <circle fill="#A0A1BB" cx="59.4" cy="200.6" r="1.8"></circle>
    <circle fill="#A0A1BB" cx="66.4" cy="200.6" r="1.8"></circle>
    <circle fill="#A0A1BB" cx="73.4" cy="200.6" r="1.8"></circle>
    <path fill="#A0A1BB" d="M144.6 148.5l8.6-8.5h-8.6zm0 12.6l8.6-8.6h-8.6zm0 12.6l8.6-8.6h-8.6zm0 12.5l8.6-8.5h-8.6zm0 12.6l8.6-8.5h-8.6zm0 12.6l8.6-8.6h-8.6zm89.8 4h4v-50.1l-4 4.1zm37.1 0h-4.1v-50.1l4.1 4.1zm-58.2 0h19.1v-55.3l-19.1 9.3z"></path>
    <circle fill="#A0A1BB" cx="204.7" cy="169.1" r="6.3"></circle>
    <path fill="#A0A1BB" d="M208.7 178.2h-7.8c-1.4 0-2.5 1.1-2.5 2.5s1.1 2.5 2.5 2.5h7.8c1.4-.1 2.4-1.3 2.3-2.7-.1-1.1-1-2.1-2.3-2.3zm0 7.1h-7.8c-1.4 0-2.5 1.1-2.5 2.5s1.1 2.5 2.5 2.5h7.8c1.4-.1 2.4-1.3 2.3-2.7-.1-1.2-1-2.2-2.3-2.3zm0 7h-7.8c-1.4 0-2.5 1.1-2.5 2.5s1.1 2.5 2.5 2.5h7.8c1.4-.1 2.4-1.3 2.3-2.7-.1-1.2-1-2.1-2.3-2.3zm0 7h-7.8c-1.4 0-2.5 1.1-2.5 2.5s1.1 2.5 2.5 2.5h7.8c1.4-.1 2.4-1.3 2.3-2.7-.1-1.1-1-2.1-2.3-2.3zm-75.4 16.1h2.5V115l-2.5 2.5zm-14.6-66.9l8.6-8.5h-8.6zm0 12.6l8.6-8.6h-8.6zm0 12.6l8.6-8.6h-8.6zm0 12.5l8.6-8.5h-8.6zm0 12.6l8.6-8.5h-8.6zm0 12.6l8.6-8.6h-8.6zm414.8-42.5h35.2v46.5h-35.2zm-16.4-20.4l8.6-8.5h-8.6zm0 12.6l8.6-8.6h-8.6zm0 12.6l8.6-8.6h-8.6zm0 12.5l8.6-8.5h-8.6zm0 12.6l8.6-8.5h-8.6zm92.8 16.6h4v-50.1l-4 4.1zm-24.1 0h19.1v-55.3l-19.1 9.3z"></path>
    <circle fill="#A0A1BB" cx="577.2" cy="169.1" r="6.3"></circle>
    <path fill="#A0A1BB" d="M581.3 178.2h-7.8c-1.4 0-2.5 1.1-2.5 2.5s1.1 2.5 2.5 2.5h7.8c1.4-.1 2.4-1.3 2.3-2.7-.2-1.1-1.1-2.1-2.3-2.3zm0 7.1h-7.8c-1.4 0-2.5 1.1-2.5 2.5s1.1 2.5 2.5 2.5h7.8c1.4-.1 2.4-1.3 2.3-2.7-.2-1.2-1.1-2.2-2.3-2.3zm0 7h-7.8c-1.4 0-2.5 1.1-2.5 2.5s1.1 2.5 2.5 2.5h7.8c1.4-.1 2.4-1.3 2.3-2.7-.2-1.2-1.1-2.1-2.3-2.3zm0 7h-7.8c-1.4 0-2.5 1.1-2.5 2.5s1.1 2.5 2.5 2.5h7.8c1.4-.1 2.4-1.3 2.3-2.7-.2-1.1-1.1-2.1-2.3-2.3zm-75.5 16.1h2.5V115l-2.5 2.5zm176.4-46.5h5.6v46.5h-5.6zM638 215.4h4v-46l-4-4.1zm316.4 0h4v-46l-4-4.1zm-308.4 0h19.1v-46l-19.1-9.3z"></path>
    <circle fill="#A0A1BB" cx="673.6" cy="169.1" r="6.3"></circle>
    <path fill="#A0A1BB" d="M677.4 178.2h-7.8c-1.4.1-2.4 1.3-2.3 2.7.1 1.2 1.1 2.2 2.3 2.3h7.8c1.4 0 2.5-1.1 2.5-2.5s-1.1-2.5-2.5-2.5zm0 7h-7.8c-1.4.1-2.4 1.3-2.3 2.7.1 1.2 1.1 2.2 2.3 2.3h7.8c1.4 0 2.5-1.1 2.5-2.5s-1.1-2.5-2.5-2.5zm0 7.1h-7.8c-1.4.1-2.4 1.3-2.3 2.7.1 1.2 1.1 2.2 2.3 2.3h7.8c1.4 0 2.5-1.1 2.5-2.5s-1.1-2.6-2.5-2.5c0-.1 0-.1 0 0zm0 7h-7.8c-1.4.1-2.4 1.3-2.3 2.7.1 1.2 1.1 2.2 2.3 2.3h7.8c1.4 0 2.5-1.1 2.5-2.5s-1.1-2.5-2.5-2.5zm-367.7-30.4h35.2v46.5h-35.2zm88-51.4l-2.5-2.5v25.7l2.5 2.5zM485 154h5.4v5.4H485zm-9.2 0h5.4v5.4h-5.4zm-9.2 0h5.4v5.4h-5.4zm27.6 8.7h5.4v5.4h-5.4zm-18.4 0h5.4v5.4h-5.4zm-9.2 0h5.4v5.4h-5.4zm27.6 8.8h5.4v5.4h-5.4zm-9.2 0h5.4v5.4H485zm-9.2 0h5.4v5.4h-5.4zm18.4 8.7h5.4v5.4h-5.4zm-9.2 0h5.4v5.4H485zm-9.2 0h5.4v5.4h-5.4zm-9.2 0h5.4v5.4h-5.4zm27.6 8.7h5.4v5.4h-5.4zm-9.2 0h5.4v5.4H485zm-18.4 0h5.4v5.4h-5.4zm18.4 8.4h5.4v5.4H485zm-9.2 0h5.4v5.4h-5.4zm-9.2 0h5.4v5.4h-5.4zm16.5-61.6c-7.8 0-14.6 5.3-16.5 12.9 10.8-2.7 22.1-2.8 32.9-.1-1.9-7.6-8.7-12.8-16.4-12.8z"></path>
    <circle fill="#A0A1BB" cx="453.5" cy="173.7" r="1.8"></circle>
    <circle fill="#A0A1BB" cx="446.5" cy="173.7" r="1.8"></circle>
    <circle fill="#A0A1BB" cx="439.4" cy="173.7" r="1.8"></circle>
    <circle fill="#A0A1BB" cx="432.4" cy="173.7" r="1.8"></circle>
    <circle fill="#A0A1BB" cx="453.5" cy="182.6" r="1.8"></circle>
    <circle fill="#A0A1BB" cx="446.5" cy="182.6" r="1.8"></circle>
    <circle fill="#A0A1BB" cx="439.4" cy="182.6" r="1.8"></circle>
    <circle fill="#A0A1BB" cx="432.4" cy="182.6" r="1.8"></circle>
    <circle fill="#A0A1BB" cx="453.5" cy="191.6" r="1.8"></circle>
    <circle fill="#A0A1BB" cx="446.5" cy="191.6" r="1.8"></circle>
    <circle fill="#A0A1BB" cx="439.4" cy="191.6" r="1.8"></circle>
    <circle fill="#A0A1BB" cx="432.4" cy="191.6" r="1.8"></circle>
    <circle fill="#A0A1BB" cx="453.5" cy="200.6" r="1.8"></circle>
    <circle fill="#A0A1BB" cx="446.5" cy="200.6" r="1.8"></circle>
    <circle fill="#A0A1BB" cx="439.4" cy="200.6" r="1.8"></circle>
    <circle fill="#A0A1BB" cx="432.4" cy="200.6" r="1.8"></circle>
    <path fill="#A0A1BB" d="M361.2 148.5V140h-8.5zm0 12.6v-8.6h-8.5zm0 12.6v-8.6h-8.5zm0 12.5v-8.5h-8.5zm0 12.6v-8.5h-8.5zm-87.8 16.6h19.2v-46.1l-19.2-9.2z"></path>
    <circle fill="#A0A1BB" cx="301.1" cy="169.1" r="6.3"></circle>
    <path fill="#A0A1BB" d="M304.9 178.2H297c-1.4.1-2.4 1.3-2.3 2.7.1 1.2 1.1 2.2 2.3 2.3h7.8c1.4 0 2.5-1.1 2.5-2.5.1-1.4-1.1-2.6-2.4-2.5-.1-.1-.1-.1 0 0zm0 7H297c-1.4.1-2.4 1.3-2.3 2.7.1 1.2 1.1 2.2 2.3 2.3h7.8c1.4 0 2.5-1.1 2.5-2.5.1-1.4-1.1-2.5-2.4-2.5-.1 0-.1 0 0 0zm0 7.1H297c-1.4.1-2.4 1.3-2.3 2.7.1 1.2 1.1 2.2 2.3 2.3h7.8c1.4 0 2.5-1.1 2.5-2.5.1-1.5-1.1-2.6-2.4-2.5-.1-.1-.1-.1 0 0zm0 7H297c-1.4.1-2.4 1.3-2.3 2.7.1 1.2 1.1 2.2 2.3 2.3h7.8c1.4 0 2.5-1.1 2.5-2.5.1-1.4-1.1-2.6-2.4-2.5-.1-.1-.1-.1 0 0zm65.1 16.1h2.5v-97.9L370 115zm17.1-66.9V140h-8.5zm0 12.6v-8.6h-8.5zm0 12.6v-8.6h-8.5zm0 12.5v-8.5h-8.5zm0 12.6v-8.5h-8.5zm-144.3-27.4h19.4v.9h-19.4zm0 2.4h19.4v.9h-19.4zm0 2.4h19.4v.9h-19.4zm0 2.5h19.4v.9h-19.4zm0 2.4h19.4v.9h-19.4zm0 2.5h19.4v.9h-19.4zm0 2.4h19.4v.9h-19.4zm0 2.4h19.4v.9h-19.4zm0 2.5h19.4v.9h-19.4zm0 2.4h19.4v.9h-19.4zm0 2.5h19.4v.9h-19.4zm0 2.4h19.4v.9h-19.4zm0 2.4h19.4v.9h-19.4zm0 2.5h19.4v.9h-19.4zm0 2.4h19.4v.9h-19.4zm376-34.1h5.7v.9h-5.7zm0 2.4h5.7v.9h-5.7zm0 2.4h5.7v.9h-5.7zm0 2.5h5.7v.9h-5.7zm0 2.4h5.7v.9h-5.7zm0 4.9h5.7v.9h-5.7zm0 2.4h5.7v.9h-5.7zm0 2.5h5.7v.9h-5.7zm0 4.9h5.7v.9h-5.7zm0 2.4h5.7v.9h-5.7zm0 2.4h5.7v.9h-5.7zm0 2.5h5.7v.9h-5.7zm0 2.4h5.7v.9h-5.7zm0 2.5h5.7v.9h-5.7zm8.3-36.6h5.7v.9h-5.7zm0 2.4h5.7v.9h-5.7zm0 4.9h5.7v.9h-5.7zm0 2.4h5.7v.9h-5.7zm0 2.5h5.7v.9h-5.7zm0 2.4h5.7v.9h-5.7zm0 4.9h5.7v.9h-5.7zm0 2.4h5.7v.9h-5.7zm0 2.5h5.7v.9h-5.7zm0 2.4h5.7v.9h-5.7zm0 2.4h5.7v.9h-5.7zm0 2.5h5.7v.9h-5.7zm0 2.4h5.7v.9h-5.7zm221.1-36.6h35.2v46.5h-35.2zm-52.8-25.7l2.5-2.5V115l-2.5 2.5zm-92.7 10.9h5.4v5.4h-5.4zm9.2 0h5.4v5.4h-5.4zm9.2 0h5.4v5.4h-5.4zm-27.6 8.7h5.4v5.4h-5.4zm18.4 0h5.4v5.4h-5.4zm9.2 0h5.4v5.4h-5.4zm-27.6 8.7h5.4v5.4h-5.4zm9.2 0h5.4v5.4h-5.4zm9.2 0h5.4v5.4h-5.4zm-18.4 8.7h5.4v5.4h-5.4zm9.2 0h5.4v5.4h-5.4zm9.2 0h5.4v5.4h-5.4zm9.2 0h5.4v5.4h-5.4zm-27.6 8.7h5.4v5.4h-5.4zm9.2 0h5.4v5.4h-5.4zm18.4 0h5.4v5.4h-5.4zm-18.4 8.4h5.4v5.4h-5.4zm9.2 0h5.4v5.4h-5.4zm9.2 0h5.4v5.4h-5.4zM710 135.7c-7.8 0-14.5 5.3-16.4 12.8 10.8-2.6 22.1-2.6 32.9.1-1.9-7.6-8.7-12.9-16.5-12.9z"></path>
    <circle fill="#A0A1BB" cx="739.6" cy="173.7" r="1.8"></circle>
    <circle fill="#A0A1BB" cx="746.6" cy="173.7" r="1.8"></circle>
    <circle fill="#A0A1BB" cx="753.6" cy="173.7" r="1.8"></circle>
    <circle fill="#A0A1BB" cx="760.7" cy="173.7" r="1.8"></circle>
    <circle fill="#A0A1BB" cx="739.6" cy="182.7" r="1.8"></circle>
    <circle fill="#A0A1BB" cx="746.6" cy="182.7" r="1.8"></circle>
    <circle fill="#A0A1BB" cx="753.6" cy="182.7" r="1.8"></circle>
    <circle fill="#A0A1BB" cx="760.7" cy="182.7" r="1.8"></circle>
    <circle fill="#A0A1BB" cx="739.6" cy="191.6" r="1.8"></circle>
    <circle fill="#A0A1BB" cx="746.6" cy="191.6" r="1.8"></circle>
    <circle fill="#A0A1BB" cx="753.6" cy="191.6" r="1.8"></circle>
    <circle fill="#A0A1BB" cx="760.7" cy="191.6" r="1.8"></circle>
    <circle fill="#A0A1BB" cx="739.6" cy="200.6" r="1.8"></circle>
    <circle fill="#A0A1BB" cx="746.6" cy="200.6" r="1.8"></circle>
    <circle fill="#A0A1BB" cx="753.6" cy="200.6" r="1.8"></circle>
    <circle fill="#A0A1BB" cx="760.7" cy="200.6" r="1.8"></circle>
    <path fill="#A0A1BB" d="M831.9 148.5l8.5-8.5h-8.5zm0 12.6l8.5-8.6h-8.5zm0 12.6l8.5-8.6h-8.5zm0 12.5l8.5-8.5h-8.5zm0 12.6l8.5-8.5h-8.5zm0 12.6l8.5-8.6h-8.5zm89.7 4h4.1v-50.1l-4.1 4.1zm-21.1 0h19.1v-55.3l-19.1 9.3z"></path>
    <circle fill="#A0A1BB" cx="892" cy="169.1" r="6.3"></circle>
    <path fill="#A0A1BB" d="M896 178.2h-7.8c-1.4 0-2.5 1.1-2.5 2.5s1.1 2.5 2.5 2.5h7.8c1.4-.1 2.4-1.3 2.3-2.7-.1-1.1-1.1-2.1-2.3-2.3zm0 7.1h-7.8c-1.4 0-2.5 1.1-2.5 2.5s1.1 2.5 2.5 2.5h7.8c1.4-.1 2.4-1.3 2.3-2.7-.1-1.2-1.1-2.2-2.3-2.3zm0 7h-7.8c-1.4 0-2.5 1.1-2.5 2.5s1.1 2.5 2.5 2.5h7.8c1.4-.1 2.4-1.3 2.3-2.7-.1-1.2-1.1-2.1-2.3-2.3zm0 7h-7.8c-1.4 0-2.5 1.1-2.5 2.5s1.1 2.5 2.5 2.5h7.8c1.4-.1 2.4-1.3 2.3-2.7-.1-1.1-1.1-2.1-2.3-2.3zm-75.5 16.1h2.6V115l-2.6 2.5zM806 148.5l8.5-8.5H806zm0 12.6l8.5-8.6H806zm0 12.6l8.5-8.6H806zm0 12.5l8.5-8.5H806zm0 12.6l8.5-8.5H806zm0 12.6l8.5-8.6H806zm414.7-42.5h35.2v46.5h-35.2zm-16.3-20.4l8.5-8.5h-8.5zm0 12.6l8.5-8.6h-8.5zm0 12.6l8.5-8.6h-8.5zm0 12.5l8.5-8.5h-8.5zm0 12.6l8.5-8.5h-8.5zm92.7 16.6h4.1v-50.1l-4.1 4.1zm-24 0h19.1v-55.3l-19.1 9.3z"></path>
    <circle fill="#A0A1BB" cx="1264.5" cy="169.1" r="6.3"></circle>
    <path fill="#A0A1BB" d="M1268.5 178.2h-7.8c-1.4 0-2.5 1.1-2.5 2.5s1.1 2.5 2.5 2.5h7.8c1.4-.1 2.4-1.3 2.3-2.7-.1-1.1-1.1-2.1-2.3-2.3zm0 7.1h-7.8c-1.4 0-2.5 1.1-2.5 2.5s1.1 2.5 2.5 2.5h7.8c1.4-.1 2.4-1.3 2.3-2.7-.1-1.2-1.1-2.2-2.3-2.3zm0 7h-7.8c-1.4 0-2.5 1.1-2.5 2.5s1.1 2.5 2.5 2.5h7.8c1.4-.1 2.4-1.3 2.3-2.7-.1-1.2-1.1-2.1-2.3-2.3zm0 7h-7.8c-1.4 0-2.5 1.1-2.5 2.5s1.1 2.5 2.5 2.5h7.8c1.4-.1 2.4-1.3 2.3-2.7-.1-1.1-1.1-2.1-2.3-2.3zm-75.4 16.1h2.5V115l-2.5 2.5zm176.3-46.5h30.6v46.5h-30.6zm-44.2 46.5h4v-46l-4-4.1zm8 0h19.1v-46l-19.1-9.3z"></path>
    <circle fill="#A0A1BB" cx="1360.9" cy="169.1" r="6.3"></circle>
    <path fill="#A0A1BB" d="M1364.7 178.2h-7.8c-1.4.1-2.4 1.3-2.3 2.7.1 1.2 1.1 2.2 2.3 2.3h7.8c1.4 0 2.5-1.1 2.5-2.5s-1.1-2.5-2.5-2.5zm0 7h-7.8c-1.4.1-2.4 1.3-2.3 2.7.1 1.2 1.1 2.2 2.3 2.3h7.8c1.4 0 2.5-1.1 2.5-2.5s-1.2-2.5-2.5-2.5zm0 7.1h-7.8c-1.4.1-2.4 1.3-2.3 2.7.1 1.2 1.1 2.2 2.3 2.3h7.8c1.4 0 2.5-1.1 2.5-2.5s-1.1-2.6-2.5-2.5c0-.1 0-.1 0 0zm0 7h-7.8c-1.4.1-2.4 1.3-2.3 2.7.1 1.2 1.1 2.2 2.3 2.3h7.8c1.4 0 2.5-1.1 2.5-2.5s-1.1-2.5-2.5-2.5zm-367.8-30.4h35.2v46.5h-35.2zm88-51.4l-2.5-2.5v25.7l2.5 2.5zm87.4 36.5h5.4v5.4h-5.4zm-9.2 0h5.4v5.4h-5.4zm-9.2 0h5.4v5.4h-5.4zm27.6 8.7h5.4v5.4h-5.4zm-18.4 0h5.4v5.4h-5.4zm-9.2 0h5.4v5.4h-5.4zm27.6 8.8h5.4v5.4h-5.4zm-9.2 0h5.4v5.4h-5.4zm-9.2 0h5.4v5.4h-5.4zm18.4 8.7h5.4v5.4h-5.4zm-9.2 0h5.4v5.4h-5.4zm-9.2 0h5.4v5.4h-5.4zm-9.2 0h5.4v5.4h-5.4zm27.6 8.7h5.4v5.4h-5.4zm-9.2 0h5.4v5.4h-5.4zm-18.4 0h5.4v5.4h-5.4zm18.4 8.4h5.4v5.4h-5.4zm-9.2 0h5.4v5.4h-5.4zm-9.2 0h5.4v5.4h-5.4zm16.4-61.6c-7.8 0-14.6 5.3-16.5 12.9 10.8-2.7 22.1-2.8 32.9-.1-1.9-7.6-8.7-12.8-16.4-12.8z"></path>
    <circle fill="#A0A1BB" cx="1140.8" cy="173.7" r="1.8"></circle>
    <circle fill="#A0A1BB" cx="1133.7" cy="173.7" r="1.8"></circle>
    <circle fill="#A0A1BB" cx="1126.7" cy="173.7" r="1.8"></circle>
    <circle fill="#A0A1BB" cx="1119.6" cy="173.7" r="1.8"></circle>
    <circle fill="#A0A1BB" cx="1140.8" cy="182.6" r="1.8"></circle>
    <circle fill="#A0A1BB" cx="1133.7" cy="182.6" r="1.8"></circle>
    <circle fill="#A0A1BB" cx="1126.7" cy="182.6" r="1.8"></circle>
    <circle fill="#A0A1BB" cx="1119.6" cy="182.6" r="1.8"></circle>
    <circle fill="#A0A1BB" cx="1140.8" cy="191.6" r="1.8"></circle>
    <circle fill="#A0A1BB" cx="1133.7" cy="191.6" r="1.8"></circle>
    <circle fill="#A0A1BB" cx="1126.7" cy="191.6" r="1.8"></circle>
    <circle fill="#A0A1BB" cx="1119.6" cy="191.6" r="1.8"></circle>
    <circle fill="#A0A1BB" cx="1140.8" cy="200.6" r="1.8"></circle>
    <circle fill="#A0A1BB" cx="1133.7" cy="200.6" r="1.8"></circle>
    <circle fill="#A0A1BB" cx="1126.7" cy="200.6" r="1.8"></circle>
    <circle fill="#A0A1BB" cx="1119.6" cy="200.6" r="1.8"></circle>
    <path fill="#A0A1BB" d="M1048.5 148.5V140h-8.6zm0 12.6v-8.6h-8.6zm0 12.6v-8.6h-8.6zm0 12.5v-8.5h-8.6zm0 12.6v-8.5h-8.6zm-87.8 16.6h19.1v-46.1l-19.1-9.2z"></path>
    <circle fill="#A0A1BB" cx="988.4" cy="169.1" r="6.3"></circle>
    <path fill="#A0A1BB" d="M992.1 178.2h-7.8c-1.4.1-2.4 1.3-2.3 2.7.1 1.2 1.1 2.2 2.3 2.3h7.8c1.4 0 2.5-1.1 2.5-2.5s-1.1-2.6-2.5-2.5c0-.1 0-.1 0 0zm0 7h-7.8c-1.4.1-2.4 1.3-2.3 2.7.1 1.2 1.1 2.2 2.3 2.3h7.8c1.4 0 2.5-1.1 2.5-2.5s-1.1-2.5-2.5-2.5zm0 7.1h-7.8c-1.4.1-2.4 1.3-2.3 2.7.1 1.2 1.1 2.2 2.3 2.3h7.8c1.4 0 2.5-1.1 2.5-2.5 0-1.5-1.1-2.6-2.5-2.5 0-.1 0-.1 0 0zm0 7h-7.8c-1.4.1-2.4 1.3-2.3 2.7.1 1.2 1.1 2.2 2.3 2.3h7.8c1.4 0 2.5-1.1 2.5-2.5s-1.1-2.6-2.5-2.5c0-.1 0-.1 0 0zm65.2 16.1h2.5v-97.9l-2.5-2.5zm17.1-66.9V140h-8.6zm0 12.6v-8.6h-8.6zm0 12.6v-8.6h-8.6zm0 12.5v-8.5h-8.6zm0 12.6v-8.5h-8.6zm-144.3-27.4h19.4v.9h-19.4zm0 2.4h19.4v.9h-19.4zm0 2.4h19.4v.9h-19.4zm0 2.5h19.4v.9h-19.4zm0 2.4h19.4v.9h-19.4zm0 2.5h19.4v.9h-19.4zm0 2.4h19.4v.9h-19.4zm0 2.4h19.4v.9h-19.4zm0 2.5h19.4v.9h-19.4zm0 2.4h19.4v.9h-19.4zm0 2.5h19.4v.9h-19.4zm0 2.4h19.4v.9h-19.4zm0 2.4h19.4v.9h-19.4zm0 2.5h19.4v.9h-19.4zm0 2.4h19.4v.9h-19.4zm376-34.1h5.7v.9h-5.7zm0 2.4h5.7v.9h-5.7zm0 2.4h5.7v.9h-5.7zm0 2.5h5.7v.9h-5.7zm0 2.4h5.7v.9h-5.7zm0 4.9h5.7v.9h-5.7zm0 2.4h5.7v.9h-5.7zm0 2.5h5.7v.9h-5.7zm0 4.9h5.7v.9h-5.7zm0 2.4h5.7v.9h-5.7zm0 2.4h5.7v.9h-5.7zm0 2.5h5.7v.9h-5.7zm0 2.4h5.7v.9h-5.7zm0 2.5h5.7v.9h-5.7zm8.3-36.6h5.7v.9h-5.7zm0 2.4h5.7v.9h-5.7zm0 4.9h5.7v.9h-5.7zm0 2.4h5.7v.9h-5.7zm0 2.5h5.7v.9h-5.7zm0 2.4h5.7v.9h-5.7zm0 4.9h5.7v.9h-5.7zm0 2.4h5.7v.9h-5.7zm0 2.5h5.7v.9h-5.7zm0 2.4h5.7v.9h-5.7zm0 2.4h5.7v.9h-5.7zm0 2.5h5.7v.9h-5.7zm0 2.4h5.7v.9h-5.7zm-1205.7 9.9h2V213l-2.4 2.4zM82.2 174l28.5-28.4v-2.4l-28.5 28.5zm5.2 41.4l23.3-23.3v-2.3l-25.6 25.6zm13.9 0l9.4-9.3v-2.4L99 215.4zm-19.1-36.8l28.5-28.4v-2.3l-28.5 28.4zm9.8 36.8l18.7-18.7v-2.3l-21 21zm14 0l4.7-4.7v-2.3l-7 7zm-9.3 0l14-14v-2.3l-16.3 16.3zM82.2 188l28.5-28.5v-2.3l-28.5 28.4zm0 23.2l28.5-28.4v-2.3l-28.5 28.4zm0 4.2h.5l28-28v-2.3l-28.5 28.5zm0-32.1l28.5-28.4v-2.4L82.2 181zm0 23.3l28.5-28.5v-2.3l-28.5 28.4zm0-14l28.5-28.4v-2.4l-28.5 28.5zm0 9.3l28.5-28.4v-2.4l-28.5 28.5zm0-4.6l28.5-28.5v-2.3l-28.5 28.4z"></path>
    <path d="M226.6 177.2h2v2h-2zm0 4h2v2h-2zm0 4h2v2h-2zm0 4.1h2v2h-2zm0 4h2v2h-2zm0 4h2v2h-2zm0 4h2v2h-2zm0 4.1h2v2h-2zm-4.5-28.2h2v2h-2zm0 4h2v2h-2zm0 4h2v2h-2zm0 4.1h2v2h-2zm0 4h2v2h-2zm0 4h2v2h-2zm0 4h2v2h-2zm0 4.1h2v2h-2zm-4.6-28.2h2v2h-2zm0 4h2v2h-2zm9.1-8h2v2h-2zm-4.5 0h2v2h-2zm-4.6 0h2v2h-2zm0 12h2v2h-2zm0 4.1h2v2h-2zm0 4h2v2h-2zm0 4h2v2h-2zm0 4h2v2h-2zm0 4.1h2v2h-2zm321.9-30.3h3.9v7.7h-3.9zm0 14.3h3.9v7.7h-3.9zm6.5-14.3h3.9v7.7h-3.9zm0 14.3h3.9v7.7h-3.9zm6.5-14.3h3.9v7.7h-3.9zm0 14.3h3.9v7.7h-3.9zm6.6-14.3h3.9v7.7H559zm0 14.3h3.9v7.7H559zm40.1-12.2h2v2h-2zm0 4h2v2h-2zm0 4h2v2h-2zm0 4.1h2v2h-2zm0 4h2v2h-2zm0 4h2v2h-2zm0 4h2v2h-2zm0 4.1h2v2h-2zm-4.5-28.2h2v2h-2zm0 4h2v2h-2zm0 4h2v2h-2zm0 4.1h2v2h-2zm0 4h2v2h-2zm0 4h2v2h-2zm0 4h2v2h-2zm0 4.1h2v2h-2zm-4.5-28.2h2v2h-2zm0 4h2v2h-2zm9-8h2v2h-2zm-4.5 0h2v2h-2zm-4.5 0h2v2h-2zm0 12h2v2h-2zm0 4.1h2v2h-2zm0 4h2v2h-2zm0 4h2v2h-2zm0 4h2v2h-2zm0 4.1h2v2h-2zm59.6-28.2h2v2h-2zm0 4h2v2h-2zm0 4h2v2h-2zm0 4.1h2v2h-2zm0 4h2v2h-2zm0 4h2v2h-2zm0 4h2v2h-2zm0 4.1h2v2h-2zm4.6-28.2h2v2h-2zm0 4h2v2h-2zm0 4h2v2h-2zm0 4.1h2v2h-2zm0 4h2v2h-2zm0 4h2v2h-2zm0 4h2v2h-2zm0 4.1h2v2h-2zm4.5-28.2h2v2h-2zm0 4h2v2h-2zm-9.1-8h2v2h-2zm4.6 0h2v2h-2zm4.5 0h2v2h-2zm0 12h2v2h-2zm0 4.1h2v2h-2zm0 4h2v2h-2zm0 4h2v2h-2zm0 4h2v2h-2zm0 4.1h2v2h-2zm-323.7-30.3h3.9v7.7h-3.9zm0 14.3h3.9v7.7h-3.9zm-6.5-14.3h3.9v7.7h-3.9zm0 14.3h3.9v7.7h-3.9zm-6.5-14.3h3.9v7.7h-3.9zm0 14.3h3.9v7.7h-3.9zm-6.6-14.3h3.9v7.7h-3.9zm0 14.3h3.9v7.7h-3.9zm-38.3-12.2h2v2h-2zm0 4h2v2h-2zm0 4h2v2h-2zm0 4h2v2h-2zm0 4.1h2v2h-2zm0 4h2v2h-2zm0 4h2v2h-2zm0 4h2v2h-2zm4.5-28.1h2v2h-2zm0 4h2v2h-2zm0 4h2v2h-2zm0 4h2v2h-2zm0 4.1h2v2h-2zm0 4h2v2h-2zm0 4h2v2h-2zm0 4h2v2h-2zm4.6-28.1h2v2h-2zm0 4h2v2h-2zm-9.1-8.1h2v2h-2zm4.5 0h2v2h-2zm4.6 0h2v2h-2zm0 12.1h2v2h-2zm0 4h2v2h-2zm0 4.1h2v2h-2zm0 4h2v2h-2zm0 4h2v2h-2zm0 4h2v2h-2zm567.8-30.2h3.9v7.7h-3.9zm0 14.3h3.9v7.7h-3.9zm0 14.3h3.9v7.7h-3.9zm13-28.6h3.9v7.7h-3.9zm0 14.3h3.9v7.7h-3.9zm6.6-14.3h3.9v7.7h-3.9zm0 14.3h3.9v7.7h-3.9zm40.1-12.2h2v2h-2zm0 4h2v2h-2zm0 4h2v2h-2zm0 4.1h2v2h-2zm0 4h2v2h-2zm0 4h2v2h-2zm0 4h2v2h-2zm0 4.1h2v2h-2zm-4.5-28.2h2v2h-2zm0 4h2v2h-2zm0 4h2v2h-2zm0 4.1h2v2h-2zm0 4h2v2h-2zm0 4h2v2h-2zm0 4h2v2h-2zm0 4.1h2v2h-2zm-4.5-28.2h2v2h-2zm0 4h2v2h-2zm9-8h2v2h-2zm-4.5 0h2v2h-2zm-4.5 0h2v2h-2zm0 12h2v2h-2zm0 4.1h2v2h-2zm0 4h2v2h-2zm0 4h2v2h-2zm0 4h2v2h-2zm0 4.1h2v2h-2zm321.8-30.3h3.9v7.7h-3.9zm0 14.3h3.9v7.7h-3.9zm6.5-14.3h3.9v7.7h-3.9zm0 14.3h3.9v7.7h-3.9zm6.6-14.3h3.9v7.7h-3.9zm0 14.3h3.9v7.7h-3.9zm6.5-14.3h3.9v7.7h-3.9zm0 14.3h3.9v7.7h-3.9zm40.2-12.2h2v2h-2zm0 4h2v2h-2zm0 4h2v2h-2zm0 4.1h2v2h-2zm0 4h2v2h-2zm0 4h2v2h-2zm0 4h2v2h-2zm0 4.1h2v2h-2zm-4.5-28.2h2v2h-2zm0 4h2v2h-2zm0 4h2v2h-2zm0 4.1h2v2h-2zm0 4h2v2h-2zm0 4h2v2h-2zm0 4h2v2h-2zm0 4.1h2v2h-2zm-4.6-28.2h2v2h-2zm0 4h2v2h-2zm9.1-8h2v2h-2zm-4.5 0h2v2h-2zm-4.6 0h2v2h-2zm0 12h2v2h-2zm0 4.1h2v2h-2zm0 4h2v2h-2zm0 4h2v2h-2zm0 4h2v2h-2zm0 4.1h2v2h-2zm59.7-28.2h2v2h-2zm0 4h2v2h-2zm0 4h2v2h-2zm0 4.1h2v2h-2zm0 4h2v2h-2zm0 4h2v2h-2zm0 4h2v2h-2zm0 4.1h2v2h-2zm4.5-28.2h2v2h-2zm0 4h2v2h-2zm0 4h2v2h-2zm0 4.1h2v2h-2zm0 4h2v2h-2zm0 4h2v2h-2zm0 4h2v2h-2zm0 4.1h2v2h-2zm4.6-28.2h2v2h-2zm0 4h2v2h-2zm-9.1-8h2v2h-2zm4.5 0h2v2h-2zm4.6 0h2v2h-2zm0 12h2v2h-2zm0 4.1h2v2h-2zm0 4h2v2h-2zm0 4h2v2h-2zm0 4h2v2h-2zm0 4.1h2v2h-2zm-323.7-30.3h3.9v7.7h-3.9zm0 14.3h3.9v7.7h-3.9zm-6.5-14.3h3.9v7.7h-3.9zm0 14.3h3.9v7.7h-3.9zm-6.6-14.3h3.9v7.7h-3.9zm0 14.3h3.9v7.7h-3.9zm-6.5-14.3h3.9v7.7h-3.9zm0 14.3h3.9v7.7h-3.9zm-38.3-12.2h2v2h-2zm0 4h2v2h-2zm0 4h2v2h-2zm0 4h2v2h-2zm0 4.1h2v2h-2zm0 4h2v2h-2zm0 4h2v2h-2zm0 4h2v2h-2zm4.5-28.1h2v2h-2zm0 4h2v2h-2zm0 4h2v2h-2zm0 4h2v2h-2zm0 4.1h2v2h-2zm0 4h2v2h-2zm0 4h2v2h-2zm0 4h2v2h-2zm4.5-28.1h2v2h-2zm0 4h2v2h-2zm-9-8.1h2v2h-2zm4.5 0h2v2h-2zm4.5 0h2v2h-2zm0 12.1h2v2h-2zm0 4h2v2h-2zm0 4.1h2v2h-2zm0 4h2v2h-2zm0 4h2v2h-2zm0 4h2v2h-2z"
        fill="#AAABC3"></path>
    <path fill="#A0A1BB" d="M161 168.9h35.2v46.5H161z"></path>
    <path fill="#AAABC3" d="M166.8 175.1h3.9v7.7h-3.9zm0 14.3h3.9v7.7h-3.9zm0 14.3h3.9v7.7h-3.9zm13.1-28.6h3.9v7.7h-3.9zm0 14.3h3.9v7.7h-3.9zm6.5-14.3h3.9v7.7h-3.9zm0 14.3h3.9v7.7h-3.9z"></path>
    <path d="M59.1 14.6h-9c0-2.3-1.9-4.2-4.2-4.2-.5 0-1.1.1-1.6.3-2.2-4.5-7.6-6.4-12.1-4.2-3.1 1.5-5.1 4.7-5.1 8.1v.1c-2.4.5-4 3-3.4 5.4.4 1.9 2.1 3.4 4.1 3.5h31.3c2.5 0 4.5-2 4.5-4.5s-2-4.6-4.5-4.5zM1002.9 60h11.4c0-2.9 2.4-5.3 5.3-5.3.7 0 1.3.1 1.9.4 2.7-5.7 9.5-8.1 15.2-5.4 4 1.9 6.5 5.9 6.5 10.3v.1c3.1.7 5 3.7 4.4 6.8-.5 2.5-2.6 4.3-5.2 4.5h-39.5c-3.1-.1-5.6-2.8-5.5-5.9.1-3 2.5-5.4 5.5-5.5zM268.5 70.9H280c0-3 2.4-5.3 5.4-5.3.7 0 1.3.1 1.9.4 2.8-5.8 9.7-8.2 15.4-5.4 4 1.9 6.6 6 6.6 10.4v.1c3.1.7 5.1 3.8 4.4 6.9-.5 2.5-2.7 4.3-5.2 4.5h-40c-3.2 0-5.8-2.6-5.8-5.8 0-3.2 2.6-5.8 5.8-5.8zm1112.2-48.2h-2.6c3.5-8.3-.4-17.9-8.7-21.4-8.3-3.5-17.9.4-21.4 8.7-.8 2-1.3 4.2-1.3 6.3 0 .5 0 1 .1 1.6-2.2-1.9-5.6-1.6-7.5.6-1 1.1-1.4 2.6-1.2 4.1h-1.4c-5.2 0-9.3 4.2-9.3 9.3s4.2 9.3 9.3 9.3h44c5.2 0 9.3-4.2 9.3-9.3s-4.1-9.2-9.3-9.2zM447.4 83.8h-2.6c3.5-8.3-.4-17.9-8.7-21.4-8.3-3.5-17.9.4-21.4 8.7-.8 2-1.3 4.2-1.3 6.3 0 .5 0 1 .1 1.6-2.2-1.9-5.6-1.6-7.5.6-1 1.1-1.4 2.6-1.2 4.1h-1.4c-5.2 0-9.3 4.2-9.3 9.3s4.2 9.3 9.3 9.3h44c5.2 0 9.3-4.2 9.3-9.3s-4.2-9.2-9.3-9.2zm690.7 13.7h-1.3c1.7-4.2-.2-8.9-4.4-10.7-4.2-1.7-8.9.2-10.7 4.4-.4 1-.6 2.1-.6 3.1v.8c-1.1-.9-2.8-.8-3.8.3-.5.6-.7 1.3-.6 2.1h-.7c-2.6 0-4.7 2.1-4.7 4.7s2.1 4.7 4.7 4.7h22c2.6 0 4.7-2.1 4.7-4.7s-2.1-4.7-4.6-4.7z"
        fill="#8889A1"></path>
    <path fill="#9595AA" d="M117.4 129.4c-2.1 0-3.8 1.7-3.8 3.8v7.6h7.6v-7.6c0-2.1-1.7-3.8-3.8-3.8zm-1 16.5h1.9v41h-1.9z"></path>
    <path fill="#8B8CA3" d="M111.7 133.2h11.4v1.9h-11.4zm4.7 53.7h1.9v28.5h-1.9z"></path>
    <path fill="#B2B2C1" d="M113.6 135.1v7.6c0 2.1 1.7 3.8 3.8 3.8v-11.4h-3.8z"></path>
    <path fill="#AAABBB" d="M121.2 135.1v7.6c0 2.1-1.7 3.8-3.8 3.8v-11.4h3.8z"></path>
    <path fill="#9595AA" d="M357.4 129.4c-2.1 0-3.8 1.7-3.8 3.8v7.6h7.6v-7.6c0-2.1-1.7-3.8-3.8-3.8zm-.9 16.5h1.9v41h-1.9z"></path>
    <path fill="#8B8CA3" d="M351.8 133.2h11.4v1.9h-11.4zm4.7 53.7h1.9v28.5h-1.9z"></path>
    <path fill="#B2B2C1" d="M353.7 135.1v7.6c0 2.1 1.7 3.8 3.8 3.8v-11.4h-3.8z"></path>
    <path fill="#AAABBB" d="M361.2 135.1v7.6c0 2.1-1.7 3.8-3.8 3.8v-11.4h3.8z"></path>
    <path fill="#9595AA" d="M597.5 129.4c-2.1 0-3.8 1.7-3.8 3.8v7.6h7.6v-7.6c0-2.1-1.7-3.8-3.8-3.8zm-.9 16.5h1.9v41h-1.9z"></path>
    <path fill="#8B8CA3" d="M591.8 133.2h11.4v1.9h-11.4zm4.8 53.7h1.9v28.5h-1.9z"></path>
    <path fill="#B2B2C1" d="M593.7 135.1v7.6c0 2.1 1.7 3.8 3.8 3.8v-11.4h-3.8z"></path>
    <path fill="#AAABBB" d="M601.3 135.1v7.6c0 2.1-1.7 3.8-3.8 3.8v-11.4h3.8z"></path>
    <g>
        <path fill="#9595AA" d="M837.6 129.4c-2.1 0-3.8 1.7-3.8 3.8v7.6h7.6v-7.6c0-2.1-1.7-3.8-3.8-3.8zm-.9 16.5h1.9v41h-1.9z"></path>
        <path fill="#8B8CA3" d="M831.9 133.2h11.4v1.9h-11.4zm4.7 53.7h1.9v28.5h-1.9z"></path>
        <path fill="#B2B2C1" d="M833.8 135.1v7.6c0 2.1 1.7 3.8 3.8 3.8v-11.4h-3.8z"></path>
        <path fill="#AAABBB" d="M841.4 135.1v7.6c0 2.1-1.7 3.8-3.8 3.8v-11.4h3.8z"></path>
    </g>
    <g>
        <path fill="#9595AA" d="M1077.7 129.4c-2.1 0-3.8 1.7-3.8 3.8v7.6h7.6v-7.6c0-2.1-1.7-3.8-3.8-3.8zm-1 16.5h1.9v41h-1.9z"></path>
        <path fill="#8B8CA3" d="M1072 133.2h11.4v1.9H1072zm4.7 53.7h1.9v28.5h-1.9z"></path>
        <path fill="#B2B2C1" d="M1073.9 135.1v7.6c0 2.1 1.7 3.8 3.8 3.8v-11.4h-3.8z"></path>
        <path fill="#AAABBB" d="M1081.5 135.1v7.6c0 2.1-1.7 3.8-3.8 3.8v-11.4h3.8z"></path>
    </g>
    <g>
        <path fill="#9595AA" d="M1317.8 129.4c-2.1 0-3.8 1.7-3.8 3.8v7.6h7.6v-7.6c0-2.1-1.7-3.8-3.8-3.8zm-1 16.5h1.9v41h-1.9z"></path>
        <path fill="#8B8CA3" d="M1312.1 133.2h11.4v1.9h-11.4zm4.7 53.7h1.9v28.5h-1.9z"></path>
        <path fill="#B2B2C1" d="M1314 135.1v7.6c0 2.1 1.7 3.8 3.8 3.8v-11.4h-3.8z"></path>
        <path fill="#AAABBB" d="M1321.6 135.1v7.6c0 2.1-1.7 3.8-3.8 3.8v-11.4h3.8z"></path>
    </g>
    <g>
        <path fill="#9293AB" d="M183.8 99.5h-4.2v-4.6H175v-4.2c-12.6-7.7-29-3.7-36.7 8.9s-3.7 29 8.9 36.7 29 3.7 36.7-8.9c5.1-8.6 5.1-19.4-.1-27.9z"></path>
        <path fill="#86879F" d="M158.3 137.5v78.2h5.4l-.1-78.2-2.6 2.6z"></path>
        <path fill="#9697AF" d="M161 86.7c-14.8-.3-26.9 11.5-27.2 26.2-.3 14.8 11.5 26.9 26.2 27.2h1V86.7z"></path>
        <path fill="#9293AB" d="M1172.1 99.5h-4.2v-4.6h-4.6v-4.2c-12.6-7.7-29-3.7-36.7 8.9-7.7 12.6-3.7 29 8.9 36.7 12.6 7.7 29 3.7 36.7-8.9 5.1-8.6 5.1-19.4-.1-27.9z"></path>
        <path fill="#86879F" d="M1146.6 137.5v78.2h5.4v-78.2l-2.7 2.6z"></path>
        <path fill="#9697AF" d="M1149.3 86.7c-14.8-.3-26.9 11.5-27.2 26.2-.3 14.8 11.5 26.9 26.2 27.2h1V86.7z"></path>
        <path fill="#9293AB" d="M557.6 99.5h-4.2v-4.6h-4.6v-4.2c-12.6-7.7-29-3.7-36.7 8.9-7.7 12.6-3.7 29 8.9 36.7 12.6 7.7 29 3.7 36.7-8.9 5.2-8.6 5.2-19.4-.1-27.9z"></path>
        <path fill="#86879F" d="M532.2 137.5l-.1 78.2h5.4v-78.2l-2.7 2.6z"></path>
        <path fill="#9697AF" d="M534.8 86.7c-14.8-.3-26.9 11.5-27.2 26.2-.3 14.8 11.5 26.9 26.2 27.2h1V86.7z"></path>
        <path fill="#9293AB" d="M811.2 150.2h-2.5v-2.8h-2.8v-2.5c-7.6-4.6-17.4-2.2-22 5.3-4.6 7.6-2.2 17.4 5.3 22 7.6 4.6 17.4 2.2 22-5.3 3.2-5.1 3.2-11.5 0-16.7z"></path>
        <path fill="#86879F" d="M795.7 172.8v42.4h3.7v-42.4l-1.9 1.8z"></path>
        <path fill="#9697AF" d="M797.5 142.5c-8.9.2-15.9 7.6-15.6 16.4.2 8.6 7.1 15.4 15.6 15.6v-32z"></path>
        <path fill="#9293AB" d="M1209.7 150.2h-2.5v-2.8h-2.8v-2.5c-7.6-4.6-17.4-2.2-22 5.3-4.6 7.6-2.2 17.4 5.3 22s17.4 2.2 22-5.3c3.1-5.1 3.1-11.5 0-16.7z"></path>
        <path fill="#86879F" d="M1194.2 172.8l-.1 42.4h3.7v-42.4l-1.8 1.8z"></path>
        <path fill="#9697AF" d="M1196 142.5c-8.9.2-15.9 7.6-15.6 16.4.2 8.6 7.1 15.4 15.6 15.6v-32z"></path>
        <path fill="#9293AB" d="M626.1 150.2h-2.5v-2.8h-2.8v-2.5c-7.6-4.6-17.4-2.2-22 5.3-4.6 7.6-2.2 17.4 5.3 22s17.4 2.2 22-5.3c3.1-5.1 3.1-11.5 0-16.7z"></path>
        <path fill="#86879F" d="M610.6 172.8l-.1 42.4h3.8l-.1-42.4-1.8 1.8z"></path>
        <path fill="#9697AF" d="M612.4 142.5c-8.9.2-15.9 7.6-15.6 16.4.2 8.6 7.1 15.4 15.6 15.6v-32z"></path>
        <path fill="#9293AB" d="M287.2 150.5h-2.5v-2.8h-2.8v-2.5c-7.6-4.6-17.4-2.2-22 5.3-4.6 7.6-2.2 17.4 5.3 22 7.6 4.6 17.4 2.2 22-5.3 3.1-5.1 3.1-11.5 0-16.7z"></path>
        <path fill="#86879F" d="M271.6 173.1v42.4h3.7v-42.4l-1.8 1.9z"></path>
        <path fill="#9697AF" d="M273.5 142.8c-8.9.2-15.9 7.6-15.6 16.4.2 8.6 7.1 15.4 15.6 15.6v-32z"></path>
    </g>
</svg>