<svg xmlns="http://www.w3.org/2000/svg" width="1402" height="183.97" viewBox="0 0 1402 183.97"><defs><clipPath id="clip-path"><circle cx="524.55" cy="65.46" r="24.01" fill="none"/></clipPath></defs><title>extras-image</title><g style="isolation:isolate"><g id="Icons"><ellipse cx="524.55" cy="111.52" rx="16.87" ry="1.39" fill="#e0e0e6"/><path fill="none" stroke="#fbd8bc" stroke-linecap="round" stroke-miterlimit="10" stroke-width="2" stroke-dasharray="0 7" d="M780.48 96.78l93.78-16.19 144.14 38.94 144.57-39.03L1401 111"/><circle cx="872.32" cy="80.59" r="9.13" fill="#656684" opacity=".1"/><circle cx="872.32" cy="80.59" r="3.51" fill="#fff"/><path d="M872.32 77.58a3 3 0 1 1-3 3 3 3 0 0 1 3-3m0-1a4 4 0 1 0 4 4 4 4 0 0 0-4-4z" fill="#fbd8bc"/><circle cx="1164.65" cy="81.33" r="9.13" fill="#656684" opacity=".1"/><circle cx="1164.65" cy="81.33" r="3.51" fill="#fff"/><path d="M1164.65 78.32a3 3 0 1 1-3 3 3 3 0 0 1 3-3m0-1a4 4 0 1 0 4 4 4 4 0 0 0-4-4z" fill="#fbd8bc"/><circle cx="1017.7" cy="119.53" r="9.13" fill="#656684" opacity=".1"/><circle cx="1017.7" cy="119.53" r="3.51" fill="#fff"/><path d="M1017.7 116.52a3 3 0 1 1-3 3 3 3 0 0 1 3-3m0-1a4 4 0 1 0 4 4 4 4 0 0 0-4-4z" fill="#fbd8bc"/><ellipse cx="379.69" cy="51.56" rx="43.75" ry="2.56" fill="#e0e0e6" style="mix-blend-mode:multiply"/><path fill="#aaabbb" d="M379.69.42h35.8v51.14h-35.8z"/><path fill="#f6f6f8" d="M383.52 24.07h28.13v3.84h-28.13zM383.52 32.7h28.13v3.84h-28.13z"/><path fill="#f7b279" d="M383.52 6.81h11.72v12.47h-11.72z"/><path fill="#f6f6f8" d="M399.72 15.44h11.93v3.84h-11.93zM399.72 6.81h11.93v3.84h-11.93zM383.52 41.33h28.13v3.84h-28.13z"/><path fill="#fff" d="M343.89.42h35.8v51.14h-35.8z"/><path fill="#f7b279" d="M347.73 6.81h28.13v12.47h-28.13z"/><path fill="#dfdfe5" d="M347.73 24.07h28.13v3.84h-28.13zM347.73 32.7h28.13v3.84h-28.13zM347.73 41.33h28.13v3.84h-28.13z"/><g><ellipse cx="1018.48" cy="180.04" rx="24.31" ry="1.77" fill="#e0e0e6"/><path d="M1041.09 161.6c0 2.57.08 8.3.08 8.3a3.65 3.65 0 0 1-2.91 3.58V180h-5.65v-6.49h-6.23v2h-15.67v-2h-6.32V180h-5.65v-6.58a3.65 3.65 0 0 1-2.82-3.55v-8.38c0-1.41 1.83-2.59 1.83-2.59l3.16-2 1.32-11.11.1-.67s-.11-1.35 16.19-1.35 16.18 1.35 16.18 1.35l.1.67a.1.1 0 0 1 0 .05l.07.63 1.25 10.48 3.08 2.08.23.17.09.07a3.27 3.27 0 0 1 1.57 2.33zm-1.91-7.64c-1.52 0-2.76.87-2.76 1.95s1.24 1.95 2.76 1.95 2.76-.87 2.76-1.95-1.23-1.91-2.76-1.91zm-38.48 1.95c0-1.08-1.24-1.95-2.76-1.95s-2.76.87-2.76 1.95 1.24 1.95 2.76 1.95 2.77-.86 2.77-1.95z" fill="#f8be8f"/><g fill="#f7b279"><ellipse cx="997.94" cy="155.91" rx="2.76" ry="1.95"/><path d="M1018.48 175.55v-31.79c-16.23 0-16.12 1.35-16.12 1.35l-.1.67-1.32 11.11-3.16 2s-1.83 1.18-1.83 2.59v8.38a3.65 3.65 0 0 0 2.82 3.55V180h5.65v-6.49h6.32v2z"/></g></g><g><ellipse cx="1178.11" cy="55.63" rx="9.48" ry="1.48" fill="#e0e0e6"/><ellipse cx="1149.24" cy="46.27" rx="5.57" ry=".87" fill="#e8e8ed"/><path d="M1157.85 35.91a35.89 35.89 0 0 1 .42-5.62 7 7 0 0 1 2.44-4.21 7.79 7.79 0 0 1 4.35-2.07c.92-.09 1.82-.16 2.72-.23 0-.21-.05-.42-.09-.63a5.07 5.07 0 0 0-1.8-3 5.8 5.8 0 0 0-3.23-1.57q-4.27-.43-8.22-.43t-8.22.43a5.8 5.8 0 0 0-3.23 1.57 5.23 5.23 0 0 0-1.83 3 38.06 38.06 0 0 0-.37 5.33 36.8 36.8 0 0 0 .37 5.21 5.24 5.24 0 0 0 1.83 3 5.8 5.8 0 0 0 3.23 1.57l2.38.18v5a.9.9 0 0 0 .58.91 1.7 1.7 0 0 0 .4.06.91.91 0 0 0 .67-.27l5.82-5.64c.62 0 1.25 0 1.87-.06-.06-.8-.09-1.66-.09-2.53z" fill="#e0e0e6"/><path d="M1163.4 28.92a5.8 5.8 0 0 1 3.23-1.57q4.26-.43 8.22-.43t8.22.43a5.8 5.8 0 0 1 3.23 1.57 5.23 5.23 0 0 1 1.83 3 38.07 38.07 0 0 1 .37 5.33 36.81 36.81 0 0 1-.37 5.21 5.24 5.24 0 0 1-1.83 3 5.8 5.8 0 0 1-3.23 1.57l-2.38.18v5a.9.9 0 0 1-.58.91 1.7 1.7 0 0 1-.4.06.91.91 0 0 1-.67-.27l-5.82-5.64q-3.26 0-6.61-.37a5.87 5.87 0 0 1-3.24-1.52 4.91 4.91 0 0 1-1.78-3 33.07 33.07 0 0 1-.4-5.24 33.81 33.81 0 0 1 .4-5.3 5.07 5.07 0 0 1 1.81-2.92z" fill="#f7b279"/></g><path fill="none" stroke="#fbd8bc" stroke-linecap="round" stroke-miterlimit="10" stroke-width="2" stroke-dasharray="0 7" d="M1 67.53l232 49.39 150.55-41.41 141.46 61.6 92.4-14.58"/><g><circle cx="234" cy="116.93" r="9.13" fill="#656684" opacity=".1"/><circle cx="234" cy="116.93" r="3.51" fill="#fff"/><path d="M234 113.91a3 3 0 1 1-3 3 3 3 0 0 1 3-3m0-1a4 4 0 1 0 4 4 4 4 0 0 0-4-4z" fill="#fbd8bc"/></g><g><circle cx="526.03" cy="136.86" r="9.13" fill="#656684" opacity=".1"/><circle cx="526.03" cy="136.86" r="3.51" fill="#fff"/><path d="M526 133.84a3 3 0 1 1-3 3 3 3 0 0 1 3-3m0-1a4 4 0 1 0 4 4 4 4 0 0 0-4-4z" fill="#fbd8bc"/></g><g><circle cx="379.69" cy="75.89" r="9.13" fill="#656684" opacity=".1"/><circle cx="379.69" cy="75.89" r="3.51" fill="#fff"/><path d="M379.69 72.88a3 3 0 1 1-3 3 3 3 0 0 1 3-3m0-1a4 4 0 1 0 4 4 4 4 0 0 0-4-4z" fill="#fbd8bc"/></g><g><path transform="rotate(-30 858.973 39.661)" fill="#e8e8ed" d="M855.52 26.46h6.89v26.42h-6.89z"/><path transform="rotate(-120 862.829 37.439)" fill="#fff" d="M849.62 36.43h26.42v2.02h-26.42z"/><path transform="rotate(-30 866.23 52.885)" fill="#f7b279" d="M862.45 51.02h7.54v3.72h-7.54z"/><path transform="rotate(-120 870.58 50.357)" fill="#f8be8f" d="M868.72 49.1h3.72v2.52h-3.72z"/><path d="M903.63 29.14a10.75 10.75 0 1 0-18.58 0z" fill="#e8e8ed"/><path d="M885.05 29.14a10.74 10.74 0 0 0 18.58 0z" fill="#fff"/><path fill="#e8e8ed" d="M852.09 12.99h20.51v16.15h-20.51z"/><path fill="#d7d7df" d="M855.43 16.33h13.84v8.36h-13.84z"/><path fill="#e8e8ed" d="M856.82 17.74h11.06v5.38h-11.06z"/><path fill="#f7b279" d="M856.82 23.12v-5.38h11.06l-11.06 5.38z"/><path fill="#f8be8f" d="M856.82 23.12l11.06-5.38v5.38"/><path fill="#fff" d="M852.09 29.14h20.51v5.53h-20.51z"/><path fill="#e8e8ed" d="M844.87 13.84h5.28v15.3h-5.28z"/><path d="M844.87 13.84a9.9 9.9 0 0 0 0 19.8z" fill="#f7b279"/><path fill="#fff" d="M844.87 29.14h5.28v4.48h-5.28z"/><path d="M844.87 29.14h-8.29a9.88 9.88 0 0 0 7.9 4.48h.39z" fill="#f8be8f"/><path fill="#f7b279" d="M895.27 29.14h-22.66V12.99L895.27 2.1v27.04z"/><path fill="#f8be8f" d="M895.27 45.56l-22.66-10.89v-5.53h22.66v16.42z"/><path d="M895.27 29.14V45.56a2.1 2.1 0 0 0 4.19 0V29.14z" fill="#f7b279"/><path d="M897.36 0a2.1 2.1 0 0 0-2.1 2.1v27.04h4.18V2.1a2.1 2.1 0 0 0-2.08-2.1z" fill="#f6a563"/><path d="M850.16 13.84v15.3h1.94V13a2.36 2.36 0 0 0-1.94.84z" fill="#d8d9e0"/><path d="M850.16 33.62v-4.48h1.94v5.52a2.25 2.25 0 0 1-1.94-1.04z" fill="#e8e8ed"/><path fill="#e8e8ed" style="mix-blend-mode:multiply" d="M862.4 34.68h-10.29l1.2 2.08h10.29l-1.2-2.08z"/><circle cx="867.88" cy="29.14" r="1.95" fill="#f7b279"/><path d="M867.88 31.09a2 2 0 0 0 2-2h-3.9a2 2 0 0 0 1.9 2z" fill="#f8be8f"/><circle cx="862.01" cy="29.14" r="1.95" fill="#f7b279"/><path d="M862 31.09a2 2 0 0 0 2-2h-3.9a2 2 0 0 0 1.9 2z" fill="#f8be8f"/><ellipse cx="865.93" cy="59.64" rx="9.21" ry="1.28" fill="#e8e8ed"/><path d="M856.73 27.19a.73.73 0 0 0-.73.73v2.44a.73.73 0 0 0 1.46 0v-2.44a.73.73 0 0 0-.73-.73z" fill="#e8e8ed" style="mix-blend-mode:multiply"/><path d="M856.73 27.46a.46.46 0 0 1 .46.46v2.44a.46.46 0 0 1-.92 0v-2.44a.46.46 0 0 1 .46-.46" fill="#f4f4f6"/><path d="M856.73 27.65a.31.31 0 0 0-.31.31v.88a.31.31 0 1 0 .61 0V28a.31.31 0 0 0-.3-.35z" fill="#f7b279"/><circle cx="867.88" cy="29.14" r="1.21" fill="#fff" opacity=".2"/><circle cx="863.17" cy="30.18" r=".23" fill="#f5984d"/><circle cx="867.88" cy="27.57" r=".23" fill="#f5984d"/><circle cx="862.01" cy="29.14" r="1.21" fill="#fff" opacity=".2"/><path fill="#c1c2ce" d="M914.11 26.3l1.69-3.2-6.05 1.27-.34-1.59 9.46-1.98-1.75 3.3 7.2-1.32.29 1.6-10.5 1.92zM908.77 37.31l3.46-1.06-5.18-3.38.89-1.36 8.08 5.28-3.56 1.09 6.02 4.16-.92 1.34-8.79-6.07zM912.66 11.82l-1.06-3.47-3.39 5.19-1.36-.89 5.29-8.09 1.09 3.57 4.16-6.03 1.34.93-6.07 8.79z"/></g><g><g fill="#f7b279"><circle cx="223.88" cy="146.7" r="6.55"/><path d="M226.91 167.43a13.39 13.39 0 0 1 6.31-11.36 13.47 13.47 0 0 0-2.83-2.1 9.73 9.73 0 0 1-13 0 13.29 13.29 0 0 0-6.69 14 53.78 53.78 0 0 0 13.2 1.58c1.08 0 2.15 0 3.2-.1a13.07 13.07 0 0 1-.19-2.02z"/></g><circle cx="244.13" cy="150.07" r="6.55" fill="#e0e0e6"/><path d="M250.63 157.34a9.73 9.73 0 0 1-13 0 13.29 13.29 0 0 0-6.69 14 56 56 0 0 0 26.4 0 13.29 13.29 0 0 0-6.69-14z" fill="#e0e0e6"/><ellipse cx="234.27" cy="179.42" rx="14.78" ry="1.91" fill="#e0e0e6"/></g><path fill="#d1d1da" d="M683.67 18.07h1.44v7.69h-1.44z"/><g><ellipse cx="699.31" cy="180.32" rx="78.24" ry="3.65" fill="#656684" opacity=".1"/><path fill="#d1d1da" d="M759.88 18.07h1.44v7.69h-1.44zM759.88 29.01h1.44v7.69h-1.44z"/><rect x="638.02" y=".33" width="122.59" height="181.51" rx="8.84" ry="8.84" fill="#656684"/><path fill="#f0f0f3" d="M644.03 18.07h110.55v146.02H644.03z"/><path fill="#e0e0e6" d="M644.03 18.07h55.28v146.02h-55.28z"/><path d="M704 173.47a4.65 4.65 0 1 0-4.65 4.66 4.65 4.65 0 0 0 4.65-4.66z" fill="#84859d"/><circle cx="699.31" cy="9.51" r="1.4" fill="#9394a9"/><path d="M699.31 8.11a1.4 1.4 0 0 0 0 2.79z" fill="#84859d"/><circle cx="699.31" cy="173.48" r="3.81" fill="#656684"/><path fill="#d1d1da" d="M644.03 160.9h110.55v3.19H644.03z" style="mix-blend-mode:multiply"/><path fill="#fff" d="M652.94 36.32h92.73v116.9h-92.73z"/><rect x="652.94" y="27.96" width="92.73" height="8.36" rx="3" ry="3" fill="#f7b279"/><path fill="#f7b279" d="M652.94 32.14h92.73v4.18h-92.73z"/><path fill="#f0f0f3" d="M661.56 44.54h77.61v101.4h-77.61z"/><path fill="#f7b279" d="M668.13 52h63.52v22.92h-63.52z"/><path fill="#d1d1da" d="M693.86 81.33h37.79v5.51h-37.79zM693.86 89.5h37.79v2.62h-37.79zM693.86 94.79h37.79v2.62h-37.79zM693.86 100.07h37.79v2.62h-37.79zM693.86 105.36h37.79v2.62h-37.79zM693.86 110.64h37.79v2.62h-37.79zM693.86 115.93h37.79v2.62h-37.79zM693.86 121.21h37.79v2.62h-37.79z"/><path fill="#b5b6c4" d="M693.86 127.8h25.91v1.78h-25.91zM693.86 132.46h25.91v1.78h-25.91zM668.66 92.77h16.76v1.78h-16.76zM668.66 96.33h16.76v1.78h-16.76zM668.66 99.89h16.76v1.78h-16.76z"/><path fill="#f7b279" d="M668.66 103.44h1.78v1.78h-1.78zM671.3 103.44h1.78v1.78h-1.78zM673.95 103.44h1.78v1.78h-1.78z"/><circle cx="672.19" cy="85.53" r="4.2" fill="#fff"/><path d="M699.31 168.83a4.65 4.65 0 1 0 0 9.3z" fill="#fff" opacity=".05"/></g><circle cx="524.55" cy="65.46" r="24.01" fill="#d1d1da"/><g clip-path="url(#clip-path)"><g fill="#e0e0e6"><path d="M498.49 60.48c-.13.17-.3.37-.25.43s.09.06 1-.45c.74-.4.85-.5 1-.45s.27.41.66 1.11.58 1 1 1.18a1.18 1.18 0 0 0 1.32-.46c.2-.42-.26-.69-.16-1.4.06-.41.23-.4.59-1.2s.21-.76.51-1.37c.42-.89.67-.81.77-1.34a3.1 3.1 0 0 0-.27-1.71c-.17-.34-.33-.5-.32-.82 0-.46.42-.74.37-.78a6.13 6.13 0 0 0-2 1.53 22.65 22.65 0 0 0-1.67 1.95 20.74 20.74 0 0 0-1.66 2.3 11.73 11.73 0 0 1-.89 1.48z"/><path d="M515.47 87.67c3.22 2.64 4.69 2.59 5.12 2.56 1-.08 2-.57 2-1 0-.6-2.3-.41-3.09-1.83-.5-.89.21-1.32-.22-2.81S518 83 517.9 81.8s.63-1.24.45-2.19-.79-1-1.63-2.43c-.53-.88-.33-1.23-.68-1.41-.72-.36-1.39.9-3.12 1.17-1.05.17-1.13-.25-2.52-.1a7.51 7.51 0 0 0-2.37.68 5.59 5.59 0 0 0-2.12 1.48c-.83 1-.77 1.84-1.35 1.94s-.85-.63-1.53-.51c-.51.09-.65.54-.94.47-.49-.12-.5-1.47-.68-1.47s0 1.24-.65 1.7a1.42 1.42 0 0 1-1.68-.2c-1-1 .51-4.14 1.41-4.1.47 0 .77.89 1.06.78s.23-.41.17-.69c-.14-.63-.86-.66-1.18-1.18s.07-1.25.47-2.5c.46-1.45.09-1.23.64-4 .43-2.15.78-2.91.38-3.24s-.75.16-2.33.18c-.84 0-1.13-.11-1.33.12-.37.42.36 1.13.1 2.09-.21.79-1.06 1.61-1.78 1.43a1.24 1.24 0 0 1-.86-1.21c.06-.65.83-.64 1.22-1.53.24-.54 0-.67.28-1.8.15-.61.28-1.12.58-1.18a.56.56 0 0 1 .59.46c0 .33-.67.39-.74.83 0 .23.09.5.24.53s.33-.44.83-.79.88-.13 1.21-.45a1.43 1.43 0 0 0-.11-1.91c-.33-.18-.6.17-1.58.19-.47 0-.87 0-1-.21s0-.64.41-1.48a12.94 12.94 0 0 1 1.05-1.9c.27-.4.58-.76.54-.81s-.43.19-.72.43a5.52 5.52 0 0 0-1.22 1.37c-.56.91-1.32 1.68-1.93 2.56-1.68 2.43-1.85 2.33-2.9 3.9-2 3-1.32 3.26-2.85 5.18s-2.52 1.94-3.65 4-.8 3.23-.62 3.67c.07.16.4.94.82.92.58 0 .55-1.51 1.78-2.84.36-.39 1.22-1.32 2-1.15 1 .22.61 2.06 2.07 4a7 7 0 0 0 4.87 2.61 5.77 5.77 0 0 0 1.73-.1c1.65-.35 1.78-1.18 3.1-1.35s1.75.48 2.53 0c.54-.33.62-.84 1-.87s.89.61 1.2 1.1c.73 1.16.49 1.61.9 2.11.85 1 2.48-.07 4.54.62 1.28.42 1 .93 3.47 2.95zM506.28 57.84c.52-.35.77-1.1.58-1.28a.52.52 0 0 0-.66.17.23.23 0 0 0 0 .07c0 .26-.31.44-.58.69s-.45.41-.42.49.65.15 1.08-.14zM509.67 57.44c.15-.07.19-.22.27-.2s0 .12.15.18.16 0 .17.06-.1.09-.13.21 0 .23.14.38a1.77 1.77 0 0 1 .18.25c.07.15 0 .21.07.23s.3-.54.79-1c.06-.06.18-.17.14-.27s-.1-.09-.28-.14l-.48-.12a1.55 1.55 0 0 0-.85 0c-.1 0-.16.09-.2.07s.15-.46.06-.53-.21.13-.37.08-.17-.25-.22-.23 0 .17 0 .71c0 .17 0 .23.05.29a.45.45 0 0 0 .51.03z"/><path d="M509.1 58c0 .09.13.11.14.21s-.16.17-.14.24.14 0 .25.09.12.51.23.54.45-.38.36-.68-.21-.21-.23-.43 0-.24 0-.29-.19 0-.32.09-.29.14-.29.23zM511.52 57.69c-.2.62-.67.86-.59 1s.44-.08.89.09c.24.09.6.33.59.58 0 .44-1.2.48-1.31 1.06-.06.29.18.57.36.78a1.22 1.22 0 0 0 .93.52 1 1 0 0 0 .54-.23c.07 0 .66-.46.6-.92 0-.25-.22-.24-.26-.51s.21-.42.22-.82-.12-.29-.12-.59a1.32 1.32 0 0 1 .33-.86 1.1 1.1 0 0 1 .53-.35c.27-.07.33 0 .66 0 .51 0 .63-.34 1-.26s.36.31.49.27.25-.6 0-.78-.45.11-1 .13-1-.13-1-.24.23-.13.49-.2a4.28 4.28 0 0 1 1.36-.17c1 .05 1.61.46 1.68.35s-.74-.65-.65-.83.37 0 .87 0a3.11 3.11 0 0 0 1-.27c.83-.41.9-1.08 1.25-1s.75.86.57 1.51a2 2 0 0 1-1 1c-.81.52-1.45.48-1.51.81s.43.41.43.75c0 .6-1.54 1.32-2.3.87-.3-.18-.28-.42-.51-.45-.41-.07-.72.64-1.54 1.54s-1 .72-1.29 1.22c-.42.8-.17 1.7.3 3.34a7.4 7.4 0 0 0 .77 1.91 4.18 4.18 0 0 0 1.22 1.47 3.24 3.24 0 0 0 3.09.38 3.66 3.66 0 0 0 .74-.5 3.5 3.5 0 0 0 .86-1c.28-.51.23-.79.53-1s.2 0 .56-.13.5-.3.76-.31.27.05.95.51l.58.4c1.11.7 1.6.64 2.2 1.09s.38.93 1.14 1.7c.59.6.91.49 2.46 1.24 1.74.85 2 1.29 2.49 1.13a2.38 2.38 0 0 0 1.12-2.53 20.46 20.46 0 0 1-.66-2c0-.19 0-.16-.1-.84a6.54 6.54 0 0 0-.47-2.38c-.32-.53-.74-.63-1.13-.92-2.09-1.54-.84-6.47-1.66-6.65-.15 0-.19.13-1 .7a5.63 5.63 0 0 1-1.39.87c-.61.2-1.35-.08-2.79-.65-.93-.37-2.25-.89-2.19-1.15s.64-.15.85-.15c1.07 0 1.67.45 3.24.95.83.26 1 .25 1.18.17.5-.25.56-1 .65-2.2s.15-2.14-.33-2.36c-.24-.11-.55 0-.94.23-.71.34-.77.7-1.21.77s-1.18-.37-1.14-.56.44-.09 1.17-.31a5.88 5.88 0 0 0 1.07-.45c1.06-.54 1.17-.86 2-1.32a3 3 0 0 1 1.67-.59c1.09.11 1.28 1.3 2.6 1.54.48.09 1.13.05 1.26-.23s-.67-.73-1-1.78a3 3 0 0 1 .08-1.69c.12-.42.37-1.27.89-1.36.32-.06.48.23 1.09.23.37 0 .37-.1.62-.09.72 0 .86.92 1.83 1.36a4.11 4.11 0 0 0 1 .22 4.42 4.42 0 0 0 1.89.06c0-.09-.62-.18-1.6-.63s-1.53-.87-1.48-1 1 .4 1.42 0a.77.77 0 0 0 .25-.71c-.1-.55-.86-.57-1.57-1.27a3.15 3.15 0 0 1-.77-1.22c-.51-1.54.88-2.58.32-3.52-.38-.63-1.41-.84-1.91-.95-.66-.14-1.17-.07-1.18-.18s1.23-.49 1.38-.53c1-.24 1.79-.31 1.79-.38s-1.35.17-1.84-.5c-.18-.24-.1-.42-.18-.8-.27-1.26-1.74-2.29-2.33-2-.32.15-.26.63-.53.67s-.76-.5-.7-1 1-.67 1-1.25c0-.35-.31-.43-.31-.87s.34-.92.67-.94.39.31.73.62c.91.81 2.57.64 2.67.32.05-.17-.31-.41-.43-.5-.8-.55-1.61-.22-1.78-.54s1-1.34.8-1.6-1 .27-1.17.06 1.36-1.79 1.23-1.93-.71.38-1.6 1c-1.94 1.36-1.79 1.17-2.33 1.61-1.37 1.1-1.12 1.3-2.34 2.21s-1.47.75-2.19 1.52-.56 1.15-1.31 1.87-1 .47-2.45 1.39c-.51.32-.94.64-1.8 1.28a13.45 13.45 0 0 0-2.13 1.77c-.62.7-1.07 1.21-1.07 1.92s.36 1.22.2 1.31-.22-.14-.52-.21c-.49-.11-1.05.19-1 .38s1.16.23 1.18.55-.53.31-1.18.91a11 11 0 0 0-.93 1.19c-.48.64-.73 1-.76 1-.4.91 0 1.5-.36 1.85a1.08 1.08 0 0 1-1.24 0c0-.09.34-.16.92-.56a.55.55 0 0 0 .28-.34.38.38 0 0 0-.17-.38c-.22-.11-.52.22-1.06.57-.76.5-.84.29-1.36.69a2.7 2.7 0 0 0-1 1.51 7.9 7.9 0 0 0 0 .81 8.26 8.26 0 0 1 0 1.3c-.14.62-.42.74-.33 1.08s.47.62.71.56.21-.17.4-.46.19-.37.28-.41c.31-.14.76.42.94.29s0-.18 0-.51c0-.5.2-.68.09-.83s-.36 0-.53-.16.07-.51-.07-1.08c-.07-.31-.2-.39-.14-.57s.46-.41.56-.32-.29.62-.08.95a1.76 1.76 0 0 0 .57.31c.44.2.46.18.54.24a1.09 1.09 0 0 1 .32 1c0 .07 0 .21-.43.8s-.55.8-.73.87c-.48.17-1-.25-1.07-.16s.44.26.55.67-.18.47-.32 1.17c-.08.57.03.59-.08.94z"/><path d="M514.7 58.49c.12.09.48-.09.47-.22s-.26-.07-.45-.31a.85.85 0 0 0-.23-.25s-.14-.08-.19 0-.07.16 0 .24.24.09.34.23-.03.24.06.31zM516.28 57.63c-.13 0-.3.19-.37.38 0 0-.1.28 0 .34s.31-.27.69-.27h.16c.01 0-.15-.08-.3-.25s-.12-.19-.18-.2zM508.84 50.62c.32-.31.19-.69.57-1 .19-.13.35-.12.41-.27a.39.39 0 0 0-.21-.47.28.28 0 0 0-.21.08 6.33 6.33 0 0 0-.91 1c-.45.6-.72.73-.66.84s.68.15 1.01-.18zM515 46.37c.09-.13 0-.28-.09-.56-.15-.83.65-1.52.5-1.66s-.4.09-.62.26c-.62.49-1 1.47-.67 1.87s.7.28.88.09zM538.48 36.28c-.29-.42-1.06 0-1.44-.46s0-.89-.3-1-.49.38-1 .38c-.36 0-.4-.24-.89-.41-.73-.25-1.61-.07-1.65.15a.13.13 0 0 0 0 .1c.28.42 1.31-.08 2.32.38.4.18.31.29.87.56s.93.27 1.07.55 0 .3-.13.91c-.17.77-.25 1.17-.07 1.34s.8.06 1.06-.29.08-.37.14-1.35c.05-.67.1-.74.02-.86zM543.5 44.28c.2-.1.21-.77-.12-1.17s-.81-.41-1.82-.5a8.61 8.61 0 0 1-1.33-.1c-.66-.14-1-.37-1-.29s.41.78 1.14 1 .9-.15 1.58 0c.94.27 1.29 1.19 1.55 1.06zM543.46 47.84c.15-.47-.73-.75-1.15-2.11-.11-.35-.17-.71-.37-.75s-.44.29-.56.55c-.33.69.12 1.11-.16 1.94-.16.46-.36.54-.29.7.2.49 2.31.36 2.53-.33z"/><path d="M541.62 49.54c-.58-.1-.59-.32-1.29-.4s-.71.14-1.6.08c-.46 0-.81-.11-1 .1a.35.35 0 0 0-.07.34c.14.3.91-.1 1.88.13.76.18.84.56 1.5.59a2.66 2.66 0 0 0 1.22-.38 10.27 10.27 0 0 0 2.6-1.33 3 3 0 0 0 .93-1.25 11.62 11.62 0 0 1-1.66 1.39 3.75 3.75 0 0 1-2.51.73zM547.33 43.21c-.18.34-.1.74-.32.81s-.25-.11-.46-.18a1.36 1.36 0 0 0-1.41.57c0 .11.53-.17 1.29 0a1.6 1.6 0 0 0 .63.09 1.77 1.77 0 0 0 .64-.29c.7-.33 1.32.25 1.6 0s-.18-1 0-1.19.6.44 1.13.33c.25-.05.51-.25.49-.4s-.93-.38-1.48-.39-1.72-.06-2.11.65zM551.25 45.13c-1.36-.55-1.57-.58-1.61-.5s.89.73.8 1.42c-.06.45-.55.86-.88.8s-.57-.57-.64-.71-.12-.29-.22-.33-.51.24-.63.37a2.3 2.3 0 0 0-.44.71 6.36 6.36 0 0 0-.31 1.1 4.11 4.11 0 0 0-.25 1.29c0 .48.23.46.25.84.05.75-.65 1-.78 1.86a2.06 2.06 0 0 0 .23 1.26c.32.55.7.45 1.19 1.13.32.45.39.8.62.81s.27-.12.47-.43a5.92 5.92 0 0 0 .63-1.36 3.44 3.44 0 0 1 1.16-1.77 2.23 2.23 0 0 1 1.28-.4c.84 0 1 .58 1.65.48a1.57 1.57 0 0 0 1.13-1.25c.07-.39-.08-.55-.26-1.23-.39-1.45 0-1.76-.41-2.41a4 4 0 0 0-1.5-1 15.78 15.78 0 0 0-1.48-.68zM554.68 51.84c-.11.07-.24.07-.37.21a.5.5 0 0 0 .27.63c.21 0 .41-.32.48-.57s0-.66-.08-.67-.09.28-.3.4zM558.21 45.36c-.25.42.61.88.73 2 .16 1.48-1.26 2.52-.89 3a.87.87 0 0 0 1 0c.64-.46 0-1.48.47-3.23.26-.92.61-1.25.4-1.6a1.28 1.28 0 0 0-1.71-.17zM532.85 61.75c-.16.1-.07.5 0 1 .34 1.8.18 2 .51 2.31.53.48 1.52.44 1.66.14s-.14-.33-.45-.84c-.69-1.15-.47-1.84-1.19-2.42-.05-.03-.38-.29-.53-.19zM558.11 62.79a2.08 2.08 0 0 0-1.11 1.09c.27-.63.56-1.43.3-1.67s-2 .51-3.21 1.7-1 1.84-2.14 3.2c-1.48 1.7-2.24 1.15-3.58 2.73s-.81 2.48-2.23 3.9c-1.17 1.17-1.64.67-3 1.8-1.92 1.64-1.13 2.85-3.14 4.77-1.25 1.19-2 1.18-2.56 2.38-.38.88-.18 1.36-.68 2.5a7.34 7.34 0 0 1-1.41 2c-1.17 1.33-3.15 3.1-3.66 2.73-.34-.25.2-1.31-.06-1.44s-1 .87-1.79 1.85a37.73 37.73 0 0 1-2.93 3.11c-2.07 1.95-3.26 2.35-3.29 3.52a1.41 1.41 0 0 0 .53 1.23c.6.35 1.55-.26 2-.53 5.87-3.88 8-6.16 8-6.16 3.33-3.33 2.34-1.69 8.68-7.8 3.7-3.57 6.12-6.23 9-9.42 0 0 1.29-1.42 4-4.84 3.42-4.28 4.16-5.66 3.73-6.31a1.37 1.37 0 0 0-1.45-.34zm-1.51 1.9a1.13 1.13 0 0 1 .11-.26 1.42 1.42 0 0 1-.1.27z"/></g></g><path d="M499.85 45.41a1.27 1.27 0 0 1 .65-2.14h.48a1.27 1.27 0 1 1-1.14 2.14zM545.49 88a1.27 1.27 0 1 0 1.27 1.27 1.27 1.27 0 0 0-1.27-1.27zm-11.72 21.49a8.57 8.57 0 0 1-4.52-7.56h.11a1 1 0 0 0 .39-.08 1 1 0 0 0 0-1.87 1 1 0 0 0-.39-.08h-2.89v-.68h-.41V98s-.06-.19-.59-.29V94.8c.54-.11.59-.29.59-.29A28.88 28.88 0 0 0 545.12 86a1.27 1.27 0 0 0-1.8-1.8 26.35 26.35 0 0 1-17.26 7.8s-.1-.19-.59-.29v-.93s-.07-.22-.91-.22-.91.22-.91.22v.93c-.49.1-.58.26-.59.29a26.55 26.55 0 0 1-17.27-45.28 1.27 1.27 0 1 0-1.8-1.8A29.09 29.09 0 0 0 523 94.51s.06.19.59.29v2.91c-.54.11-.59.29-.59.29v1.21h-.41v.68h-2.91a1 1 0 0 0 0 2h.11a8.57 8.57 0 0 1-4.52 7.56 2 2 0 0 0-2 2h22.54a2 2 0 0 0-2.03-1.96z" fill="#f7b279"/><g fill="#f8be8f"><path d="M524.55 90.52v21h11.26a2 2 0 0 0-2-2 8.57 8.57 0 0 1-4.52-7.56h.11a1 1 0 0 0 .39-.08 1 1 0 0 0 0-1.87 1 1 0 0 0-.39-.08h-2.89v-.68h-.41V98s-.06-.19-.59-.29V94.8c.54-.11.59-.29.59-.29A28.88 28.88 0 0 0 545.12 86a1.27 1.27 0 0 0-1.8-1.8 26.35 26.35 0 0 1-17.26 7.8s-.1-.19-.59-.29v-.93s-.07-.26-.92-.26z"/><circle cx="545.49" cy="89.27" r="1.27"/></g></g></g></svg>