<?xml version="1.0"?>
<svg xmlns="http://www.w3.org/2000/svg" viewBox="0 0 64 64" width="512" height="512"><g id="Coffee_Shop" data-name="Coffee Shop"><rect x="8" y="25" width="48" height="36" style="fill:#3d9ae2"/><rect x="12" y="38" width="40" height="12" style="fill:#e6e7e8"/><polygon points="60 25 60 29 52 29 44 29 36 29 28 29 20 29 12 29 4 29 4 25 60 25" style="fill:#ff5023"/><polygon points="54 13 60 25 4 25 10 13 54 13" style="fill:#ff7956"/><polygon points="49 13 49 17 15 17 15 13 15 3 49 3 49 13" style="fill:#00ddc2"/><path d="M46,49v1H36V49a4,4,0,0,1,4-4h2A4,4,0,0,1,46,49Z" style="fill:#ff9811"/><polygon points="45 54 45 57 42 57 39 57 39 54 45 54" style="fill:#acabb1"/><path d="M42.41,41.59A2,2,0,0,1,41,45a2.006,2.006,0,0,1-2-2,1.994,1.994,0,0,1,3.41-1.41Z" style="fill:#ffa733"/><polygon points="35 54 35 57 32 57 29 57 29 54 35 54" style="fill:#acabb1"/><path d="M28,44v6H16V44a2.006,2.006,0,0,1,2-2h8A2.006,2.006,0,0,1,28,44Z" style="fill:#00ccb3"/><polygon points="25 54 25 57 22 57 19 57 19 54 25 54" style="fill:#acabb1"/><path d="M56,31v6a4,4,0,0,1-4-4,4,4,0,0,1-8,0,4,4,0,0,1-8,0,4,4,0,0,1-8,0,4,4,0,0,1-8,0,4,4,0,0,1-8,0,4,4,0,0,1-4,4V31Z" style="fill:#1e81ce"/><path d="M60,29v2a4,4,0,0,1-8,0V29Z" style="fill:#ff6243"/><path d="M52,29v2a4,4,0,0,1-8,0V29Z" style="fill:#ff7956"/><path d="M44,29v2a4,4,0,0,1-8,0V29Z" style="fill:#ff6243"/><path d="M36,29v2a4,4,0,0,1-8,0V29Z" style="fill:#ff7956"/><path d="M28,29v2a4,4,0,0,1-8,0V29Z" style="fill:#ff6243"/><path d="M20,29v2a4,4,0,0,1-8,0V29Z" style="fill:#ff7956"/><path d="M12,29v2a4,4,0,0,1-8,0V29Z" style="fill:#ff6243"/><rect x="31" y="9" width="2" height="2"/><rect x="35" y="9" width="2" height="2"/><rect x="27" y="9" width="2" height="2"/><path d="M52,37H12a1,1,0,0,0-1,1V50a1,1,0,0,0,1,1H52a1,1,0,0,0,1-1V38A1,1,0,0,0,52,37ZM17,49V44a1,1,0,0,1,1-1h8a1,1,0,0,1,1,1v5Zm20,0a3,3,0,0,1,3-3h2a3,3,0,0,1,3,3Zm3-6a1,1,0,1,1,1,1A1,1,0,0,1,40,43Zm11,6H47a4.993,4.993,0,0,0-3.315-4.687,3,3,0,1,0-5.369,0A4.992,4.992,0,0,0,35,49H29V44a3,3,0,0,0-3-3H18a3,3,0,0,0-3,3v5H13V39H51Z"/><rect x="21" y="45" width="2" height="2"/><path d="M57,60V35.9A5.009,5.009,0,0,0,61,31V25a1,1,0,0,0-.1-.447l-6-12A1,1,0,0,0,54,12H50V3a1,1,0,0,0-1-1H15a1,1,0,0,0-1,1v9H10a1,1,0,0,0-.895.553l-6,12A1,1,0,0,0,3,25v6a5.009,5.009,0,0,0,4,4.9V60H2v2H62V60Zm2-29a3,3,0,0,1-6,0V30h6Zm-8,0a3,3,0,0,1-6,0V30h6Zm-8,0a3,3,0,0,1-6,0V30h6Zm-8,0a3,3,0,0,1-6,0V30h6Zm-8,0a3,3,0,0,1-6,0V30h6Zm-8,0a3,3,0,0,1-6,0V30h6ZM5,26H59v2H5ZM16,4H48V16H16ZM10.618,14H14v3a1,1,0,0,0,1,1H49a1,1,0,0,0,1-1V14h3.382l5,10H5.618ZM5,31V30h6v1a3,3,0,0,1-6,0ZM43,60V58h2a1,1,0,0,0,1-1V54a1,1,0,0,0-1-1H39a1,1,0,0,0-1,1v3a1,1,0,0,0,1,1h2v2H33V58h2a1,1,0,0,0,1-1V54a1,1,0,0,0-1-1H29a1,1,0,0,0-1,1v3a1,1,0,0,0,1,1h2v2H23V58h2a1,1,0,0,0,1-1V54a1,1,0,0,0-1-1H19a1,1,0,0,0-1,1v3a1,1,0,0,0,1,1h2v2H9V35.9a4.994,4.994,0,0,0,3-1.93,4.954,4.954,0,0,0,8,0,4.954,4.954,0,0,0,8,0,4.954,4.954,0,0,0,8,0,4.954,4.954,0,0,0,8,0,4.954,4.954,0,0,0,8,0,4.994,4.994,0,0,0,3,1.93V60Zm-3-4V55h4v1ZM30,56V55h4v1ZM20,56V55h4v1Z"/></g></svg>
